<?xml version="1.0" encoding="UTF-8" standalone="no"?>
<!-- Generator: Adobe Illustrator 16.0.0, SVG Export Plug-In . SVG Version: 6.00 Build 0)  -->

<svg
   xmlns:dc="http://purl.org/dc/elements/1.1/"
   xmlns:cc="http://creativecommons.org/ns#"
   xmlns:rdf="http://www.w3.org/1999/02/22-rdf-syntax-ns#"
   xmlns:svg="http://www.w3.org/2000/svg"
   xmlns="http://www.w3.org/2000/svg"
   xmlns:sodipodi="http://sodipodi.sourceforge.net/DTD/sodipodi-0.dtd"
   xmlns:inkscape="http://www.inkscape.org/namespaces/inkscape"
   version="1.1"
   id="Layer_1"
   x="0px"
   y="0px"
   width="218.131px"
   height="218.131px"
   viewBox="0 0 218.131 218.131"
   enable-background="new 0 0 218.131 218.131"
   xml:space="preserve"
   inkscape:version="0.91 r13725"
   sodipodi:docname="anvil.svg"><metadata
     id="metadata36"><rdf:RDF><cc:Work
         rdf:about=""><dc:format>image/svg+xml</dc:format><dc:type
           rdf:resource="http://purl.org/dc/dcmitype/StillImage" /><dc:title></dc:title></cc:Work></rdf:RDF></metadata><defs
     id="defs34" /><sodipodi:namedview
     pagecolor="#ffffff"
     bordercolor="#666666"
     borderopacity="1"
     objecttolerance="10"
     gridtolerance="10"
     guidetolerance="10"
     inkscape:pageopacity="0"
     inkscape:pageshadow="2"
     inkscape:window-width="1920"
     inkscape:window-height="1028"
     id="namedview32"
     showgrid="false"
     inkscape:zoom="1.0819187"
     inkscape:cx="109.0655"
     inkscape:cy="109.0655"
     inkscape:window-x="1912"
     inkscape:window-y="-8"
     inkscape:window-maximized="1"
     inkscape:current-layer="Layer_1" /><g
     id="Anvil__x2B__Hammer"
     style="fill:#044f67;fill-opacity:1"><g
       id="g4"
       style="fill:#044f67;fill-opacity:1"><g
         id="g6"
         style="fill:#044f67;fill-opacity:1"><path
           fill="#F06768"
           d="M3.527,110.714c-0.91,0-1.648-0.738-1.648-1.65c0-59.102,48.082-107.186,107.186-107.186     c0.91,0,1.648,0.738,1.648,1.65c0,0.91-0.738,1.648-1.648,1.648C51.779,5.177,5.178,51.781,5.178,109.063     C5.178,109.976,4.439,110.714,3.527,110.714z"
           id="path8"
           style="fill:#044f67;fill-opacity:1" /></g><g
         id="g10"
         style="fill:#044f67;fill-opacity:1"><path
           fill="#F06768"
           d="M109.064,216.253c-0.912,0-1.65-0.738-1.65-1.65c0-0.91,0.738-1.648,1.65-1.648     c57.283,0,103.889-46.605,103.889-103.891c0-0.91,0.738-1.648,1.65-1.648c0.91,0,1.648,0.738,1.648,1.648     C216.252,168.167,168.168,216.253,109.064,216.253z"
           id="path12"
           style="fill:#044f67;fill-opacity:1" /></g><g
         id="g14"
         style="fill:#044f67;fill-opacity:1"><path
           fill="#F06768"
           d="M109.064,209.802c-55.547,0-100.734-45.189-100.734-100.738C8.33,53.517,53.518,8.328,109.064,8.328     s100.736,45.188,100.736,100.735C209.801,164.612,164.611,209.802,109.064,209.802z M109.064,11.627     c-53.725,0-97.436,43.711-97.436,97.437c0,53.729,43.711,97.439,97.436,97.439c53.727,0,97.438-43.711,97.438-97.439     C206.502,55.338,162.791,11.627,109.064,11.627z"
           id="path16"
           style="fill:#044f67;fill-opacity:1" /></g></g><g
       id="g18"
       style="fill:#044f67;fill-opacity:1"><path
         fill="#F06768"
         d="M69.463,106.244c-0.468,0-0.994,0.328-1.004,0.328l0,0c-8.838-0.674-15.553-2.511-16.841-3.155    l-0.402-0.144c-0.183-0.061-0.314-0.101-0.537-0.101c-0.795,0-1.457,0.644-1.457,1.313c0,0.669,0.347,1.38,1.041,1.632    l0.349,0.127c5.633,2.112,15.881,3.396,18.739,3.396c0.22,0,0.407-0.165,0.435-0.386l0.044-0.372    c0.031-0.259,0.202-1.279,0.202-1.934c0-0.263-0.027-0.466-0.103-0.538C69.801,106.289,69.636,106.244,69.463,106.244z"
         id="path20"
         style="fill:#044f67;fill-opacity:1" /><path
         fill="#F06768"
         d="M94.758,119.298c1.17,2.049,1.922,4.271,2.242,6.604c0.105,0.751,0.746,1.296,1.484,1.296    c0.852,0,1.502-0.691,1.502-1.501c0-1-0.76-4.621-2.621-7.885c-0.882-1.551-4.438-6.494-6.2-6.494    c-0.835,0-1.501,0.675-1.501,1.499c0,0.439,0.192,0.875,0.562,1.171C92.068,115.467,93.596,117.253,94.758,119.298z"
         id="path22"
         style="fill:#044f67;fill-opacity:1" /><path
         fill="#F06768"
         d="M185.057,89.556c0-0.829-0.672-1.5-1.5-1.5h-25.915c-0.268,0-0.475-0.218-0.475-0.475    c0-0.142,0.063-0.278,0.178-0.369c1.078-0.86,1.72-2.151,1.72-3.561c0-2.261-1.676-4.238-3.977-4.552l-40.335-5.473    c-0.001,0-0.001,0-0.002,0c-0.185-0.024-0.368-0.036-0.549-0.036c-0.235,0-0.514,0.027-0.514,0.027    c-0.269-0.002-0.474-0.217-0.474-0.474c0-0.021,0.001-0.043,0.004-0.064l0.763-5.62c0.003-0.021,0.004-0.042,0.004-0.063    c0-0.241-0.179-0.439-0.41-0.47l-5.165-0.701c-0.021-0.003-0.043-0.004-0.064-0.004c-0.233,0-0.437,0.172-0.469,0.41l-0.139,1.015    c0,0.615-0.677,1.376-1.555,1.376c-0.065,0-0.131-0.004-0.197-0.013c-0.003,0-0.006,0-0.008-0.001l-0.992-0.11    c-0.018-0.002-0.035-0.003-0.053-0.003c-0.234,0-0.438,0.173-0.47,0.41l-2.356,17.367c-0.003,0.021-0.004,0.04-0.004,0.061    c0,0.218,0.162,0.408,0.384,0.438c0.221,0.03,0.387,0.219,0.387,0.438c0,0.251-0.201,0.445-0.443,0.445H85.77    c-0.829,0-1.5,0.671-1.5,1.5v2.159c0,1.409-1.142,2.55-2.551,2.55H33.078c-0.829,0-1.5,0.672-1.5,1.5    c0,0.842,0.531,20.607,46.788,20.607c0.012,0,0.021-0.001,0.033-0.003c0.038-0.007,0.077-0.01,0.116-0.01    c0.038,0,0.077,0.003,0.115,0.01c0.011,0.002,0.022,0.003,0.034,0.003c6.648,0,12.058,5.41,12.058,12.059    c0,6.649-5.409,12.059-12.058,12.059c-0.56,0-1.071,0.312-1.329,0.805c-0.35,0.642-6.781,11.731-7.148,12.364    c0,0.001,0,0.001,0,0.002l-0.021,0.033c-0.058,0.116-0.081,0.139-0.141,0.29c0,0-0.001,0.001-0.001,0.003    c-0.002,0.001-0.002,0.002-0.003,0.003c-0.001,0.003-0.003,0.006-0.005,0.009c-0.404,0.685-0.651,1.472-0.651,2.32    c0,0.877-0.717,1.594-1.594,1.594h-7.224c-0.829,0-1.5,0.671-1.5,1.5s0.671,1.5,1.5,1.5H73.96h8.497h51.668h8.498h13.374    c0.829,0,1.5-0.671,1.5-1.5s-0.671-1.5-1.5-1.5h-7.187c-0.88,0-1.594-0.714-1.594-1.594c0-0.996-0.328-1.913-0.868-2.666    l0.023-0.017c-3.023-5.262-6.606-11.502-7.034-12.271c-0.315-0.605-0.822-0.876-1.367-0.876c-6.648,0-12.058-5.409-12.058-12.059    c0-16.894,25.533-31.182,57.644-31.182c0.828,0,1.5-0.671,1.5-1.5c0-0.002-0.002-0.003-0.002-0.004    c0-0.002,0.002-0.004,0.002-0.005V89.556z M77.18,110.768c0,1.404-1.135,2.55-2.55,2.55c-13.067,0-35.941-3.539-39.749-16.053    h39.748c1.408,0,2.551,1.141,2.551,2.551V110.768z M84.27,111.134c0,0.744-0.33,1.45-0.902,1.926    c-0.455,0.382-1.026,0.587-1.611,0.587c-0.148,0-0.297-0.013-0.445-0.04c-0.706-0.117-1.131-0.689-1.131-1.311V99.31    c0-1.129,0.914-2.045,2.045-2.045c1.129,0,2.045,0.916,2.045,2.045V111.134z M114.133,76.585c0.072,0,0.146,0.005,0.217,0.016    l40.336,5.473c0.798,0.107,1.38,0.794,1.38,1.579c0,0.869-0.712,1.592-1.581,1.592c-0.074,0-0.15-0.006-0.227-0.017l-40.336-5.473    c-0.798-0.107-1.378-0.792-1.378-1.576C112.544,77.282,113.273,76.585,114.133,76.585z M105.891,84.605    c-0.237-0.032-0.41-0.235-0.41-0.469c0-0.021,0.002-0.043,0.005-0.064l1.607-11.842c0.025-0.186,0.157-0.339,0.338-0.392    c1.222-0.354,2.25-1.207,2.825-2.336l0.413,0.056l-1.084,7.993c0,0.003-0.003,0.005-0.003,0.006c0,0.002,0,0.003,0,0.006    l-0.941,6.938c-0.032,0.238-0.236,0.41-0.468,0.41c-0.021,0-0.044-0.002-0.065-0.005L105.891,84.605z M111.771,83.771    c0.086-0.635,0.63-1.104,1.266-1.104c0.18,0,0.293,0.038,0.481,0.063l32.3,4.382c0.236,0.032,0.41,0.234,0.41,0.469    c0,0.268-0.218,0.475-0.474,0.475H112.65c-0.704,0-1.275-0.57-1.275-1.274c0-0.057,0.004-0.114,0.012-0.172L111.771,83.771z     M82.457,157.912h-8.496c-0.879,0-1.594-0.715-1.594-1.594c0-0.878,0.715-1.591,1.594-1.591h8.496    c0.879,0,1.594,0.713,1.594,1.591C84.051,157.197,83.336,157.912,82.457,157.912z M127.938,157.912H88.645    c-0.879,0-1.594-0.714-1.594-1.594c0-0.006,0-0.012,0-0.018c0-0.005,0-0.009,0-0.014c0-0.318,0.134-0.622,0.371-0.835l3.422-3.071    c0.467-0.421,1.072-0.653,1.703-0.653h31.543c0.627,0,1.236,0.232,1.703,0.653l3.305,2.966c0.277,0.248,0.434,0.602,0.434,0.972    C129.531,157.188,128.826,157.912,127.938,157.912z M96.964,147.454c0-0.355,0.148-0.703,0.423-0.95l3.893-3.495    c0.467-0.42,1.072-0.653,1.703-0.653l10.67-0.001c0.629,0,1.236,0.232,1.705,0.652l3.893,3.497    c0.275,0.247,0.424,0.595,0.424,0.95c0,0.701-0.568,1.273-1.275,1.273h-20.16C97.547,148.728,96.964,148.172,96.964,147.454z     M144.217,156.318c0,0.879-0.715,1.594-1.594,1.594h-8.498c-0.879,0-1.594-0.715-1.594-1.594c0-0.878,0.715-1.591,1.594-1.591    h8.498C143.502,154.728,144.217,155.44,144.217,156.318z M135.883,143.345c1.606,0.226,1.794,1.159,4.086,5.166l0.75,1.307    c0.114,0.197,0.171,0.417,0.171,0.637c0,0.717-0.587,1.273-1.274,1.273h-5.49c-0.66,0-1.289,0.143-1.855,0.396    c-0.335,0.15-0.691,0.225-1.045,0.225c-0.617,0-1.229-0.225-1.705-0.653l-13.312-11.958c-0.275-0.247-0.633-0.383-1.002-0.383    l-13.773,0.001c-0.371,0-0.727,0.136-1.002,0.384L87.1,151.71c-0.477,0.429-1.088,0.653-1.707,0.653    c-0.357,0-0.717-0.075-1.055-0.229c-0.574-0.261-1.211-0.407-1.881-0.407h-5.471c-0.719,0-1.275-0.59-1.275-1.276    c0-0.221,0.058-0.44,0.172-0.638l0.857-1.479c0.92-1.591,1.615-2.791,2.127-3.709c0.393-0.697,1.088-1.17,1.879-1.28    c5.34-0.741,9.791-4.296,11.809-9.114c0.407-0.977,1.356-1.565,2.357-1.565c0.438,0,0.873,0.113,1.262,0.335    c3.641,2.08,7.781,3.196,12.072,3.196c4.348,0,8.518-1.14,12.18-3.261c0.394-0.228,0.835-0.344,1.279-0.344    c1.022,0,1.957,0.616,2.355,1.578C126.064,139.017,130.527,142.599,135.883,143.345z M129.381,112.124    c0,0.649-0.152,1.21-0.6,1.742c-3.232,3.838-5.238,8.066-5.74,12.522c-0.317,2.888-8.165,6.809-14.795,6.809    c-6.601,0-14.297-3.839-14.66-6.655c-0.492-3.912-2.48-7.36-5.385-9.745c-0.592-0.483-0.932-1.207-0.932-1.972v-15.01    c0-1.41,1.141-2.551,2.549-2.551h37.014c1.41,0,2.549,1.141,2.549,2.551V112.124z M151.629,98.515    c0,0.528-0.329,1.012-0.838,1.197c-5.461,1.994-10.324,4.47-14.396,7.322c-0.437,0.306-0.947,0.46-1.461,0.46    c-1.394,0-2.553-1.128-2.553-2.548V99.79c0-1.409,1.143-2.551,2.553-2.551h15.422C151.053,97.239,151.629,97.805,151.629,98.515z     M182.057,94.239h-51.176H89.818c-1.408,0-2.549-1.141-2.549-2.55v-0.634h94.787V94.239z"
         id="path24"
         style="fill:#044f67;fill-opacity:1" /><path
         fill="#F06768"
         d="M45.598,100.888c-0.814,0-1.477,0.66-1.477,1.477c0,0.815,0.662,1.477,1.477,1.477    c0.818,0,1.477-0.661,1.477-1.477C47.074,101.548,46.416,100.888,45.598,100.888z"
         id="path26"
         style="fill:#044f67;fill-opacity:1" /><path
         fill="#F06768"
         d="M108.266,112.139c0,0.816,0.661,1.499,1.502,1.499c0.255,0,0.513-0.064,0.75-0.201l12.719-7.346    c0.481-0.277,0.751-0.781,0.751-1.299c0-0.818-0.668-1.502-1.504-1.502c-0.323,0-0.499,0.078-0.751,0.204l-12.717,7.345    C108.534,111.116,108.266,111.62,108.266,112.139z"
         id="path28"
         style="fill:#044f67;fill-opacity:1" /><path
         fill="#F06768"
         d="M106.791,108.505c0.255,0,0.513-0.064,0.749-0.201l6.949-4.012c0.481-0.278,0.751-0.783,0.751-1.302    c0-0.821-0.67-1.499-1.503-1.499c-0.255,0-0.512,0.065-0.747,0.201c-0.001,0-0.001,0-0.002,0l-6.949,4.013    c-0.481,0.278-0.75,0.782-0.75,1.301C105.289,107.822,105.95,108.505,106.791,108.505z"
         id="path30"
         style="fill:#044f67;fill-opacity:1" /></g></g></svg>