<?xml version="1.0" encoding="UTF-8" standalone="no"?>
<!-- Generator: Adobe Illustrator 16.0.0, SVG Export Plug-In . SVG Version: 6.00 Build 0)  -->

<svg
   xmlns:dc="http://purl.org/dc/elements/1.1/"
   xmlns:cc="http://creativecommons.org/ns#"
   xmlns:rdf="http://www.w3.org/1999/02/22-rdf-syntax-ns#"
   xmlns:svg="http://www.w3.org/2000/svg"
   xmlns="http://www.w3.org/2000/svg"
   xmlns:sodipodi="http://sodipodi.sourceforge.net/DTD/sodipodi-0.dtd"
   xmlns:inkscape="http://www.inkscape.org/namespaces/inkscape"
   version="1.1"
   id="Layer_1"
   x="0px"
   y="0px"
   width="218.131px"
   height="218.131px"
   viewBox="0 0 218.131 218.131"
   enable-background="new 0 0 218.131 218.131"
   xml:space="preserve"
   inkscape:version="0.91 r13725"
   sodipodi:docname="chess.svg"><metadata
     id="metadata4244"><rdf:RDF><cc:Work
         rdf:about=""><dc:format>image/svg+xml</dc:format><dc:type
           rdf:resource="http://purl.org/dc/dcmitype/StillImage" /><dc:title></dc:title></cc:Work></rdf:RDF></metadata><defs
     id="defs4242" /><sodipodi:namedview
     pagecolor="#ffffff"
     bordercolor="#666666"
     borderopacity="1"
     objecttolerance="10"
     gridtolerance="10"
     guidetolerance="10"
     inkscape:pageopacity="0"
     inkscape:pageshadow="2"
     inkscape:window-width="1920"
     inkscape:window-height="1028"
     id="namedview4240"
     showgrid="false"
     inkscape:zoom="1.0819187"
     inkscape:cx="109.0655"
     inkscape:cy="109.0655"
     inkscape:window-x="1912"
     inkscape:window-y="-8"
     inkscape:window-maximized="1"
     inkscape:current-layer="Layer_1" /><g
     id="Chess_1"
     style="fill:#044f67;fill-opacity:1"><g
       id="g4166"
       style="fill:#044f67;fill-opacity:1"><g
         id="g4168"
         style="fill:#044f67;fill-opacity:1"><g
           id="g4170"
           style="fill:#044f67;fill-opacity:1"><path
             fill="#F06768"
             d="M3.529,110.713c-0.911,0-1.649-0.738-1.649-1.648C1.88,49.962,49.962,1.879,109.065,1.879      c0.911,0,1.649,0.738,1.649,1.649s-0.738,1.649-1.649,1.649C51.781,5.178,5.179,51.781,5.179,109.064      C5.179,109.975,4.44,110.713,3.529,110.713z"
             id="path4172"
             style="fill:#044f67;fill-opacity:1" /></g><g
           id="g4174"
           style="fill:#044f67;fill-opacity:1"><path
             fill="#F06768"
             d="M109.065,216.252c-0.911,0-1.649-0.738-1.649-1.648c0-0.912,0.738-1.65,1.649-1.65      c57.281,0,103.888-46.605,103.888-103.889c0-0.912,0.738-1.65,1.648-1.65c0.912,0,1.65,0.738,1.65,1.65      C216.252,168.168,168.166,216.252,109.065,216.252z"
             id="path4176"
             style="fill:#044f67;fill-opacity:1" /></g><g
           id="g4178"
           style="fill:#044f67;fill-opacity:1"><path
             fill="#F06768"
             d="M109.065,209.801c-55.547,0-100.737-45.189-100.737-100.736S53.519,8.327,109.065,8.327      s100.737,45.19,100.737,100.737S164.612,209.801,109.065,209.801z M109.065,11.626c-53.728,0-97.438,43.71-97.438,97.438      c0,53.727,43.711,97.438,97.438,97.438s97.438-43.711,97.438-97.438C206.504,55.336,162.793,11.626,109.065,11.626z"
             id="path4180"
             style="fill:#044f67;fill-opacity:1" /></g></g></g><g
       id="g4182"
       style="fill:#044f67;fill-opacity:1"><g
         id="g4184"
         style="fill:#044f67;fill-opacity:1"><g
           id="g4186"
           style="fill:#044f67;fill-opacity:1"><path
             fill="#F06768"
             d="M115.555,166.625h-6.492c-1.416,0-2.552-1.151-2.552-2.553c0-0.474,0.196-0.939,0.196-1.573      c0-5.252-5.389-9.205-7.27-9.205c-0.905,0-1.748,0.528-1.748,1.515c0,0.026-0.727,2.62-16.896,2.62      c-16.171,0-16.898-2.594-16.898-2.62c0-0.829-0.671-1.5-1.5-1.5c-2.309,0-7.557,3.803-7.557,9.183      c0,6.621,16.552,7.113,22.98,7.224c0.036,0.003,0.659,0.003,0.695,0.003c5.021,0,36.693-0.092,37.038-0.093      c0.84,0,1.503-0.678,1.503-1.5C117.055,167.296,116.384,166.625,115.555,166.625z M57.854,162.619      c0-0.018-0.009-0.032-0.01-0.049c0.041-2.269,1.458-5.062,3.588-5.062c0.463,0,0.929,0.125,1.346,0.384      c2.325,1.443,7.369,2.538,18.015,2.538c10.617,0,15.662-1.089,17.995-2.526c0.414-0.256,0.878-0.38,1.338-0.38      c2.133,0,3.587,2.812,3.587,5.174c0,0.007,0.005,0.013,0.005,0.019c-0.152,0.618-1.947,4.026-22.925,4.026      C58.115,166.742,57.854,162.781,57.854,162.619z"
             id="path4188"
             style="fill:#044f67;fill-opacity:1" /><circle
             fill="#F06768"
             cx="98.999"
             cy="161.296"
             r="1.477"
             id="circle4190"
             style="fill:#044f67;fill-opacity:1" /><path
             fill="#F06768"
             d="M57.664,145.881c0,7.869,17.704,8.482,23.13,8.482s23.13-0.613,23.13-8.482      c0-10.025-14.795-8.093-14.795-17.631c0-5.775,3.193-9.494,3.226-9.531c0.251-0.285,0.375-0.64,0.375-0.992      c0-0.892-0.783-1.515-1.39-1.515c-0.508,0-1.008,0.355-1.686,0.693c-0.589,0.302-2.634,1.002-8.859,1.002      c-2.338,0-7.679-0.048-9.583-1.4c-0.259-0.182-0.562-0.274-0.866-0.274c-0.828,0-1.484,0.682-1.484,1.495      c0,0.354,0.125,0.71,0.379,0.995c0.032,0.037,3.223,3.696,3.223,9.527C72.462,137.792,57.664,135.846,57.664,145.881z       M75.462,128.25c0-1.565-0.193-2.998-0.495-4.281c-0.045-0.193-0.068-0.389-0.068-0.583c0-1.4,1.137-2.552,2.55-2.552      c0.001,0,1.46,0.073,3.346,0.073c1.894,0,3.346-0.073,3.346-0.073c1.412,0,2.55,1.148,2.55,2.551      c0,0.195-0.022,0.391-0.068,0.584c-0.301,1.283-0.495,2.716-0.495,4.281c0,11.589,14.796,10.273,14.796,17.631      c0,3.124-8.654,5.48-20.129,5.48c-11.476,0-20.129-2.356-20.129-5.48C60.666,138.523,75.462,139.839,75.462,128.25z"
             id="path4192"
             style="fill:#044f67;fill-opacity:1" /><path
             fill="#F06768"
             d="M80.602,145.089c-0.345,0-0.66-0.003-0.938-0.007c-0.009,0-0.015,0-0.023,0      c-0.817,0-1.485,0.656-1.5,1.477c0,0.007,0,0.015,0,0.021c0,0.818,0.658,1.488,1.477,1.502c0.296,0.004,0.633,0.007,0.999,0.007      c2.361,0,6.082-0.123,9.703-0.751c0.729-0.128,1.244-0.762,1.244-1.479c0-0.833-0.681-1.499-1.507-1.499      C90.055,144.36,86.116,145.089,80.602,145.089z"
             id="path4194"
             style="fill:#044f67;fill-opacity:1" /><path
             fill="#F06768"
             d="M95.674,145.947c0.019,0,0.037-0.008,0.055-0.012c0.004-0.001,0.008-0.002,0.012-0.002      c0.004,0,0.008,0.001,0.012,0.002c0.019,0.004,0.036,0.012,0.055,0.012c0.817,0,1.477-0.66,1.477-1.477      c0-0.815-0.659-1.477-1.477-1.477c-0.006,0-0.012,0.001-0.018,0.002c-0.016,0.004-0.033,0.005-0.049,0.005      s-0.033-0.001-0.049-0.005c-0.006-0.001-0.012-0.002-0.018-0.002c-0.814,0-1.477,0.661-1.477,1.477      C94.197,145.287,94.859,145.947,95.674,145.947z"
             id="path4196"
             style="fill:#044f67;fill-opacity:1" /></g><g
           id="g4198"
           style="fill:#044f67;fill-opacity:1"><circle
             fill="#F06768"
             cx="71.05"
             cy="112.203"
             r="1.477"
             id="circle4200"
             style="fill:#044f67;fill-opacity:1" /></g><g
           id="g4202"
           style="fill:#044f67;fill-opacity:1"><path
             fill="#F06768"
             d="M81.061,114.836c-1.626,0-3.12-0.045-4.433-0.131c-0.792-0.053-1.401-0.712-1.401-1.494      c0-0.85,0.701-1.501,1.54-1.501c0.001,0,1.765,0.126,4.294,0.126c6.363,0,8.622-0.67,9.401-1.068      c0.219-0.111,0.452-0.164,0.681-0.164c0.849,0,1.502,0.688,1.502,1.499C92.646,114.82,83.814,114.836,81.061,114.836z"
             id="path4204"
             style="fill:#044f67;fill-opacity:1" /></g></g></g><g
       id="g4206"
       style="fill:#044f67;fill-opacity:1"><g
         id="g4208"
         style="fill:#044f67;fill-opacity:1"><g
           id="g4210"
           style="fill:#044f67;fill-opacity:1"><path
             fill="#F06768"
             d="M154.573,134.839c-1.446,0.431-4.37,0.91-10.214,0.91c-5.85,0-8.772-0.48-10.218-0.911      c-1.728-0.515-1.321-2.012-2.831-2.012c-0.83,0-1.5,0.672-1.5,1.5c0,3.1,4.35,4.423,14.549,4.423      c10.195,0,14.545-1.323,14.545-4.423c0-0.828-0.67-1.5-1.5-1.5C155.896,132.826,156.301,134.325,154.573,134.839z"
             id="path4212"
             style="fill:#044f67;fill-opacity:1" /><path
             fill="#F06768"
             d="M144.359,132.297c18.932,0,22.907-7.648,22.907-14.064c0-11.018-12.586-17.052-12.586-31.486      c0-7.387,4.23-9.582,4.438-9.685c0.539-0.257,0.853-0.792,0.853-1.353c0-0.214-0.046-0.43-0.141-0.637      c-0.347-0.748-0.702-1.021-1.268-1.021c0,0-4.466,1.136-14.204,1.136c-9.795,0-14.172-1.13-14.172-1.13      c-0.889,0-1.433,0.965-1.433,1.649c0,0.556,0.312,1.093,0.842,1.354c0.182,0.089,4.441,2.274,4.441,9.686      c0,14.437-12.586,20.467-12.586,31.486C121.452,124.648,125.428,132.297,144.359,132.297z M137.038,86.746      c0-2.105-0.296-3.883-0.758-5.374c-0.077-0.247-0.114-0.502-0.114-0.754c0-1.41,1.145-2.552,2.55-2.552      c0,0,2.376,0.12,5.644,0.12c3.242,0,5.643-0.121,5.643-0.121c1.414,0,2.551,1.149,2.551,2.551c0,0.253-0.037,0.507-0.114,0.755      c-0.462,1.492-0.758,3.269-0.758,5.375c0,15.393,12.587,21.918,12.587,31.486c0,7.342-6.699,11.064-19.908,11.064      c-13.21,0-19.907-3.723-19.907-11.064C124.452,108.664,137.038,102.141,137.038,86.746z"
             id="path4214"
             style="fill:#044f67;fill-opacity:1" /><path
             fill="#F06768"
             d="M157.815,118.232c0,0.829,0.671,1.5,1.5,1.5s1.5-0.671,1.5-1.5c0-7.746-12.586-15.179-12.586-31.486      c0-0.83-0.671-1.5-1.5-1.5s-1.5,0.67-1.5,1.5c0,10.588,4.726,17.59,8.522,23.215      C156.271,113.695,157.815,116.094,157.815,118.232z"
             id="path4216"
             style="fill:#044f67;fill-opacity:1" /><path
             fill="#F06768"
             d="M129.785,112.886c0,0.83,0.669,1.501,1.499,1.501c1.159,0,1.101-0.589,3.683-4.428      c0.174-0.257,0.256-0.548,0.256-0.837c0-0.826-0.667-1.501-1.5-1.501c-0.48,0-0.953,0.231-1.243,0.662      C130.7,110.925,129.785,112.108,129.785,112.886z"
             id="path4218"
             style="fill:#044f67;fill-opacity:1" /><path
             fill="#F06768"
             d="M127.259,71.574c3.907,0.888,9.659,1.338,17.097,1.338c7.466,0,13.232-0.453,17.139-1.348      c0.682-0.156,1.166-0.762,1.166-1.463V59.822c0-0.848-0.696-1.503-1.498-1.503c-0.113,0-0.226,0.014-0.336,0.04      c-6.528,1.49-9.269,0.168-9.269,2.513c0,0.909-0.737,1.646-1.646,1.646h-0.177c-0.777,0-1.406-0.63-1.406-1.406      c0-0.822-0.631-1.498-1.598-1.498c-0.037,0-2.295,0.017-2.349,0.017c-1.244,0-2.486-0.015-3.749-0.045c-0.008,0-0.015,0-0.022,0      c-0.847,0-1.513,0.674-1.513,1.5c0,0.791-0.642,1.433-1.433,1.433h-0.052c-0.964,0-1.746-0.782-1.746-1.746      c0-0.78-0.599-1.431-1.378-1.495c-4.036-0.328-6.901-0.948-6.901-0.948c-0.812,0-1.496,0.664-1.496,1.501v10.281      C126.092,70.811,126.576,71.419,127.259,71.574z M129.093,64.539c0-1.388,1.128-2.513,2.513-2.513      c0.093,0,0.186,0.005,0.279,0.016c0.543,0.036,0.984,0.491,0.984,1.058v0.92c0,0.829,0.671,1.5,1.5,1.5h6.23      c0.827,0,1.5-0.671,1.5-1.5v-0.087c0-0.721,0.584-1.305,1.305-1.305c0.018,0,0.563,0.002,0.582,0.002      c0.742,0.001,1.343,0.604,1.343,1.346v0.044c0,0.829,0.671,1.5,1.5,1.5h6.229c0.828,0,1.5-0.671,1.5-1.5c0-0.01,0-0.019,0-0.027      c0-1.089,0.766-1.963,2.553-1.963c1.41,0,2.549,1.146,2.549,2.553v2.083c0,1.303-0.979,2.391-2.273,2.531      c-4.308,0.471-11.037,0.716-13.03,0.716c-5.188,0-9.615-0.232-13.043-0.68c-1.269-0.164-2.221-0.962-2.221-2.242V64.539z"
             id="path4220"
             style="fill:#044f67;fill-opacity:1" /><circle
             fill="#F06768"
             cx="129.418"
             cy="118.476"
             r="1.477"
             id="circle4222"
             style="fill:#044f67;fill-opacity:1" /></g><path
           fill="#F06768"
           d="M179.111,151.398h-6.492c-1.416,0-2.552-1.151-2.552-2.553c0-0.473,0.196-0.939,0.196-1.574     c0-5.251-5.389-9.205-7.27-9.205c-0.906,0-1.748,0.529-1.748,1.515c0,0.026-0.727,2.621-16.896,2.621     c-16.173,0-16.899-2.595-16.899-2.621c0-0.829-0.67-1.5-1.5-1.5c-2.309,0-7.557,3.803-7.557,9.183     c0,6.63,16.597,7.114,22.979,7.225c0.038,0.003,0.716,0.003,0.755,0.003c5.201,0,36.635-0.092,36.979-0.093     c0.84,0,1.503-0.678,1.503-1.5C180.611,152.069,179.94,151.398,179.111,151.398z M121.411,147.392     c0-0.018-0.009-0.032-0.011-0.048c0.041-2.245,1.441-5.064,3.588-5.064c0.463,0,0.93,0.126,1.347,0.385     c2.325,1.442,7.368,2.537,18.016,2.537c10.618,0,15.663-1.089,17.996-2.526c0.414-0.255,0.878-0.379,1.337-0.379     c2.171,0,3.588,2.875,3.588,5.173c0,0.008,0.006,0.014,0.006,0.02c-0.152,0.618-1.949,4.027-22.927,4.027     C121.672,151.516,121.411,147.555,121.411,147.392z"
           id="path4224"
           style="fill:#044f67;fill-opacity:1" /><circle
           fill="#F06768"
           cx="162.556"
           cy="146.068"
           r="1.477"
           id="circle4226"
           style="fill:#044f67;fill-opacity:1" /></g></g><g
       id="g4228"
       style="fill:#044f67;fill-opacity:1"><path
         fill="#F06768"
         d="M66.345,82.973c0-0.83-0.671-1.5-1.5-1.5s-1.5,0.67-1.5,1.5c0,11.705,10.403,18.631,13.878,18.631    c0.831,0,1.5-0.674,1.5-1.501c0-0.629-0.398-1.214-1.029-1.423C71.299,96.564,66.345,90.471,66.345,82.973z"
         id="path4230"
         style="fill:#044f67;fill-opacity:1" /><circle
         fill="#F06768"
         cx="105.635"
         cy="78.557"
         r="1.477"
         id="circle4232"
         style="fill:#044f67;fill-opacity:1" /><path
         fill="#F06768"
         d="M86.68,90.467c0.811,0,1.5-0.658,1.5-1.5c0-1-3.462-7.348-5.414-7.348c-0.829,0-1.5,0.671-1.5,1.5    c0,0.385,0.146,0.768,0.439,1.061C85.626,88.096,84.735,90.467,86.68,90.467z"
         id="path4234"
         style="fill:#044f67;fill-opacity:1" /><path
         fill="#F06768"
         d="M94.188,67.027c-0.835,0-1.626-0.326-2.221-0.918c-0.293-0.293-0.677-0.439-1.061-0.439    c-0.829,0-1.5,0.671-1.5,1.5c0,1.504,2.714,2.857,4.775,2.857c0.003,0,0.006,0,0.006,0c0.829-0.002,1.5-0.674,1.5-1.502    C95.686,67.698,95.015,67.027,94.188,67.027z"
         id="path4236"
         style="fill:#044f67;fill-opacity:1" /><path
         fill="#F06768"
         d="M111.811,79.652c0-2.222-0.928-4.072-0.984-4.184c-0.304-0.59-12.431-13.259-14.353-14.634    c-6.105-4.364-10.493-2.209-10.493-5.911v-1.078c0-0.551-0.394-1.196-1.024-1.402c-0.726-0.262-1.644-0.408-2.655-0.408    c-1.752,0-3.784,0.441-5.585,1.496c-2.02,1.181-3.565,2.942-4.463,5.058c-0.848,1.992-15.359,7.021-15.359,24.383    c0,14.329,10.668,25.986,23.799,25.986c9.434,0,15.293-5.876,15.293-15.334c0-1.981-0.352-3.989-1.026-5.978    c-0.035-0.104-0.052-0.211-0.052-0.315c0-0.551,0.449-0.983,0.982-0.983c0.321,0,0.634,0.158,0.821,0.441    c0.281,0.423,0.786,0.674,1.267,0.674c0.055,0,0.108-0.003,0.162-0.01c0.002,0,0.004,0,0.006,0l5.821-0.701    C108.343,86.205,111.811,84.046,111.811,79.652z M108.818,79.637c0,2.182-1.608,3.367-2.936,3.367    c-0.854,0-1.656-0.428-2.131-1.146l-1.746-2.648c-0.314-0.457-0.779-0.674-1.256-0.674c-0.283,0-0.569,0.08-0.824,0.246    c-0.437,0.289-0.674,0.767-0.674,1.254c0,0.283,0.08,0.57,0.248,0.824l0.452,0.685c0.201,0.304,0.303,0.655,0.303,1.008    c0,0.924-0.691,1.708-1.613,1.819c-3.683-5.035-9.48-8.036-15.741-8.036c-4.151,0-7.789-2.537-9.319-6.23    c-0.24-0.577-0.801-0.925-1.39-0.925c-0.819,0-1.497,0.665-1.497,1.499c0,1.428,3.966,8.656,12.206,8.656    c0.929,0,1.843,0.09,2.74,0.247c1.952,0.341,7.349,7.273,7.349,14.043c0,7.723-4.595,12.334-12.311,12.334    c-11.459,0-20.782-10.312-20.782-22.986c0-16.445,14.275-20.299,14.741-22.088c0.998-3.874,4.495-5.532,5.795-5.532    c1.414,0,2.55,1.148,2.55,2.551v0.582c0,0.788,0.609,1.441,1.395,1.496c9.648,0.682,11.507,3.862,23.514,16.657    C108.562,77.354,108.818,78.729,108.818,79.637z"
         id="path4238"
         style="fill:#044f67;fill-opacity:1" /></g></g></svg>