<?xml version="1.0" encoding="UTF-8" standalone="no"?>
<!-- Generator: Adobe Illustrator 16.0.0, SVG Export Plug-In . SVG Version: 6.00 Build 0)  -->

<svg
   xmlns:dc="http://purl.org/dc/elements/1.1/"
   xmlns:cc="http://creativecommons.org/ns#"
   xmlns:rdf="http://www.w3.org/1999/02/22-rdf-syntax-ns#"
   xmlns:svg="http://www.w3.org/2000/svg"
   xmlns="http://www.w3.org/2000/svg"
   xmlns:sodipodi="http://sodipodi.sourceforge.net/DTD/sodipodi-0.dtd"
   xmlns:inkscape="http://www.inkscape.org/namespaces/inkscape"
   version="1.1"
   id="Layer_1"
   x="0px"
   y="0px"
   width="218.131px"
   height="218.131px"
   viewBox="0 0 218.131 218.131"
   enable-background="new 0 0 218.131 218.131"
   xml:space="preserve"
   inkscape:version="0.91 r13725"
   sodipodi:docname="glasses.svg"><metadata
     id="metadata38"><rdf:RDF><cc:Work
         rdf:about=""><dc:format>image/svg+xml</dc:format><dc:type
           rdf:resource="http://purl.org/dc/dcmitype/StillImage" /><dc:title></dc:title></cc:Work></rdf:RDF></metadata><defs
     id="defs36" /><sodipodi:namedview
     pagecolor="#ffffff"
     bordercolor="#666666"
     borderopacity="1"
     objecttolerance="10"
     gridtolerance="10"
     guidetolerance="10"
     inkscape:pageopacity="0"
     inkscape:pageshadow="2"
     inkscape:window-width="1920"
     inkscape:window-height="1028"
     id="namedview34"
     showgrid="false"
     inkscape:zoom="1.0819187"
     inkscape:cx="109.0655"
     inkscape:cy="109.0655"
     inkscape:window-x="1912"
     inkscape:window-y="-8"
     inkscape:window-maximized="1"
     inkscape:current-layer="Layer_1" /><g
     id="Einstein"
     style="fill:#044f67;fill-opacity:1"><g
       id="g4"
       style="fill:#044f67;fill-opacity:1"><g
         id="g6"
         style="fill:#044f67;fill-opacity:1"><path
           fill="#F06768"
           d="M3.528,110.713c-0.91,0-1.648-0.738-1.648-1.648C1.88,49.962,49.964,1.879,109.065,1.879     c0.91,0,1.648,0.738,1.648,1.649s-0.738,1.649-1.648,1.649C51.784,5.178,5.179,51.781,5.179,109.064     C5.179,109.975,4.44,110.713,3.528,110.713z"
           id="path8"
           style="fill:#044f67;fill-opacity:1" /></g><g
         id="g10"
         style="fill:#044f67;fill-opacity:1"><path
           fill="#F06768"
           d="M109.065,216.252c-0.912,0-1.65-0.738-1.65-1.648c0-0.912,0.738-1.65,1.65-1.65     c57.284,0,103.888-46.605,103.888-103.889c0-0.912,0.738-1.65,1.648-1.65c0.912,0,1.65,0.738,1.65,1.65     C216.252,168.168,168.17,216.252,109.065,216.252z"
           id="path12"
           style="fill:#044f67;fill-opacity:1" /></g><g
         id="g14"
         style="fill:#044f67;fill-opacity:1"><path
           fill="#F06768"
           d="M109.065,209.801c-55.547,0-100.738-45.189-100.738-100.736S53.519,8.327,109.065,8.327     c55.548,0,100.737,45.19,100.737,100.737S164.613,209.801,109.065,209.801z M109.065,11.626     c-53.729,0-97.439,43.71-97.439,97.438c0,53.727,43.711,97.438,97.439,97.438c53.728,0,97.438-43.711,97.438-97.438     C206.504,55.336,162.793,11.626,109.065,11.626z"
           id="path16"
           style="fill:#044f67;fill-opacity:1" /></g></g><g
       id="g18"
       style="fill:#044f67;fill-opacity:1"><path
         fill="#F06768"
         d="M130.443,77.908c0,0,4.188-1.254,8.643-1.254c7.887,0,15.535,3.214,21.062,9.035    c0.295,0.311,0.692,0.467,1.087,0.467c0.838,0,1.5-0.675,1.5-1.499c0-1.635-9.689-11.002-23.642-11.002    c-3.059,0-6.115,0.438-9.074,1.313c-0.653,0.193-1.075,0.79-1.075,1.438C128.943,77.243,129.628,77.908,130.443,77.908z"
         id="path20"
         style="fill:#044f67;fill-opacity:1" /><path
         fill="#F06768"
         d="M56.878,85.971c0.268,0,0.537-0.072,0.783-0.221c4.555-2.793,9.797-4.268,15.154-4.268    c5.359,0,10.6,1.475,15.156,4.268c0.244,0.149,0.515,0.221,0.782,0.221c0.837,0,1.502-0.683,1.502-1.498    c0-2.753-11.064-5.99-17.44-5.99c-7.727,0-17.438,3.701-17.438,5.989C55.377,85.283,56.034,85.971,56.878,85.971z"
         id="path22"
         style="fill:#044f67;fill-opacity:1" /><path
         fill="#F06768"
         d="M78.767,99.475c0-0.652-0.43-1.253-1.088-1.442c-1.572-0.454-3.211-0.685-4.863-0.685    c-10.694,0-16.923,9.637-16.923,12.988c0,0.833,0.679,1.5,1.501,1.5c0.645,0,1.242-0.421,1.436-1.07    c1.838-6.135,7.588-10.418,13.986-10.418c1.371,0,2.729,0.191,4.035,0.567c0.137,0.039,0.274,0.058,0.41,0.058    C78.087,100.973,78.767,100.304,78.767,99.475z"
         id="path24"
         style="fill:#044f67;fill-opacity:1" /><path
         fill="#F06768"
         d="M145.294,97.348c-9.701,0-17.596,7.895-17.596,17.596c0,0.83,0.674,1.5,1.5,1.5c0.828,0,1.5-0.67,1.5-1.5    c0-8.047,6.547-14.596,14.596-14.596c0.828,0,1.5-0.67,1.5-1.5C146.794,98.02,146.122,97.348,145.294,97.348z"
         id="path26"
         style="fill:#044f67;fill-opacity:1" /><path
         fill="#F06768"
         d="M174.506,114.96c0-0.8-0.725-1.5-1.5-1.5h-1.453c-1.26,0-2.326-0.919-2.518-2.165    c-1.764-11.53-11.724-20.396-23.741-20.396c-6.327,0-12.08,2.469-16.375,6.483c-0.489,0.458-1.113,0.687-1.738,0.687    c-0.628,0-1.256-0.231-1.748-0.693c-4.409-4.146-10.176-6.477-16.377-6.477c-6.198,0-11.965,2.333-16.375,6.478    c-0.491,0.461-1.119,0.691-1.748,0.691c-0.624,0-1.249-0.229-1.738-0.686c-4.295-4.014-10.05-6.483-16.379-6.483    c-12.014,0-21.974,8.866-23.736,20.396c-0.19,1.244-1.26,2.165-2.518,2.165h-1.453c-0.751,0-1.482,0.635-1.482,1.503    c0,0.723,0.584,1.361,1.105,1.448l2.555,0.685c0.959,0.257,1.682,1.047,1.854,2.024c1.98,11.294,11.841,19.902,23.676,19.902    c13.26,0,24.049-10.802,24.049-24.079c0-4.282-1.129-8.304-3.102-11.79c-0.222-0.393-0.33-0.824-0.33-1.253    c0-2.923,7.754-8.002,15.623-8.002c7.847,0,15.625,5.109,15.625,8.002c0,0.429-0.108,0.86-0.33,1.253    c-1.971,3.485-3.1,7.508-3.1,11.79c0,3.15,0.609,6.159,1.713,8.919c0.121,0.304,0.182,0.625,0.182,0.945    c0,1.146-0.766,2.162-1.893,2.466l-11.529,3.089c-0.217,0.058-0.438,0.087-0.66,0.087c-0.224,0-0.447-0.029-0.664-0.088    l-10.062-2.711c-0.141-0.031-0.226-0.053-0.395-0.053c-0.826,0-1.501,0.673-1.501,1.502c0,0.662,0.44,1.268,1.109,1.447    l3.137,0.845c0.56,0.15,0.943,0.66,0.943,1.232c0,0.441-0.23,0.857-0.616,1.09c-5.268,3.182-8.533,8.232-8.533,9.256    c0,0.83,0.671,1.502,1.498,1.502c0.519,0,1.022-0.268,1.301-0.75c2.812-4.869,7.351-8.353,12.779-9.809l0.338-0.091    c0.217-0.058,0.438-0.086,0.66-0.086c0.223,0,0.445,0.028,0.662,0.087l0.333,0.09c0.001,0,0.001,0,0.002,0    c5.429,1.456,9.969,4.939,12.779,9.809c0.278,0.482,0.782,0.75,1.301,0.75c0.829,0,1.499-0.672,1.499-1.501    c0-1.016-3.254-6.062-8.521-9.249c-0.385-0.233-0.614-0.648-0.614-1.09c0-0.583,0.391-1.084,0.944-1.232l6.841-1.833    c0.218-0.059,0.439-0.087,0.658-0.087c0.744,0,1.466,0.326,1.958,0.913c4.412,5.266,11.011,8.63,18.395,8.63    c11.837,0,21.698-8.609,23.679-19.901c0.172-0.977,0.895-1.768,1.852-2.024l2.559-0.686    C173.898,116.325,174.506,115.657,174.506,114.96z M72.815,136.023c-13.357,0-20.324-12.123-20.324-15.87    c0-0.703,0.571-1.274,1.274-1.274c0.109,0,0.221,0.014,0.329,0.043l32.975,8.834c0.555,0.147,0.945,0.652,0.945,1.23    C88.015,130.456,81.341,136.023,72.815,136.023z M89.601,125.238c-0.22,0-0.442-0.029-0.663-0.088l-35.189-9.428    c-1.123-0.301-1.888-1.315-1.888-2.459c0-8.719,8.591-19.365,20.956-19.365c11.605,0,21.048,9.441,21.048,21.046    C93.864,117.786,92.927,125.238,89.601,125.238z M124.249,114.943c0-11.604,9.439-21.046,21.045-21.046    c12.397,0,20.958,10.704,20.958,19.364c0,1.142-0.764,2.16-1.887,2.46l-35.189,9.428c-0.22,0.059-0.441,0.087-0.659,0.087    C125.173,125.236,124.249,117.732,124.249,114.943z M145.294,136.023c-8.354,0-15.197-5.479-15.197-7.037    c0-0.585,0.396-1.084,0.946-1.23l32.975-8.834c0.109-0.029,0.221-0.044,0.332-0.044c0.697,0,1.271,0.567,1.271,1.274    C165.621,123.539,158.995,136.023,145.294,136.023z"
         id="path28"
         style="fill:#044f67;fill-opacity:1" /><path
         fill="#F06768"
         d="M151.067,98.185c-0.814,0-1.477,0.661-1.477,1.477s0.662,1.477,1.477,1.477    c0.818,0,1.477-0.661,1.477-1.477S151.886,98.185,151.067,98.185z"
         id="path30"
         style="fill:#044f67;fill-opacity:1" /><circle
         fill="#F06768"
         cx="82.47"
         cy="101.981"
         r="1.477"
         id="circle32"
         style="fill:#044f67;fill-opacity:1" /></g></g></svg>