<?xml version="1.0" encoding="UTF-8" standalone="no"?><!DOCTYPE svg PUBLIC "-//W3C//DTD SVG 1.1//EN" "http://www.w3.org/Graphics/SVG/1.1/DTD/svg11.dtd"><svg width="100%" height="100%" viewBox="0 0 2710 1089" version="1.1" xmlns="http://www.w3.org/2000/svg" xmlns:xlink="http://www.w3.org/1999/xlink" xml:space="preserve" style="fill-rule:evenodd;clip-rule:evenodd;stroke-linecap:round;stroke-linejoin:round;stroke-miterlimit:1.41421;"><text x="1153.95px" y="60.718px" style="font-family:'Oswald-Regular', 'Oswald Regular';font-size:75px;fill:#fafafa;">A<tspan x="1213.33px 1265.61px 1324.98px 1386.78px 1446.15px 1518.17px " y="60.718px 60.718px 60.718px 60.718px 60.718px 60.718px ">LABAMA</tspan></text><clipPath id="_clip1"><path d="M297.645,927.506l0,-75.897l17.669,0c4.578,0 8.408,0.457 11.49,1.373c3.083,0.916 5.555,2.365 7.416,4.349c1.862,1.983 3.182,4.417 3.96,7.301c0.778,2.884 1.167,6.432 1.167,10.643l0,27.374c0,4.334 -0.397,8.011 -1.19,11.032c-0.794,3.022 -2.098,5.585 -3.914,7.691c-1.816,2.106 -4.234,3.654 -7.256,4.646c-3.021,0.992 -6.729,1.488 -11.123,1.488l-18.219,0ZM311.469,917.801l3.937,0c1.373,0 2.579,-0.122 3.616,-0.366c1.038,-0.244 1.908,-0.534 2.61,-0.87c0.701,-0.335 1.289,-0.885 1.762,-1.648c0.473,-0.763 0.832,-1.464 1.076,-2.105c0.244,-0.641 0.427,-1.61 0.549,-2.907c0.122,-1.297 0.198,-2.403 0.229,-3.319c0.03,-0.915 0.046,-2.273 0.046,-4.074l0,-27.74c0,-1.801 -0.031,-3.251 -0.092,-4.349c-0.061,-1.099 -0.206,-2.205 -0.435,-3.319c-0.229,-1.114 -0.564,-1.976 -1.007,-2.586c-0.442,-0.611 -1.03,-1.168 -1.762,-1.671c-0.733,-0.504 -1.648,-0.855 -2.747,-1.053c-1.098,-0.198 -2.426,-0.298 -3.982,-0.298l-3.8,0l0,56.305ZM377.634,927.506l0,-75.897l31.769,0l0,9.75l-17.944,0l0,21.79l14.191,0l0,9.75l-14.191,0l0,25.04l18.173,0l0,9.567l-31.998,0ZM464.857,928.421c-13.367,0 -20.386,-7.721 -21.057,-23.162l12.039,-2.518c0.305,10.04 3.174,15.06 8.606,15.06c2.105,0 3.669,-0.641 4.692,-1.922c1.022,-1.282 1.533,-3.006 1.533,-5.173c0,-2.106 -0.381,-4.036 -1.144,-5.791c-0.763,-1.754 -1.648,-3.189 -2.655,-4.303c-1.007,-1.114 -2.442,-2.495 -4.303,-4.142l-9.979,-8.652c-2.93,-2.564 -5.112,-5.226 -6.546,-7.988c-1.435,-2.762 -2.152,-6.218 -2.152,-10.369c0,-5.889 1.732,-10.467 5.196,-13.732c3.463,-3.266 8.217,-4.929 14.259,-4.99c2.777,-0.031 5.234,0.313 7.37,1.03c2.136,0.717 3.899,1.678 5.287,2.884c1.389,1.205 2.548,2.708 3.479,4.509c0.931,1.8 1.625,3.67 2.083,5.607c0.458,1.938 0.778,4.097 0.961,6.478l-11.81,2.334c-0.061,-1.526 -0.16,-2.853 -0.297,-3.982c-0.138,-1.129 -0.374,-2.274 -0.71,-3.433c-0.336,-1.16 -0.771,-2.099 -1.305,-2.816c-0.534,-0.717 -1.251,-1.289 -2.151,-1.716c-0.9,-0.428 -1.946,-0.595 -3.136,-0.504c-2.044,0.122 -3.609,0.801 -4.692,2.037c-1.083,1.236 -1.625,2.892 -1.625,4.967c0,2.441 0.481,4.448 1.442,6.02c0.961,1.571 2.464,3.257 4.509,5.058l9.888,8.606c1.648,1.495 3.082,2.945 4.303,4.349c1.22,1.403 2.388,3.006 3.502,4.806c1.113,1.801 1.96,3.784 2.54,5.951c0.58,2.167 0.87,4.456 0.87,6.866c0,5.524 -1.747,10.01 -5.242,13.459c-3.494,3.448 -8.079,5.172 -13.755,5.172ZM520.493,927.506l0,-75.897l13.642,0l0,75.897l-13.642,0ZM592.93,928.513c-7.172,0 -12.337,-2.243 -15.495,-6.729c-3.159,-4.486 -4.738,-11.017 -4.738,-19.592l0,-24.72c0,-4.364 0.343,-8.125 1.03,-11.284c0.686,-3.158 1.838,-5.928 3.456,-8.308c1.617,-2.38 3.845,-4.166 6.683,-5.356c2.838,-1.19 6.317,-1.785 10.437,-1.785c7.507,0 12.894,1.839 16.159,5.516c3.266,3.677 4.898,9.254 4.898,16.731l0,3.708l-13.229,0l0,-3.937c0,-1.678 -0.038,-3.051 -0.115,-4.119c-0.076,-1.069 -0.259,-2.144 -0.549,-3.228c-0.29,-1.083 -0.709,-1.915 -1.259,-2.495c-0.549,-0.579 -1.297,-1.052 -2.243,-1.419c-0.946,-0.366 -2.106,-0.549 -3.479,-0.549c-1.037,0 -1.961,0.13 -2.769,0.389c-0.809,0.26 -1.488,0.58 -2.037,0.961c-0.55,0.382 -1.015,0.924 -1.396,1.626c-0.382,0.701 -0.672,1.38 -0.87,2.037c-0.199,0.656 -0.351,1.503 -0.458,2.54c-0.107,1.038 -0.175,1.953 -0.206,2.747c-0.031,0.793 -0.046,1.816 -0.046,3.067l0,30.624c0,4.578 0.565,7.927 1.694,10.048c1.129,2.121 3.281,3.182 6.454,3.182c1.648,0 3.029,-0.313 4.143,-0.939c1.114,-0.625 1.984,-1.572 2.609,-2.838c0.626,-1.266 1.069,-2.716 1.328,-4.349c0.259,-1.632 0.389,-3.608 0.389,-5.928l0,-6.225l-8.194,0l0,-8.927l20.645,0l0,38.544l-8.972,0l-1.007,-7.691c-2.289,5.799 -6.577,8.698 -12.863,8.698ZM654.334,927.506l0,-75.897l9.522,0l18.585,42.984l0,-42.984l11.444,0l0,75.897l-9.064,0l-18.768,-45.181l0,45.181l-11.719,0ZM784.925,942.749l0.092,-91.186l11.123,0.046l-0.046,91.14l-11.169,0ZM887.226,927.506l0,-75.897l17.67,0c4.577,0 8.407,0.457 11.49,1.373c3.082,0.916 5.554,2.365 7.415,4.349c1.862,1.983 3.182,4.417 3.96,7.301c0.778,2.884 1.167,6.432 1.167,10.643l0,27.374c0,4.334 -0.396,8.011 -1.19,11.032c-0.793,3.022 -2.098,5.585 -3.914,7.691c-1.816,2.106 -4.234,3.654 -7.255,4.646c-3.022,0.992 -6.729,1.488 -11.124,1.488l-18.219,0ZM901.051,917.801l3.936,0c1.374,0 2.579,-0.122 3.617,-0.366c1.037,-0.244 1.907,-0.534 2.609,-0.87c0.702,-0.335 1.289,-0.885 1.762,-1.648c0.473,-0.763 0.832,-1.464 1.076,-2.105c0.244,-0.641 0.427,-1.61 0.549,-2.907c0.122,-1.297 0.199,-2.403 0.229,-3.319c0.031,-0.915 0.046,-2.273 0.046,-4.074l0,-27.74c0,-1.801 -0.031,-3.251 -0.092,-4.349c-0.061,-1.099 -0.206,-2.205 -0.434,-3.319c-0.229,-1.114 -0.565,-1.976 -1.008,-2.586c-0.442,-0.611 -1.029,-1.168 -1.762,-1.671c-0.732,-0.504 -1.648,-0.855 -2.746,-1.053c-1.099,-0.198 -2.427,-0.298 -3.983,-0.298l-3.799,0l0,56.305ZM967.216,927.506l0,-75.897l31.768,0l0,9.75l-17.944,0l0,21.79l14.191,0l0,9.75l-14.191,0l0,25.04l18.173,0l0,9.567l-31.997,0ZM1047.16,927.506l-15.381,-75.897l12.268,0l9.979,52.826l9.43,-52.826l12.543,0l-15.473,75.897l-13.366,0ZM1111.91,927.506l0,-75.897l31.768,0l0,9.75l-17.944,0l0,21.79l14.191,0l0,9.75l-14.191,0l0,25.04l18.173,0l0,9.567l-31.997,0ZM1179.99,927.506l0,-75.897l13.825,0l0,66.33l18.173,0l0,9.567l-31.998,0ZM1267.26,928.421c-7.812,0 -13.412,-2.121 -16.799,-6.362c-3.388,-4.242 -5.082,-10.453 -5.082,-18.631l0,-28.016c0,-4.028 0.382,-7.522 1.145,-10.482c0.763,-2.961 1.991,-5.524 3.685,-7.691c1.694,-2.167 3.959,-3.792 6.798,-4.875c2.838,-1.083 6.256,-1.625 10.253,-1.625c7.782,0 13.375,2.09 16.778,6.271c3.402,4.181 5.104,10.315 5.104,18.402l0,28.016c0,3.967 -0.39,7.453 -1.168,10.459c-0.778,3.006 -2.014,5.616 -3.708,7.828c-1.693,2.213 -3.959,3.884 -6.797,5.013c-2.839,1.129 -6.241,1.693 -10.209,1.693ZM1267.26,918.168c1.343,0 2.488,-0.199 3.434,-0.596c0.946,-0.396 1.701,-0.915 2.266,-1.556c0.564,-0.641 1.007,-1.48 1.327,-2.518c0.321,-1.037 0.534,-2.075 0.641,-3.112c0.107,-1.038 0.16,-2.274 0.16,-3.708l0,-34.47c0,-1.831 -0.091,-3.357 -0.274,-4.578c-0.184,-1.22 -0.542,-2.372 -1.076,-3.456c-0.534,-1.083 -1.335,-1.892 -2.403,-2.426c-1.069,-0.534 -2.427,-0.801 -4.075,-0.801c-1.647,0 -3.013,0.267 -4.097,0.801c-1.083,0.534 -1.884,1.343 -2.403,2.426c-0.519,1.084 -0.87,2.236 -1.053,3.456c-0.183,1.221 -0.274,2.747 -0.274,4.578l0,34.47c0,1.434 0.053,2.67 0.16,3.708c0.107,1.037 0.32,2.075 0.641,3.112c0.32,1.038 0.755,1.877 1.304,2.518c0.55,0.641 1.305,1.16 2.266,1.556c0.962,0.397 2.114,0.596 3.456,0.596ZM1341.21,883.881l4.44,0c3.906,0 6.546,-0.771 7.919,-2.312c1.374,-1.541 2.06,-4.371 2.06,-8.491c0,-2.35 -0.091,-4.166 -0.274,-5.448c-0.184,-1.281 -0.611,-2.449 -1.282,-3.501c-0.672,-1.053 -1.671,-1.778 -2.999,-2.175c-1.327,-0.397 -3.12,-0.595 -5.378,-0.595l-4.486,0l0,22.522ZM1327.38,927.506l0,-75.897l21.835,0c12.94,0 19.41,7.187 19.41,21.56c0,7.05 -1.77,12.215 -5.31,15.496c-3.54,3.28 -8.53,4.921 -14.969,4.921l-7.141,0l0,33.92l-13.825,0ZM1403.99,927.506l1.236,-75.897l14.191,0l10.986,53.329l11.307,-53.329l13.87,0l1.282,75.897l-10.437,0l-0.916,-52.277l-10.94,52.277l-8.102,0l-11.078,-52.46l-0.824,52.46l-10.575,0ZM1496.2,927.506l0,-75.897l31.769,0l0,9.75l-17.944,0l0,21.79l14.19,0l0,9.75l-14.19,0l0,25.04l18.173,0l0,9.567l-31.998,0ZM1564.29,927.506l0,-75.897l9.521,0l18.586,42.984l0,-42.984l11.444,0l0,75.897l-9.064,0l-18.768,-45.181l0,45.181l-11.719,0ZM1650.73,927.506l0,-65.689l-12.726,0l0,-10.208l38.864,0l0,10.208l-12.313,0l0,65.689l-13.825,0ZM1762.6,942.749l0.092,-91.186l11.124,0.046l-0.046,91.14l-11.17,0ZM1884.03,928.421c-13.367,0 -20.386,-7.721 -21.057,-23.162l12.039,-2.518c0.305,10.04 3.174,15.06 8.606,15.06c2.106,0 3.67,-0.641 4.692,-1.922c1.022,-1.282 1.534,-3.006 1.534,-5.173c0,-2.106 -0.382,-4.036 -1.145,-5.791c-0.763,-1.754 -1.648,-3.189 -2.655,-4.303c-1.007,-1.114 -2.441,-2.495 -4.303,-4.142l-9.979,-8.652c-2.93,-2.564 -5.112,-5.226 -6.546,-7.988c-1.434,-2.762 -2.152,-6.218 -2.152,-10.369c0,-5.889 1.732,-10.467 5.196,-13.732c3.464,-3.266 8.217,-4.929 14.259,-4.99c2.777,-0.031 5.234,0.313 7.37,1.03c2.137,0.717 3.899,1.678 5.287,2.884c1.389,1.205 2.549,2.708 3.479,4.509c0.931,1.8 1.626,3.67 2.083,5.607c0.458,1.938 0.779,4.097 0.962,6.478l-11.811,2.334c-0.061,-1.526 -0.16,-2.853 -0.297,-3.982c-0.138,-1.129 -0.374,-2.274 -0.71,-3.433c-0.335,-1.16 -0.77,-2.099 -1.304,-2.816c-0.534,-0.717 -1.252,-1.289 -2.152,-1.716c-0.9,-0.428 -1.945,-0.595 -3.136,-0.504c-2.044,0.122 -3.608,0.801 -4.692,2.037c-1.083,1.236 -1.625,2.892 -1.625,4.967c0,2.441 0.481,4.448 1.442,6.02c0.962,1.571 2.465,3.257 4.509,5.058l9.888,8.606c1.648,1.495 3.082,2.945 4.303,4.349c1.221,1.403 2.388,3.006 3.502,4.806c1.114,1.801 1.961,3.784 2.54,5.951c0.58,2.167 0.87,4.456 0.87,6.866c0,5.524 -1.747,10.01 -5.241,13.459c-3.495,3.448 -8.08,5.172 -13.756,5.172ZM1946.67,927.506l0,-65.689l-12.726,0l0,-10.208l38.865,0l0,10.208l-12.314,0l0,65.689l-13.825,0ZM2020.81,884.018l3.341,0c4.09,0 6.996,-0.869 8.721,-2.609c1.724,-1.739 2.586,-4.715 2.586,-8.926c0,-4.059 -0.748,-6.966 -2.243,-8.721c-1.495,-1.754 -4.242,-2.632 -8.24,-2.632l-4.165,0l0,22.888ZM2006.98,927.506l0,-75.897l17.395,0c3.998,0 7.431,0.328 10.3,0.984c2.868,0.656 5.363,1.755 7.484,3.296c2.121,1.541 3.708,3.631 4.761,6.271c1.053,2.64 1.579,5.867 1.579,9.682c0,4.761 -0.709,8.652 -2.128,11.673c-1.419,3.021 -3.762,5.218 -7.027,6.592l10.529,37.399l-13.871,0l-9.063,-34.653l-6.134,0l0,34.653l-13.825,0ZM2100.79,900.864l10.163,0l-5.082,-31.174l-5.081,31.174ZM2083.17,927.506l15.427,-75.897l14.419,0l15.381,75.897l-12.863,0l-3.067,-17.624l-13.138,0l-3.112,17.624l-13.047,0ZM2168.74,927.506l0,-65.689l-12.726,0l0,-10.208l38.864,0l0,10.208l-12.314,0l0,65.689l-13.824,0ZM2229.05,927.506l0,-75.897l31.769,0l0,9.75l-17.944,0l0,21.79l14.191,0l0,9.75l-14.191,0l0,25.04l18.173,0l0,9.567l-31.998,0ZM2316.14,928.513c-7.171,0 -12.336,-2.243 -15.495,-6.729c-3.158,-4.486 -4.738,-11.017 -4.738,-19.592l0,-24.72c0,-4.364 0.344,-8.125 1.03,-11.284c0.687,-3.158 1.839,-5.928 3.456,-8.308c1.618,-2.38 3.846,-4.166 6.684,-5.356c2.838,-1.19 6.317,-1.785 10.437,-1.785c7.507,0 12.893,1.839 16.159,5.516c3.265,3.677 4.898,9.254 4.898,16.731l0,3.708l-13.23,0l0,-3.937c0,-1.678 -0.038,-3.051 -0.114,-4.119c-0.076,-1.069 -0.259,-2.144 -0.549,-3.228c-0.29,-1.083 -0.71,-1.915 -1.259,-2.495c-0.549,-0.579 -1.297,-1.052 -2.243,-1.419c-0.946,-0.366 -2.106,-0.549 -3.479,-0.549c-1.038,0 -1.961,0.13 -2.77,0.389c-0.808,0.26 -1.487,0.58 -2.037,0.961c-0.549,0.382 -1.014,0.924 -1.396,1.626c-0.381,0.701 -0.671,1.38 -0.87,2.037c-0.198,0.656 -0.351,1.503 -0.457,2.54c-0.107,1.038 -0.176,1.953 -0.206,2.747c-0.031,0.793 -0.046,1.816 -0.046,3.067l0,30.624c0,4.578 0.564,7.927 1.694,10.048c1.129,2.121 3.28,3.182 6.454,3.182c1.648,0 3.029,-0.313 4.143,-0.939c1.114,-0.625 1.983,-1.572 2.609,-2.838c0.626,-1.266 1.068,-2.716 1.328,-4.349c0.259,-1.632 0.389,-3.608 0.389,-5.928l0,-6.225l-8.194,0l0,-8.927l20.645,0l0,38.544l-8.972,0l-1.007,-7.691c-2.289,5.799 -6.577,8.698 -12.864,8.698ZM2387.7,927.506l0,-28.885l-15.472,-47.012l12.909,0l9.384,30.212l8.972,-30.212l12.772,0l-15.381,47.012l0,28.885l-13.184,0Z" clip-rule="nonzero"/></clipPath><g clip-path="url(#_clip1)"><text x="291.969px" y="927.506px" style="font-family:'Oswald-Medium', 'Oswald';font-weight:500;font-size:93.75px;fill:#fafafa;">D<tspan x="371.958px 440.046px 514.405px 568.256px 648.658px 727.686px 778.699px 830.537px 881.55px 961.539px 1029.63px 1106.23px 1174.32px 1240.94px 1321.71px 1398.45px 1490.52px 1558.61px 1637.64px 1705.36px 1756.37px 1808.21px 1859.22px 1933.58px 2001.3px 2081.43px 2155.65px 2223.37px 2291.46px 2371.36px " y="927.506px 927.506px 927.506px 927.506px 927.506px 927.506px 927.506px 927.506px 927.506px 927.506px 927.506px 927.506px 927.506px 927.506px 927.506px 927.506px 927.506px 927.506px 927.506px 927.506px 927.506px 927.506px 927.506px 927.506px 927.506px 927.506px 927.506px 927.506px 927.506px 927.506px ">ESIGN | DEVELOPMENT | STRATEGY</tspan></text></g><text x="192.555px" y="491.821px" style="font-family:'Oswald-Medium', 'Oswald';font-weight:500;font-size:309.007px;fill:#fafafa;">J<tspan x="370.445px 621.212px 878.768px 1123.8px 1276.49px 1484.26px 1636.95px 1886.51px 2135.16px 2365.56px " y="491.821px 491.821px 491.821px 491.821px 491.821px 491.821px 491.821px 491.821px 491.821px 491.821px ">OHN T GRAY</tspan></text><rect x="38.95" y="695.359" width="2631.25" height="18.75" style="fill:#fafafa;"/><path d="M1670.2,36.986l0,-22.339l1028.12,0l0,1062.72l-2687.5,0l0,-1062.72l1025,0l0,22.339l-996.875,0l0,1015.88l2631.25,0l0,-1015.88l-1000,0Z" style="fill:none;stroke-width:12.5px;stroke:#fafafa;"/><rect x="10.825" y="14.647" width="34.375" height="34.375" style="fill:#fafafa;"/><rect x="10.825" y="1047.33" width="34.375" height="28.734" style="fill:#fafafa;"/><rect x="2663.95" y="14.647" width="34.375" height="34.375" style="fill:#fafafa;"/><rect x="2663.95" y="1048.63" width="34.375" height="28.734" style="fill:#fafafa;"/></svg>