<?xml version="1.0" encoding="UTF-8" standalone="no"?>
<!DOCTYPE svg PUBLIC "-//W3C//DTD SVG 1.1//EN" "http://www.w3.org/Graphics/SVG/1.1/DTD/svg11.dtd">
<svg width="100%" height="100%" viewBox="0 0 874 421" version="1.1" xmlns="http://www.w3.org/2000/svg" xmlns:xlink="http://www.w3.org/1999/xlink" xml:space="preserve" xmlns:serif="http://www.serif.com/" style="fill-rule:evenodd;clip-rule:evenodd;stroke-linecap:square;stroke-miterlimit:1.5;">
    <g transform="matrix(1,0,0,1,-154.793,-140.455)">
        <text x="527.523px" y="162.126px" style="font-family:'Oswald-Regular', 'Oswald Regular';font-size:24px;fill:rgb(15,60,91);">A<tspan x="546.524px 563.251px 582.252px 602.026px 621.027px 644.071px " y="162.126px 162.126px 162.126px 162.126px 162.126px 162.126px ">LABAMA</tspan></text>
    </g>
    <g transform="matrix(1,0,0,1,-190.606,31.2127)">
        <clipPath id="_clip1">
            <path d="M289.316,267.83L289.316,243.543L294.971,243.543C296.436,243.543 297.661,243.69 298.647,243.983C299.634,244.276 300.425,244.739 301.021,245.374C301.616,246.009 302.039,246.788 302.288,247.711C302.537,248.633 302.661,249.769 302.661,251.116L302.661,259.876C302.661,261.263 302.534,262.44 302.28,263.406C302.026,264.373 301.609,265.193 301.028,265.867C300.447,266.541 299.673,267.037 298.706,267.354C297.739,267.671 296.553,267.83 295.146,267.83L289.316,267.83ZM293.74,264.725L295,264.725C295.439,264.725 295.825,264.686 296.157,264.608C296.489,264.529 296.768,264.437 296.992,264.329C297.217,264.222 297.405,264.046 297.556,263.802C297.708,263.558 297.822,263.333 297.9,263.128C297.979,262.923 298.037,262.613 298.076,262.198C298.115,261.783 298.14,261.429 298.149,261.136C298.159,260.843 298.164,260.408 298.164,259.832L298.164,250.955C298.164,250.379 298.154,249.915 298.135,249.564C298.115,249.212 298.069,248.858 297.996,248.502C297.922,248.145 297.815,247.869 297.673,247.674C297.532,247.479 297.344,247.3 297.109,247.139C296.875,246.978 296.582,246.866 296.23,246.802C295.879,246.739 295.454,246.707 294.956,246.707L293.74,246.707L293.74,264.725ZM314.913,267.83L314.913,243.543L325.079,243.543L325.079,246.663L319.337,246.663L319.337,253.636L323.878,253.636L323.878,256.756L319.337,256.756L319.337,264.769L325.152,264.769L325.152,267.83L314.913,267.83ZM342.824,268.123C338.547,268.123 336.301,265.652 336.086,260.711L339.938,259.905C340.036,263.118 340.954,264.725 342.692,264.725C343.366,264.725 343.867,264.52 344.194,264.109C344.521,263.699 344.685,263.148 344.685,262.454C344.685,261.78 344.563,261.163 344.318,260.601C344.074,260.04 343.791,259.581 343.469,259.224C343.146,258.868 342.688,258.426 342.092,257.899L338.898,255.13C337.961,254.31 337.263,253.458 336.804,252.574C336.345,251.69 336.115,250.584 336.115,249.256C336.115,247.371 336.669,245.906 337.778,244.861C338.886,243.817 340.407,243.284 342.341,243.265C343.229,243.255 344.016,243.365 344.699,243.594C345.383,243.824 345.947,244.131 346.391,244.517C346.835,244.903 347.207,245.384 347.504,245.96C347.802,246.536 348.024,247.134 348.171,247.755C348.317,248.375 348.42,249.066 348.479,249.827L344.699,250.574C344.68,250.086 344.648,249.661 344.604,249.3C344.56,248.939 344.484,248.572 344.377,248.201C344.27,247.83 344.13,247.53 343.959,247.3C343.789,247.071 343.559,246.888 343.271,246.751C342.983,246.614 342.648,246.561 342.268,246.59C341.613,246.629 341.113,246.846 340.766,247.242C340.419,247.637 340.246,248.167 340.246,248.831C340.246,249.612 340.4,250.255 340.708,250.757C341.015,251.26 341.496,251.8 342.15,252.376L345.314,255.13C345.842,255.609 346.301,256.072 346.691,256.522C347.082,256.971 347.456,257.484 347.812,258.06C348.168,258.636 348.439,259.271 348.625,259.964C348.811,260.657 348.903,261.39 348.903,262.161C348.903,263.929 348.344,265.364 347.226,266.468C346.108,267.571 344.641,268.123 342.824,268.123ZM360.628,267.83L360.628,243.543L364.993,243.543L364.993,267.83L360.628,267.83ZM383.808,268.152C381.513,268.152 379.86,267.435 378.849,265.999C377.838,264.564 377.333,262.474 377.333,259.73L377.333,251.819C377.333,250.423 377.443,249.219 377.663,248.209C377.882,247.198 378.251,246.312 378.769,245.55C379.286,244.788 379.999,244.217 380.907,243.836C381.815,243.455 382.929,243.265 384.247,243.265C386.649,243.265 388.373,243.853 389.418,245.03C390.463,246.207 390.985,247.991 390.985,250.384L390.985,251.57L386.752,251.57L386.752,250.311C386.752,249.774 386.74,249.334 386.715,248.992C386.691,248.651 386.632,248.306 386.54,247.96C386.447,247.613 386.313,247.347 386.137,247.161C385.961,246.976 385.722,246.824 385.419,246.707C385.116,246.59 384.745,246.531 384.306,246.531C383.974,246.531 383.678,246.573 383.419,246.656C383.161,246.739 382.943,246.841 382.768,246.963C382.592,247.086 382.443,247.259 382.321,247.484C382.199,247.708 382.106,247.925 382.042,248.135C381.979,248.345 381.93,248.616 381.896,248.948C381.862,249.28 381.84,249.573 381.83,249.827C381.82,250.081 381.815,250.408 381.815,250.809L381.815,260.609C381.815,262.073 381.996,263.145 382.357,263.824C382.719,264.503 383.407,264.842 384.423,264.842C384.95,264.842 385.392,264.742 385.749,264.542C386.105,264.341 386.383,264.039 386.583,263.633C386.784,263.228 386.925,262.764 387.008,262.242C387.091,261.719 387.133,261.087 387.133,260.345L387.133,258.353L384.511,258.353L384.511,255.496L391.117,255.496L391.117,267.83L388.246,267.83L387.924,265.369C387.191,267.225 385.819,268.152 383.808,268.152ZM403.457,267.83L403.457,243.543L406.504,243.543L412.451,257.298L412.451,243.543L416.113,243.543L416.113,267.83L413.213,267.83L407.207,253.372L407.207,267.83L403.457,267.83ZM445.246,272.708L445.275,243.528L448.835,243.543L448.82,272.708L445.246,272.708ZM477.982,267.83L477.982,243.543L483.637,243.543C485.102,243.543 486.327,243.69 487.313,243.983C488.3,244.276 489.091,244.739 489.687,245.374C490.282,246.009 490.705,246.788 490.954,247.711C491.203,248.633 491.327,249.769 491.327,251.116L491.327,259.876C491.327,261.263 491.2,262.44 490.946,263.406C490.692,264.373 490.275,265.193 489.694,265.867C489.113,266.541 488.339,267.037 487.372,267.354C486.405,267.671 485.219,267.83 483.813,267.83L477.982,267.83ZM482.406,264.725L483.666,264.725C484.105,264.725 484.491,264.686 484.823,264.608C485.155,264.529 485.434,264.437 485.658,264.329C485.883,264.222 486.071,264.046 486.222,263.802C486.374,263.558 486.488,263.333 486.566,263.128C486.645,262.923 486.703,262.613 486.742,262.198C486.781,261.783 486.806,261.429 486.815,261.136C486.825,260.843 486.83,260.408 486.83,259.832L486.83,250.955C486.83,250.379 486.82,249.915 486.801,249.564C486.781,249.212 486.735,248.858 486.662,248.502C486.588,248.145 486.481,247.869 486.339,247.674C486.198,247.479 486.01,247.3 485.775,247.139C485.541,246.978 485.248,246.866 484.896,246.802C484.545,246.739 484.12,246.707 483.622,246.707L482.406,246.707L482.406,264.725ZM503.579,267.83L503.579,243.543L513.745,243.543L513.745,246.663L508.003,246.663L508.003,253.636L512.544,253.636L512.544,256.756L508.003,256.756L508.003,264.769L513.818,264.769L513.818,267.83L503.579,267.83ZM529.161,267.83L524.239,243.543L528.165,243.543L531.358,260.447L534.376,243.543L538.39,243.543L533.438,267.83L529.161,267.83ZM549.88,267.83L549.88,243.543L560.046,243.543L560.046,246.663L554.304,246.663L554.304,253.636L558.845,253.636L558.845,256.756L554.304,256.756L554.304,264.769L560.119,264.769L560.119,267.83L549.88,267.83ZM571.668,267.83L571.668,243.543L576.092,243.543L576.092,264.769L581.907,264.769L581.907,267.83L571.668,267.83ZM599.594,268.123C597.094,268.123 595.302,267.444 594.218,266.087C593.134,264.73 592.592,262.742 592.592,260.125L592.592,251.16C592.592,249.871 592.714,248.753 592.958,247.806C593.202,246.859 593.595,246.038 594.137,245.345C594.679,244.651 595.404,244.131 596.313,243.785C597.221,243.438 598.314,243.265 599.594,243.265C602.084,243.265 603.874,243.934 604.962,245.272C606.051,246.609 606.596,248.572 606.596,251.16L606.596,260.125C606.596,261.395 606.471,262.51 606.222,263.472C605.973,264.434 605.578,265.269 605.036,265.977C604.494,266.685 603.769,267.22 602.86,267.581C601.952,267.942 600.863,268.123 599.594,268.123ZM598.48,264.651C598.793,264.778 599.164,264.842 599.594,264.842C600.023,264.842 600.39,264.778 600.692,264.651C600.995,264.525 601.237,264.359 601.417,264.153C601.598,263.948 601.74,263.68 601.842,263.348C601.945,263.016 602.013,262.684 602.047,262.352C602.082,262.02 602.099,261.624 602.099,261.165L602.099,250.135C602.099,249.549 602.069,249.061 602.011,248.67C601.952,248.279 601.837,247.911 601.667,247.564C601.496,247.217 601.239,246.959 600.897,246.788C600.556,246.617 600.121,246.531 599.594,246.531C599.066,246.531 598.629,246.617 598.283,246.788C597.936,246.959 597.68,247.217 597.514,247.564C597.348,247.911 597.235,248.279 597.177,248.67C597.118,249.061 597.089,249.549 597.089,250.135L597.089,261.165C597.089,261.624 597.106,262.02 597.14,262.352C597.174,262.684 597.243,263.016 597.345,263.348C597.448,263.68 597.587,263.948 597.763,264.153C597.938,264.359 598.178,264.525 598.48,264.651ZM623.257,253.87L624.678,253.87C625.928,253.87 626.772,253.624 627.212,253.13C627.651,252.637 627.871,251.732 627.871,250.413C627.871,249.661 627.842,249.08 627.783,248.67C627.725,248.26 627.588,247.886 627.373,247.549C627.158,247.213 626.838,246.981 626.414,246.854C625.989,246.727 625.415,246.663 624.692,246.663L623.257,246.663L623.257,253.87ZM618.833,267.83L618.833,243.543L625.82,243.543C629.961,243.543 632.031,245.843 632.031,250.442C632.031,252.698 631.465,254.351 630.332,255.401C629.199,256.451 627.603,256.976 625.542,256.976L623.257,256.976L623.257,267.83L618.833,267.83ZM643.346,267.83L643.741,243.543L648.282,243.543L651.798,260.609L655.416,243.543L659.854,243.543L660.265,267.83L656.925,267.83L656.632,251.102L653.131,267.83L650.538,267.83L646.993,251.043L646.729,267.83L643.346,267.83ZM672.854,267.83L672.854,243.543L683.02,243.543L683.02,246.663L677.277,246.663L677.277,253.636L681.818,253.636L681.818,256.756L677.277,256.756L677.277,264.769L683.093,264.769L683.093,267.83L672.854,267.83ZM694.642,267.83L694.642,243.543L697.688,243.543L703.636,257.298L703.636,243.543L707.298,243.543L707.298,267.83L704.397,267.83L698.392,253.372L698.392,267.83L694.642,267.83ZM722.304,267.83L722.304,246.81L718.231,246.81L718.231,243.543L730.668,243.543L730.668,246.81L726.728,246.81L726.728,267.83L722.304,267.83ZM758.102,272.708L758.131,243.528L761.69,243.543L761.676,272.708L758.102,272.708ZM796.961,268.123C792.684,268.123 790.438,265.652 790.223,260.711L794.075,259.905C794.173,263.118 795.091,264.725 796.829,264.725C797.503,264.725 798.003,264.52 798.331,264.109C798.658,263.699 798.821,263.148 798.821,262.454C798.821,261.78 798.699,261.163 798.455,260.601C798.211,260.04 797.928,259.581 797.605,259.224C797.283,258.868 796.824,258.426 796.229,257.899L793.035,255.13C792.098,254.31 791.399,253.458 790.94,252.574C790.481,251.69 790.252,250.584 790.252,249.256C790.252,247.371 790.806,245.906 791.915,244.861C793.023,243.817 794.544,243.284 796.478,243.265C797.366,243.255 798.152,243.365 798.836,243.594C799.52,243.824 800.083,244.131 800.528,244.517C800.972,244.903 801.343,245.384 801.641,245.96C801.939,246.536 802.161,247.134 802.308,247.755C802.454,248.375 802.557,249.066 802.615,249.827L798.836,250.574C798.816,250.086 798.785,249.661 798.741,249.3C798.697,248.939 798.621,248.572 798.514,248.201C798.406,247.83 798.267,247.53 798.096,247.3C797.925,247.071 797.696,246.888 797.408,246.751C797.12,246.614 796.785,246.561 796.404,246.59C795.75,246.629 795.25,246.846 794.903,247.242C794.556,247.637 794.383,248.167 794.383,248.831C794.383,249.612 794.537,250.255 794.844,250.757C795.152,251.26 795.633,251.8 796.287,252.376L799.451,255.13C799.979,255.609 800.438,256.072 800.828,256.522C801.219,256.971 801.592,257.484 801.949,258.06C802.305,258.636 802.576,259.271 802.762,259.964C802.947,260.657 803.04,261.39 803.04,262.161C803.04,263.929 802.481,265.364 801.363,266.468C800.245,267.571 798.777,268.123 796.961,268.123ZM817.006,267.83L817.006,246.81L812.934,246.81L812.934,243.543L825.37,243.543L825.37,246.81L821.43,246.81L821.43,267.83L817.006,267.83ZM840.728,253.914L841.797,253.914C843.105,253.914 844.036,253.636 844.587,253.079C845.139,252.523 845.415,251.57 845.415,250.223C845.415,248.924 845.176,247.994 844.697,247.432C844.219,246.871 843.34,246.59 842.061,246.59L840.728,246.59L840.728,253.914ZM836.304,267.83L836.304,243.543L841.87,243.543C843.149,243.543 844.248,243.648 845.166,243.858C846.084,244.068 846.882,244.42 847.561,244.913C848.24,245.406 848.748,246.075 849.084,246.92C849.421,247.764 849.59,248.797 849.59,250.018C849.59,251.541 849.363,252.786 848.909,253.753C848.455,254.72 847.705,255.423 846.66,255.862L850.029,267.83L845.591,267.83L842.69,256.741L840.728,256.741L840.728,267.83L836.304,267.83ZM866.324,259.305L869.576,259.305L867.95,249.329L866.324,259.305ZM860.685,267.83L865.621,243.543L870.235,243.543L875.157,267.83L871.041,267.83L870.06,262.191L865.855,262.191L864.859,267.83L860.685,267.83ZM888.068,267.83L888.068,246.81L883.996,246.81L883.996,243.543L896.433,243.543L896.433,246.81L892.492,246.81L892.492,267.83L888.068,267.83ZM907.366,267.83L907.366,243.543L917.532,243.543L917.532,246.663L911.79,246.663L911.79,253.636L916.331,253.636L916.331,256.756L911.79,256.756L911.79,264.769L917.605,264.769L917.605,267.83L907.366,267.83ZM935.233,268.152C932.938,268.152 931.286,267.435 930.275,265.999C929.264,264.564 928.759,262.474 928.759,259.73L928.759,251.819C928.759,250.423 928.869,249.219 929.088,248.209C929.308,247.198 929.677,246.312 930.194,245.55C930.712,244.788 931.425,244.217 932.333,243.836C933.241,243.455 934.354,243.265 935.673,243.265C938.075,243.265 939.799,243.853 940.844,245.03C941.889,246.207 942.411,247.991 942.411,250.384L942.411,251.57L938.178,251.57L938.178,250.311C938.178,249.774 938.166,249.334 938.141,248.992C938.117,248.651 938.058,248.306 937.965,247.96C937.873,247.613 937.738,247.347 937.563,247.161C937.387,246.976 937.147,246.824 936.845,246.707C936.542,246.59 936.171,246.531 935.731,246.531C935.399,246.531 935.104,246.573 934.845,246.656C934.586,246.739 934.369,246.841 934.193,246.963C934.018,247.086 933.869,247.259 933.747,247.484C933.625,247.708 933.532,247.925 933.468,248.135C933.405,248.345 933.356,248.616 933.322,248.948C933.288,249.28 933.266,249.573 933.256,249.827C933.246,250.081 933.241,250.408 933.241,250.809L933.241,260.609C933.241,262.073 933.422,263.145 933.783,263.824C934.145,264.503 934.833,264.842 935.849,264.842C936.376,264.842 936.818,264.742 937.174,264.542C937.531,264.341 937.809,264.039 938.009,263.633C938.209,263.228 938.351,262.764 938.434,262.242C938.517,261.719 938.559,261.087 938.559,260.345L938.559,258.353L935.937,258.353L935.937,255.496L942.543,255.496L942.543,267.83L939.672,267.83L939.35,265.369C938.617,267.225 937.245,268.152 935.233,268.152ZM958.135,267.83L958.135,258.587L953.184,243.543L957.314,243.543L960.317,253.211L963.188,243.543L967.275,243.543L962.354,258.587L962.354,267.83L958.135,267.83Z" clip-rule="nonzero"/>
        </clipPath>
        <g clip-path="url(#_clip1)">
            <text x="287.5px" y="267.83px" style="font-family:'Oswald-Medium', 'Oswald';font-weight:500;font-size:30px;fill:rgb(15,60,91);">D<tspan x="313.097px 334.885px 358.68px 375.912px 401.641px 426.93px 443.254px 459.842px 476.166px 501.763px 523.551px 548.063px 569.852px 591.171px 617.017px 641.573px 671.037px 692.825px 718.114px 739.785px 756.109px 772.697px 789.021px 812.816px 834.487px 860.128px 883.879px 905.55px 927.338px 952.905px " y="267.83px 267.83px 267.83px 267.83px 267.83px 267.83px 267.83px 267.83px 267.83px 267.83px 267.83px 267.83px 267.83px 267.83px 267.83px 267.83px 267.83px 267.83px 267.83px 267.83px 267.83px 267.83px 267.83px 267.83px 267.83px 267.83px 267.83px 267.83px 267.83px 267.83px ">ESIGN | DEVELOPMENT | STRATEGY</tspan></text>
        </g>
    </g>
    <g transform="matrix(1,0,0,1,-257.471,-108.206)">
        <text x="322.553px" y="267.83px" style="font-family:'Oswald-Medium', 'Oswald';font-weight:500;font-size:98.882px;fill:rgb(15,60,91);">J<tspan x="379.478px 459.723px 542.141px 620.551px 669.413px 735.898px 784.76px 864.619px 944.188px 1017.92px " y="267.83px 267.83px 267.83px 267.83px 267.83px 267.83px 267.83px 267.83px 267.83px 267.83px ">OHN T GRAY</tspan></text>
    </g>
    <g transform="matrix(1.02433,2.59496e-17,2.52144e-17,1,-274.982,63.7558)">
        <rect x="284" y="161" width="822" height="6" style="fill:rgb(15,60,91);"/>
    </g>
    <g transform="matrix(1.02433,2.59496e-17,2.52144e-17,1,-274.982,182.812)">
        <rect x="284" y="161" width="822" height="6" style="fill:rgb(15,60,91);"/>
    </g>
    <path d="M6.928,6.928L355.928,6.928L355.928,14.928L14.928,14.928L14.928,405.756L858.928,405.756L858.928,14.928L517.928,14.928L517.928,6.928L866.928,6.928L866.928,413.756L6.928,413.756L6.928,6.928Z" style="fill:none;stroke:rgb(15,60,91);stroke-width:5.33px;"/>
    <g transform="matrix(0.52381,0,0,0.52381,-49.0718,-85.2147)">
        <rect x="105" y="174" width="21" height="21" style="fill:rgb(15,60,91);"/>
    </g>
    <g transform="matrix(0.52381,0,0,0.52381,-49.0718,313.113)">
        <rect x="105" y="174" width="21" height="21" style="fill:rgb(15,60,91);"/>
    </g>
    <g transform="matrix(0.52381,0,0,0.52381,801.928,-85.2147)">
        <rect x="105" y="174" width="21" height="21" style="fill:rgb(15,60,91);"/>
    </g>
    <g transform="matrix(0.52381,0,0,0.52381,802.428,313.113)">
        <rect x="105" y="174" width="21" height="21" style="fill:rgb(15,60,91);"/>
    </g>
</svg>
