<?xml version="1.0" encoding="UTF-8" standalone="no"?>
<!DOCTYPE svg PUBLIC "-//W3C//DTD SVG 1.1//EN" "http://www.w3.org/Graphics/SVG/1.1/DTD/svg11.dtd">
<svg width="100%" height="100%" viewBox="0 0 874 421" version="1.1" xmlns="http://www.w3.org/2000/svg" xmlns:xlink="http://www.w3.org/1999/xlink" xml:space="preserve" xmlns:serif="http://www.serif.com/" style="fill-rule:evenodd;clip-rule:evenodd;stroke-linecap:square;stroke-miterlimit:1.5;">
    <g transform="matrix(1,0,0,1,-154.793,-140.455)">
        <path d="M531.812,155.294L535.058,155.294L533.429,146.516L531.812,155.294ZM527.968,162.126L532.117,142.696L534.73,142.696L538.879,162.126L536.3,162.126L535.41,157.227L531.461,157.227L530.535,162.126L527.968,162.126Z" style="fill:rgb(15,60,91);fill-rule:nonzero;"/>
        <path d="M548.047,162.126L548.047,142.696L550.754,142.696L550.754,160.18L555.711,160.18L555.711,162.126L548.047,162.126Z" style="fill:rgb(15,60,91);fill-rule:nonzero;"/>
        <path d="M567.54,155.294L570.786,155.294L569.158,146.516L567.54,155.294ZM563.697,162.126L567.845,142.696L570.458,142.696L574.607,162.126L572.029,162.126L571.138,157.227L567.189,157.227L566.263,162.126L563.697,162.126Z" style="fill:rgb(15,60,91);fill-rule:nonzero;"/>
        <path d="M586.483,150.805L588.076,150.805C589.193,150.805 589.969,150.557 590.402,150.061C590.836,149.565 591.053,148.731 591.053,147.559C591.053,147.176 591.025,146.842 590.971,146.557C590.916,146.272 590.846,146.028 590.76,145.825C590.674,145.622 590.543,145.452 590.367,145.315C590.191,145.178 590.014,145.069 589.834,144.987C589.654,144.905 589.41,144.842 589.102,144.799C588.793,144.757 588.496,144.729 588.211,144.717C587.926,144.706 587.561,144.7 587.115,144.7L586.483,144.7L586.483,150.805ZM586.483,160.18L588.311,160.18C589.483,160.18 590.283,159.905 590.713,159.354C591.143,158.803 591.358,157.876 591.358,156.571C591.358,155.329 591.102,154.401 590.59,153.788C590.078,153.174 589.244,152.868 588.088,152.868L586.483,152.868L586.483,160.18ZM583.775,162.126L583.775,142.696L588.217,142.696C589.983,142.696 591.291,143.09 592.143,143.88C592.994,144.669 593.42,145.895 593.42,147.559C593.42,150.036 592.49,151.403 590.631,151.661C591.779,151.942 592.617,152.483 593.145,153.284C593.672,154.085 593.936,155.18 593.936,156.571C593.936,158.321 593.525,159.684 592.705,160.661C591.885,161.637 590.631,162.126 588.943,162.126L583.775,162.126Z" style="fill:rgb(15,60,91);fill-rule:nonzero;"/>
        <path d="M606.315,155.294L609.561,155.294L607.933,146.516L606.315,155.294ZM602.472,162.126L606.62,142.696L609.233,142.696L613.382,162.126L610.804,162.126L609.913,157.227L605.964,157.227L605.038,162.126L602.472,162.126Z" style="fill:rgb(15,60,91);fill-rule:nonzero;"/>
        <path d="M622.492,162.126L622.855,142.696L625.504,142.696L628.937,158.458L632.394,142.696L635.043,142.696L635.406,162.126L633.215,162.126L633.004,148.005L629.711,162.126L628.187,162.126L624.918,148.005L624.707,162.126L622.492,162.126Z" style="fill:rgb(15,60,91);fill-rule:nonzero;"/>
        <path d="M648.36,155.294L651.606,155.294L649.977,146.516L648.36,155.294ZM644.516,162.126L648.665,142.696L651.278,142.696L655.426,162.126L652.848,162.126L651.958,157.227L648.008,157.227L647.083,162.126L644.516,162.126Z" style="fill:rgb(15,60,91);fill-rule:nonzero;"/>
    </g>
    <g transform="matrix(1,0,0,1,-190.606,31.2127)">
        <clipPath id="_clip1">
            <path d="M289.316,267.83L289.316,243.543L294.971,243.543C296.436,243.543 297.661,243.69 298.647,243.983C299.634,244.276 300.425,244.739 301.021,245.374C301.616,246.009 302.039,246.788 302.288,247.711C302.537,248.633 302.661,249.769 302.661,251.116L302.661,259.876C302.661,261.263 302.534,262.44 302.28,263.406C302.026,264.373 301.609,265.193 301.028,265.867C300.447,266.541 299.673,267.037 298.706,267.354C297.739,267.671 296.553,267.83 295.146,267.83L289.316,267.83ZM293.74,264.725L295,264.725C295.439,264.725 295.825,264.686 296.157,264.608C296.489,264.529 296.768,264.437 296.992,264.329C297.217,264.222 297.405,264.046 297.556,263.802C297.708,263.558 297.822,263.333 297.9,263.128C297.979,262.923 298.037,262.613 298.076,262.198C298.115,261.783 298.14,261.429 298.149,261.136C298.159,260.843 298.164,260.408 298.164,259.832L298.164,250.955C298.164,250.379 298.154,249.915 298.135,249.564C298.115,249.212 298.069,248.858 297.996,248.502C297.922,248.145 297.815,247.869 297.673,247.674C297.532,247.479 297.344,247.3 297.109,247.139C296.875,246.978 296.582,246.866 296.23,246.802C295.879,246.739 295.454,246.707 294.956,246.707L293.74,246.707L293.74,264.725ZM314.913,267.83L314.913,243.543L325.079,243.543L325.079,246.663L319.337,246.663L319.337,253.636L323.878,253.636L323.878,256.756L319.337,256.756L319.337,264.769L325.152,264.769L325.152,267.83L314.913,267.83ZM342.824,268.123C338.547,268.123 336.301,265.652 336.086,260.711L339.938,259.905C340.036,263.118 340.954,264.725 342.692,264.725C343.366,264.725 343.867,264.52 344.194,264.109C344.521,263.699 344.685,263.148 344.685,262.454C344.685,261.78 344.563,261.163 344.318,260.601C344.074,260.04 343.791,259.581 343.469,259.224C343.146,258.868 342.688,258.426 342.092,257.899L338.898,255.13C337.961,254.31 337.263,253.458 336.804,252.574C336.345,251.69 336.115,250.584 336.115,249.256C336.115,247.371 336.669,245.906 337.778,244.861C338.886,243.817 340.407,243.284 342.341,243.265C343.229,243.255 344.016,243.365 344.699,243.594C345.383,243.824 345.947,244.131 346.391,244.517C346.835,244.903 347.207,245.384 347.504,245.96C347.802,246.536 348.024,247.134 348.171,247.755C348.317,248.375 348.42,249.066 348.479,249.827L344.699,250.574C344.68,250.086 344.648,249.661 344.604,249.3C344.56,248.939 344.484,248.572 344.377,248.201C344.27,247.83 344.13,247.53 343.959,247.3C343.789,247.071 343.559,246.888 343.271,246.751C342.983,246.614 342.648,246.561 342.268,246.59C341.613,246.629 341.113,246.846 340.766,247.242C340.419,247.637 340.246,248.167 340.246,248.831C340.246,249.612 340.4,250.255 340.708,250.757C341.015,251.26 341.496,251.8 342.15,252.376L345.314,255.13C345.842,255.609 346.301,256.072 346.691,256.522C347.082,256.971 347.456,257.484 347.812,258.06C348.168,258.636 348.439,259.271 348.625,259.964C348.811,260.657 348.903,261.39 348.903,262.161C348.903,263.929 348.344,265.364 347.226,266.468C346.108,267.571 344.641,268.123 342.824,268.123ZM360.628,267.83L360.628,243.543L364.993,243.543L364.993,267.83L360.628,267.83ZM383.808,268.152C381.513,268.152 379.86,267.435 378.849,265.999C377.838,264.564 377.333,262.474 377.333,259.73L377.333,251.819C377.333,250.423 377.443,249.219 377.663,248.209C377.882,247.198 378.251,246.312 378.769,245.55C379.286,244.788 379.999,244.217 380.907,243.836C381.815,243.455 382.929,243.265 384.247,243.265C386.649,243.265 388.373,243.853 389.418,245.03C390.463,246.207 390.985,247.991 390.985,250.384L390.985,251.57L386.752,251.57L386.752,250.311C386.752,249.774 386.74,249.334 386.715,248.992C386.691,248.651 386.632,248.306 386.54,247.96C386.447,247.613 386.313,247.347 386.137,247.161C385.961,246.976 385.722,246.824 385.419,246.707C385.116,246.59 384.745,246.531 384.306,246.531C383.974,246.531 383.678,246.573 383.419,246.656C383.161,246.739 382.943,246.841 382.768,246.963C382.592,247.086 382.443,247.259 382.321,247.484C382.199,247.708 382.106,247.925 382.042,248.135C381.979,248.345 381.93,248.616 381.896,248.948C381.862,249.28 381.84,249.573 381.83,249.827C381.82,250.081 381.815,250.408 381.815,250.809L381.815,260.609C381.815,262.073 381.996,263.145 382.357,263.824C382.719,264.503 383.407,264.842 384.423,264.842C384.95,264.842 385.392,264.742 385.749,264.542C386.105,264.341 386.383,264.039 386.583,263.633C386.784,263.228 386.925,262.764 387.008,262.242C387.091,261.719 387.133,261.087 387.133,260.345L387.133,258.353L384.511,258.353L384.511,255.496L391.117,255.496L391.117,267.83L388.246,267.83L387.924,265.369C387.191,267.225 385.819,268.152 383.808,268.152ZM403.457,267.83L403.457,243.543L406.504,243.543L412.451,257.298L412.451,243.543L416.113,243.543L416.113,267.83L413.213,267.83L407.207,253.372L407.207,267.83L403.457,267.83ZM445.246,272.708L445.275,243.528L448.835,243.543L448.82,272.708L445.246,272.708ZM477.982,267.83L477.982,243.543L483.637,243.543C485.102,243.543 486.327,243.69 487.313,243.983C488.3,244.276 489.091,244.739 489.687,245.374C490.282,246.009 490.705,246.788 490.954,247.711C491.203,248.633 491.327,249.769 491.327,251.116L491.327,259.876C491.327,261.263 491.2,262.44 490.946,263.406C490.692,264.373 490.275,265.193 489.694,265.867C489.113,266.541 488.339,267.037 487.372,267.354C486.405,267.671 485.219,267.83 483.813,267.83L477.982,267.83ZM482.406,264.725L483.666,264.725C484.105,264.725 484.491,264.686 484.823,264.608C485.155,264.529 485.434,264.437 485.658,264.329C485.883,264.222 486.071,264.046 486.222,263.802C486.374,263.558 486.488,263.333 486.566,263.128C486.645,262.923 486.703,262.613 486.742,262.198C486.781,261.783 486.806,261.429 486.815,261.136C486.825,260.843 486.83,260.408 486.83,259.832L486.83,250.955C486.83,250.379 486.82,249.915 486.801,249.564C486.781,249.212 486.735,248.858 486.662,248.502C486.588,248.145 486.481,247.869 486.339,247.674C486.198,247.479 486.01,247.3 485.775,247.139C485.541,246.978 485.248,246.866 484.896,246.802C484.545,246.739 484.12,246.707 483.622,246.707L482.406,246.707L482.406,264.725ZM503.579,267.83L503.579,243.543L513.745,243.543L513.745,246.663L508.003,246.663L508.003,253.636L512.544,253.636L512.544,256.756L508.003,256.756L508.003,264.769L513.818,264.769L513.818,267.83L503.579,267.83ZM529.161,267.83L524.239,243.543L528.165,243.543L531.358,260.447L534.376,243.543L538.39,243.543L533.438,267.83L529.161,267.83ZM549.88,267.83L549.88,243.543L560.046,243.543L560.046,246.663L554.304,246.663L554.304,253.636L558.845,253.636L558.845,256.756L554.304,256.756L554.304,264.769L560.119,264.769L560.119,267.83L549.88,267.83ZM571.668,267.83L571.668,243.543L576.092,243.543L576.092,264.769L581.907,264.769L581.907,267.83L571.668,267.83ZM599.594,268.123C597.094,268.123 595.302,267.444 594.218,266.087C593.134,264.73 592.592,262.742 592.592,260.125L592.592,251.16C592.592,249.871 592.714,248.753 592.958,247.806C593.202,246.859 593.595,246.038 594.137,245.345C594.679,244.651 595.404,244.131 596.313,243.785C597.221,243.438 598.314,243.265 599.594,243.265C602.084,243.265 603.874,243.934 604.962,245.272C606.051,246.609 606.596,248.572 606.596,251.16L606.596,260.125C606.596,261.395 606.471,262.51 606.222,263.472C605.973,264.434 605.578,265.269 605.036,265.977C604.494,266.685 603.769,267.22 602.86,267.581C601.952,267.942 600.863,268.123 599.594,268.123ZM598.48,264.651C598.793,264.778 599.164,264.842 599.594,264.842C600.023,264.842 600.39,264.778 600.692,264.651C600.995,264.525 601.237,264.359 601.417,264.153C601.598,263.948 601.74,263.68 601.842,263.348C601.945,263.016 602.013,262.684 602.047,262.352C602.082,262.02 602.099,261.624 602.099,261.165L602.099,250.135C602.099,249.549 602.069,249.061 602.011,248.67C601.952,248.279 601.837,247.911 601.667,247.564C601.496,247.217 601.239,246.959 600.897,246.788C600.556,246.617 600.121,246.531 599.594,246.531C599.066,246.531 598.629,246.617 598.283,246.788C597.936,246.959 597.68,247.217 597.514,247.564C597.348,247.911 597.235,248.279 597.177,248.67C597.118,249.061 597.089,249.549 597.089,250.135L597.089,261.165C597.089,261.624 597.106,262.02 597.14,262.352C597.174,262.684 597.243,263.016 597.345,263.348C597.448,263.68 597.587,263.948 597.763,264.153C597.938,264.359 598.178,264.525 598.48,264.651ZM623.257,253.87L624.678,253.87C625.928,253.87 626.772,253.624 627.212,253.13C627.651,252.637 627.871,251.732 627.871,250.413C627.871,249.661 627.842,249.08 627.783,248.67C627.725,248.26 627.588,247.886 627.373,247.549C627.158,247.213 626.838,246.981 626.414,246.854C625.989,246.727 625.415,246.663 624.692,246.663L623.257,246.663L623.257,253.87ZM618.833,267.83L618.833,243.543L625.82,243.543C629.961,243.543 632.031,245.843 632.031,250.442C632.031,252.698 631.465,254.351 630.332,255.401C629.199,256.451 627.603,256.976 625.542,256.976L623.257,256.976L623.257,267.83L618.833,267.83ZM643.346,267.83L643.741,243.543L648.282,243.543L651.798,260.609L655.416,243.543L659.854,243.543L660.265,267.83L656.925,267.83L656.632,251.102L653.131,267.83L650.538,267.83L646.993,251.043L646.729,267.83L643.346,267.83ZM672.854,267.83L672.854,243.543L683.02,243.543L683.02,246.663L677.277,246.663L677.277,253.636L681.818,253.636L681.818,256.756L677.277,256.756L677.277,264.769L683.093,264.769L683.093,267.83L672.854,267.83ZM694.642,267.83L694.642,243.543L697.688,243.543L703.636,257.298L703.636,243.543L707.298,243.543L707.298,267.83L704.397,267.83L698.392,253.372L698.392,267.83L694.642,267.83ZM722.304,267.83L722.304,246.81L718.231,246.81L718.231,243.543L730.668,243.543L730.668,246.81L726.728,246.81L726.728,267.83L722.304,267.83ZM758.102,272.708L758.131,243.528L761.69,243.543L761.676,272.708L758.102,272.708ZM796.961,268.123C792.684,268.123 790.438,265.652 790.223,260.711L794.075,259.905C794.173,263.118 795.091,264.725 796.829,264.725C797.503,264.725 798.003,264.52 798.331,264.109C798.658,263.699 798.821,263.148 798.821,262.454C798.821,261.78 798.699,261.163 798.455,260.601C798.211,260.04 797.928,259.581 797.605,259.224C797.283,258.868 796.824,258.426 796.229,257.899L793.035,255.13C792.098,254.31 791.399,253.458 790.94,252.574C790.481,251.69 790.252,250.584 790.252,249.256C790.252,247.371 790.806,245.906 791.915,244.861C793.023,243.817 794.544,243.284 796.478,243.265C797.366,243.255 798.152,243.365 798.836,243.594C799.52,243.824 800.083,244.131 800.528,244.517C800.972,244.903 801.343,245.384 801.641,245.96C801.939,246.536 802.161,247.134 802.308,247.755C802.454,248.375 802.557,249.066 802.615,249.827L798.836,250.574C798.816,250.086 798.785,249.661 798.741,249.3C798.697,248.939 798.621,248.572 798.514,248.201C798.406,247.83 798.267,247.53 798.096,247.3C797.925,247.071 797.696,246.888 797.408,246.751C797.12,246.614 796.785,246.561 796.404,246.59C795.75,246.629 795.25,246.846 794.903,247.242C794.556,247.637 794.383,248.167 794.383,248.831C794.383,249.612 794.537,250.255 794.844,250.757C795.152,251.26 795.633,251.8 796.287,252.376L799.451,255.13C799.979,255.609 800.438,256.072 800.828,256.522C801.219,256.971 801.592,257.484 801.949,258.06C802.305,258.636 802.576,259.271 802.762,259.964C802.947,260.657 803.04,261.39 803.04,262.161C803.04,263.929 802.481,265.364 801.363,266.468C800.245,267.571 798.777,268.123 796.961,268.123ZM817.006,267.83L817.006,246.81L812.934,246.81L812.934,243.543L825.37,243.543L825.37,246.81L821.43,246.81L821.43,267.83L817.006,267.83ZM840.728,253.914L841.797,253.914C843.105,253.914 844.036,253.636 844.587,253.079C845.139,252.523 845.415,251.57 845.415,250.223C845.415,248.924 845.176,247.994 844.697,247.432C844.219,246.871 843.34,246.59 842.061,246.59L840.728,246.59L840.728,253.914ZM836.304,267.83L836.304,243.543L841.87,243.543C843.149,243.543 844.248,243.648 845.166,243.858C846.084,244.068 846.882,244.42 847.561,244.913C848.24,245.406 848.748,246.075 849.084,246.92C849.421,247.764 849.59,248.797 849.59,250.018C849.59,251.541 849.363,252.786 848.909,253.753C848.455,254.72 847.705,255.423 846.66,255.862L850.029,267.83L845.591,267.83L842.69,256.741L840.728,256.741L840.728,267.83L836.304,267.83ZM866.324,259.305L869.576,259.305L867.95,249.329L866.324,259.305ZM860.685,267.83L865.621,243.543L870.235,243.543L875.157,267.83L871.041,267.83L870.06,262.191L865.855,262.191L864.859,267.83L860.685,267.83ZM888.068,267.83L888.068,246.81L883.996,246.81L883.996,243.543L896.433,243.543L896.433,246.81L892.492,246.81L892.492,267.83L888.068,267.83ZM907.366,267.83L907.366,243.543L917.532,243.543L917.532,246.663L911.79,246.663L911.79,253.636L916.331,253.636L916.331,256.756L911.79,256.756L911.79,264.769L917.605,264.769L917.605,267.83L907.366,267.83ZM935.233,268.152C932.938,268.152 931.286,267.435 930.275,265.999C929.264,264.564 928.759,262.474 928.759,259.73L928.759,251.819C928.759,250.423 928.869,249.219 929.088,248.209C929.308,247.198 929.677,246.312 930.194,245.55C930.712,244.788 931.425,244.217 932.333,243.836C933.241,243.455 934.354,243.265 935.673,243.265C938.075,243.265 939.799,243.853 940.844,245.03C941.889,246.207 942.411,247.991 942.411,250.384L942.411,251.57L938.178,251.57L938.178,250.311C938.178,249.774 938.166,249.334 938.141,248.992C938.117,248.651 938.058,248.306 937.965,247.96C937.873,247.613 937.738,247.347 937.563,247.161C937.387,246.976 937.147,246.824 936.845,246.707C936.542,246.59 936.171,246.531 935.731,246.531C935.399,246.531 935.104,246.573 934.845,246.656C934.586,246.739 934.369,246.841 934.193,246.963C934.018,247.086 933.869,247.259 933.747,247.484C933.625,247.708 933.532,247.925 933.468,248.135C933.405,248.345 933.356,248.616 933.322,248.948C933.288,249.28 933.266,249.573 933.256,249.827C933.246,250.081 933.241,250.408 933.241,250.809L933.241,260.609C933.241,262.073 933.422,263.145 933.783,263.824C934.145,264.503 934.833,264.842 935.849,264.842C936.376,264.842 936.818,264.742 937.174,264.542C937.531,264.341 937.809,264.039 938.009,263.633C938.209,263.228 938.351,262.764 938.434,262.242C938.517,261.719 938.559,261.087 938.559,260.345L938.559,258.353L935.937,258.353L935.937,255.496L942.543,255.496L942.543,267.83L939.672,267.83L939.35,265.369C938.617,267.225 937.245,268.152 935.233,268.152ZM958.135,267.83L958.135,258.587L953.184,243.543L957.314,243.543L960.317,253.211L963.188,243.543L967.275,243.543L962.354,258.587L962.354,267.83L958.135,267.83Z" clip-rule="nonzero"/>
        </clipPath>
        <g clip-path="url(#_clip1)">
            <path d="M289.316,267.83L289.316,243.543L294.971,243.543C296.436,243.543 297.661,243.69 298.647,243.983C299.634,244.276 300.425,244.739 301.021,245.374C301.616,246.009 302.039,246.788 302.288,247.711C302.537,248.633 302.661,249.769 302.661,251.116L302.661,259.876C302.661,261.263 302.534,262.44 302.28,263.406C302.026,264.373 301.609,265.193 301.028,265.867C300.447,266.541 299.673,267.037 298.706,267.354C297.739,267.671 296.553,267.83 295.146,267.83L289.316,267.83ZM293.74,264.725L295,264.725C295.439,264.725 295.825,264.686 296.157,264.608C296.489,264.529 296.768,264.437 296.992,264.329C297.217,264.222 297.405,264.046 297.556,263.802C297.708,263.558 297.822,263.333 297.9,263.128C297.979,262.923 298.037,262.613 298.076,262.198C298.115,261.783 298.14,261.429 298.149,261.136C298.159,260.843 298.164,260.408 298.164,259.832L298.164,250.955C298.164,250.379 298.154,249.915 298.135,249.564C298.115,249.212 298.069,248.858 297.996,248.502C297.922,248.145 297.815,247.869 297.673,247.674C297.532,247.479 297.344,247.3 297.109,247.139C296.875,246.978 296.582,246.866 296.23,246.802C295.879,246.739 295.454,246.707 294.956,246.707L293.74,246.707L293.74,264.725Z" style="fill:rgb(15,60,91);fill-rule:nonzero;"/>
            <path d="M314.913,267.83L314.913,243.543L325.079,243.543L325.079,246.663L319.337,246.663L319.337,253.636L323.878,253.636L323.878,256.756L319.337,256.756L319.337,264.769L325.152,264.769L325.152,267.83L314.913,267.83Z" style="fill:rgb(15,60,91);fill-rule:nonzero;"/>
            <path d="M342.824,268.123C338.547,268.123 336.301,265.652 336.086,260.711L339.938,259.905C340.036,263.118 340.954,264.725 342.692,264.725C343.366,264.725 343.867,264.52 344.194,264.109C344.521,263.699 344.685,263.148 344.685,262.454C344.685,261.78 344.563,261.163 344.318,260.601C344.074,260.04 343.791,259.581 343.469,259.224C343.146,258.868 342.688,258.426 342.092,257.899L338.898,255.13C337.961,254.31 337.263,253.458 336.804,252.574C336.345,251.69 336.115,250.584 336.115,249.256C336.115,247.371 336.669,245.906 337.778,244.861C338.886,243.817 340.407,243.284 342.341,243.265C343.229,243.255 344.016,243.365 344.699,243.594C345.383,243.824 345.947,244.131 346.391,244.517C346.835,244.903 347.207,245.384 347.504,245.96C347.802,246.536 348.024,247.134 348.171,247.755C348.317,248.375 348.42,249.066 348.479,249.827L344.699,250.574C344.68,250.086 344.648,249.661 344.604,249.3C344.56,248.939 344.484,248.572 344.377,248.201C344.27,247.83 344.13,247.53 343.959,247.3C343.789,247.071 343.559,246.888 343.271,246.751C342.983,246.614 342.648,246.561 342.268,246.59C341.613,246.629 341.113,246.846 340.766,247.242C340.419,247.637 340.246,248.167 340.246,248.831C340.246,249.612 340.4,250.255 340.708,250.757C341.015,251.26 341.496,251.8 342.15,252.376L345.314,255.13C345.842,255.609 346.301,256.072 346.691,256.522C347.082,256.971 347.456,257.484 347.812,258.06C348.168,258.636 348.439,259.271 348.625,259.964C348.811,260.657 348.903,261.39 348.903,262.161C348.903,263.929 348.344,265.364 347.226,266.468C346.108,267.571 344.641,268.123 342.824,268.123Z" style="fill:rgb(15,60,91);fill-rule:nonzero;"/>
            <rect x="360.628" y="243.543" width="4.365" height="24.287" style="fill:rgb(15,60,91);fill-rule:nonzero;"/>
            <path d="M383.808,268.152C381.513,268.152 379.86,267.435 378.849,265.999C377.838,264.564 377.333,262.474 377.333,259.73L377.333,251.819C377.333,250.423 377.443,249.219 377.663,248.209C377.882,247.198 378.251,246.312 378.769,245.55C379.286,244.788 379.999,244.217 380.907,243.836C381.815,243.455 382.929,243.265 384.247,243.265C386.649,243.265 388.373,243.853 389.418,245.03C390.463,246.207 390.985,247.991 390.985,250.384L390.985,251.57L386.752,251.57L386.752,250.311C386.752,249.774 386.74,249.334 386.715,248.992C386.691,248.651 386.632,248.306 386.54,247.96C386.447,247.613 386.313,247.347 386.137,247.161C385.961,246.976 385.722,246.824 385.419,246.707C385.116,246.59 384.745,246.531 384.306,246.531C383.974,246.531 383.678,246.573 383.419,246.656C383.161,246.739 382.943,246.841 382.768,246.963C382.592,247.086 382.443,247.259 382.321,247.484C382.199,247.708 382.106,247.925 382.042,248.135C381.979,248.345 381.93,248.616 381.896,248.948C381.862,249.28 381.84,249.573 381.83,249.827C381.82,250.081 381.815,250.408 381.815,250.809L381.815,260.609C381.815,262.073 381.996,263.145 382.357,263.824C382.719,264.503 383.407,264.842 384.423,264.842C384.95,264.842 385.392,264.742 385.749,264.542C386.105,264.341 386.383,264.039 386.583,263.633C386.784,263.228 386.925,262.764 387.008,262.242C387.091,261.719 387.133,261.087 387.133,260.345L387.133,258.353L384.511,258.353L384.511,255.496L391.117,255.496L391.117,267.83L388.246,267.83L387.924,265.369C387.191,267.225 385.819,268.152 383.808,268.152Z" style="fill:rgb(15,60,91);fill-rule:nonzero;"/>
            <path d="M403.457,267.83L403.457,243.543L406.504,243.543L412.451,257.298L412.451,243.543L416.113,243.543L416.113,267.83L413.213,267.83L407.207,253.372L407.207,267.83L403.457,267.83Z" style="fill:rgb(15,60,91);fill-rule:nonzero;"/>
            <path d="M445.246,272.708L445.275,243.528L448.835,243.543L448.82,272.708L445.246,272.708Z" style="fill:rgb(15,60,91);fill-rule:nonzero;"/>
            <path d="M477.982,267.83L477.982,243.543L483.637,243.543C485.102,243.543 486.327,243.69 487.313,243.983C488.3,244.276 489.091,244.739 489.687,245.374C490.282,246.009 490.705,246.788 490.954,247.711C491.203,248.633 491.327,249.769 491.327,251.116L491.327,259.876C491.327,261.263 491.2,262.44 490.946,263.406C490.692,264.373 490.275,265.193 489.694,265.867C489.113,266.541 488.339,267.037 487.372,267.354C486.405,267.671 485.219,267.83 483.813,267.83L477.982,267.83ZM482.406,264.725L483.666,264.725C484.105,264.725 484.491,264.686 484.823,264.608C485.155,264.529 485.434,264.437 485.658,264.329C485.883,264.222 486.071,264.046 486.222,263.802C486.374,263.558 486.488,263.333 486.566,263.128C486.645,262.923 486.703,262.613 486.742,262.198C486.781,261.783 486.806,261.429 486.815,261.136C486.825,260.843 486.83,260.408 486.83,259.832L486.83,250.955C486.83,250.379 486.82,249.915 486.801,249.564C486.781,249.212 486.735,248.858 486.662,248.502C486.588,248.145 486.481,247.869 486.339,247.674C486.198,247.479 486.01,247.3 485.775,247.139C485.541,246.978 485.248,246.866 484.896,246.802C484.545,246.739 484.12,246.707 483.622,246.707L482.406,246.707L482.406,264.725Z" style="fill:rgb(15,60,91);fill-rule:nonzero;"/>
            <path d="M503.579,267.83L503.579,243.543L513.745,243.543L513.745,246.663L508.003,246.663L508.003,253.636L512.544,253.636L512.544,256.756L508.003,256.756L508.003,264.769L513.818,264.769L513.818,267.83L503.579,267.83Z" style="fill:rgb(15,60,91);fill-rule:nonzero;"/>
            <path d="M529.161,267.83L524.239,243.543L528.165,243.543L531.358,260.447L534.376,243.543L538.39,243.543L533.438,267.83L529.161,267.83Z" style="fill:rgb(15,60,91);fill-rule:nonzero;"/>
            <path d="M549.88,267.83L549.88,243.543L560.046,243.543L560.046,246.663L554.304,246.663L554.304,253.636L558.845,253.636L558.845,256.756L554.304,256.756L554.304,264.769L560.119,264.769L560.119,267.83L549.88,267.83Z" style="fill:rgb(15,60,91);fill-rule:nonzero;"/>
            <path d="M571.668,267.83L571.668,243.543L576.092,243.543L576.092,264.769L581.907,264.769L581.907,267.83L571.668,267.83Z" style="fill:rgb(15,60,91);fill-rule:nonzero;"/>
            <path d="M599.594,268.123C597.094,268.123 595.302,267.444 594.218,266.087C593.134,264.73 592.592,262.742 592.592,260.125L592.592,251.16C592.592,249.871 592.714,248.753 592.958,247.806C593.202,246.859 593.595,246.038 594.137,245.345C594.679,244.651 595.404,244.131 596.313,243.785C597.221,243.438 598.314,243.265 599.594,243.265C602.084,243.265 603.874,243.934 604.962,245.272C606.051,246.609 606.596,248.572 606.596,251.16L606.596,260.125C606.596,261.395 606.471,262.51 606.222,263.472C605.973,264.434 605.578,265.269 605.036,265.977C604.494,266.685 603.769,267.22 602.86,267.581C601.952,267.942 600.863,268.123 599.594,268.123ZM598.48,264.651C598.793,264.778 599.164,264.842 599.594,264.842C600.023,264.842 600.39,264.778 600.692,264.651C600.995,264.525 601.237,264.359 601.417,264.153C601.598,263.948 601.74,263.68 601.842,263.348C601.945,263.016 602.013,262.684 602.047,262.352C602.082,262.02 602.099,261.624 602.099,261.165L602.099,250.135C602.099,249.549 602.069,249.061 602.011,248.67C601.952,248.279 601.837,247.911 601.667,247.564C601.496,247.217 601.239,246.959 600.897,246.788C600.556,246.617 600.121,246.531 599.594,246.531C599.066,246.531 598.629,246.617 598.283,246.788C597.936,246.959 597.68,247.217 597.514,247.564C597.348,247.911 597.235,248.279 597.177,248.67C597.118,249.061 597.089,249.549 597.089,250.135L597.089,261.165C597.089,261.624 597.106,262.02 597.14,262.352C597.174,262.684 597.243,263.016 597.345,263.348C597.448,263.68 597.587,263.948 597.763,264.153C597.938,264.359 598.178,264.525 598.48,264.651Z" style="fill:rgb(15,60,91);fill-rule:nonzero;"/>
            <path d="M623.257,253.87L624.678,253.87C625.928,253.87 626.772,253.624 627.212,253.13C627.651,252.637 627.871,251.732 627.871,250.413C627.871,249.661 627.842,249.08 627.783,248.67C627.725,248.26 627.588,247.886 627.373,247.549C627.158,247.213 626.838,246.981 626.414,246.854C625.989,246.727 625.415,246.663 624.692,246.663L623.257,246.663L623.257,253.87ZM618.833,267.83L618.833,243.543L625.82,243.543C629.961,243.543 632.031,245.843 632.031,250.442C632.031,252.698 631.465,254.351 630.332,255.401C629.199,256.451 627.603,256.976 625.542,256.976L623.257,256.976L623.257,267.83L618.833,267.83Z" style="fill:rgb(15,60,91);fill-rule:nonzero;"/>
            <path d="M643.346,267.83L643.741,243.543L648.282,243.543L651.798,260.609L655.416,243.543L659.854,243.543L660.265,267.83L656.925,267.83L656.632,251.102L653.131,267.83L650.538,267.83L646.993,251.043L646.729,267.83L643.346,267.83Z" style="fill:rgb(15,60,91);fill-rule:nonzero;"/>
            <path d="M672.854,267.83L672.854,243.543L683.02,243.543L683.02,246.663L677.277,246.663L677.277,253.636L681.818,253.636L681.818,256.756L677.277,256.756L677.277,264.769L683.093,264.769L683.093,267.83L672.854,267.83Z" style="fill:rgb(15,60,91);fill-rule:nonzero;"/>
            <path d="M694.642,267.83L694.642,243.543L697.688,243.543L703.636,257.298L703.636,243.543L707.298,243.543L707.298,267.83L704.397,267.83L698.392,253.372L698.392,267.83L694.642,267.83Z" style="fill:rgb(15,60,91);fill-rule:nonzero;"/>
            <path d="M722.304,267.83L722.304,246.81L718.231,246.81L718.231,243.543L730.668,243.543L730.668,246.81L726.728,246.81L726.728,267.83L722.304,267.83Z" style="fill:rgb(15,60,91);fill-rule:nonzero;"/>
            <path d="M758.102,272.708L758.131,243.528L761.69,243.543L761.676,272.708L758.102,272.708Z" style="fill:rgb(15,60,91);fill-rule:nonzero;"/>
            <path d="M796.961,268.123C792.684,268.123 790.438,265.652 790.223,260.711L794.075,259.905C794.173,263.118 795.091,264.725 796.829,264.725C797.503,264.725 798.003,264.52 798.331,264.109C798.658,263.699 798.821,263.148 798.821,262.454C798.821,261.78 798.699,261.163 798.455,260.601C798.211,260.04 797.928,259.581 797.605,259.224C797.283,258.868 796.824,258.426 796.229,257.899L793.035,255.13C792.098,254.31 791.399,253.458 790.94,252.574C790.481,251.69 790.252,250.584 790.252,249.256C790.252,247.371 790.806,245.906 791.915,244.861C793.023,243.817 794.544,243.284 796.478,243.265C797.366,243.255 798.152,243.365 798.836,243.594C799.52,243.824 800.083,244.131 800.528,244.517C800.972,244.903 801.343,245.384 801.641,245.96C801.939,246.536 802.161,247.134 802.308,247.755C802.454,248.375 802.557,249.066 802.615,249.827L798.836,250.574C798.816,250.086 798.785,249.661 798.741,249.3C798.697,248.939 798.621,248.572 798.514,248.201C798.406,247.83 798.267,247.53 798.096,247.3C797.925,247.071 797.696,246.888 797.408,246.751C797.12,246.614 796.785,246.561 796.404,246.59C795.75,246.629 795.25,246.846 794.903,247.242C794.556,247.637 794.383,248.167 794.383,248.831C794.383,249.612 794.537,250.255 794.844,250.757C795.152,251.26 795.633,251.8 796.287,252.376L799.451,255.13C799.979,255.609 800.438,256.072 800.828,256.522C801.219,256.971 801.592,257.484 801.949,258.06C802.305,258.636 802.576,259.271 802.762,259.964C802.947,260.657 803.04,261.39 803.04,262.161C803.04,263.929 802.481,265.364 801.363,266.468C800.245,267.571 798.777,268.123 796.961,268.123Z" style="fill:rgb(15,60,91);fill-rule:nonzero;"/>
            <path d="M817.006,267.83L817.006,246.81L812.934,246.81L812.934,243.543L825.37,243.543L825.37,246.81L821.43,246.81L821.43,267.83L817.006,267.83Z" style="fill:rgb(15,60,91);fill-rule:nonzero;"/>
            <path d="M840.728,253.914L841.797,253.914C843.105,253.914 844.036,253.636 844.587,253.079C845.139,252.523 845.415,251.57 845.415,250.223C845.415,248.924 845.176,247.994 844.697,247.432C844.219,246.871 843.34,246.59 842.061,246.59L840.728,246.59L840.728,253.914ZM836.304,267.83L836.304,243.543L841.87,243.543C843.149,243.543 844.248,243.648 845.166,243.858C846.084,244.068 846.882,244.42 847.561,244.913C848.24,245.406 848.748,246.075 849.084,246.92C849.421,247.764 849.59,248.797 849.59,250.018C849.59,251.541 849.363,252.786 848.909,253.753C848.455,254.72 847.705,255.423 846.66,255.862L850.029,267.83L845.591,267.83L842.69,256.741L840.728,256.741L840.728,267.83L836.304,267.83Z" style="fill:rgb(15,60,91);fill-rule:nonzero;"/>
            <path d="M866.324,259.305L869.576,259.305L867.95,249.329L866.324,259.305ZM860.685,267.83L865.621,243.543L870.235,243.543L875.157,267.83L871.041,267.83L870.06,262.191L865.855,262.191L864.859,267.83L860.685,267.83Z" style="fill:rgb(15,60,91);fill-rule:nonzero;"/>
            <path d="M888.068,267.83L888.068,246.81L883.996,246.81L883.996,243.543L896.433,243.543L896.433,246.81L892.492,246.81L892.492,267.83L888.068,267.83Z" style="fill:rgb(15,60,91);fill-rule:nonzero;"/>
            <path d="M907.366,267.83L907.366,243.543L917.532,243.543L917.532,246.663L911.79,246.663L911.79,253.636L916.331,253.636L916.331,256.756L911.79,256.756L911.79,264.769L917.605,264.769L917.605,267.83L907.366,267.83Z" style="fill:rgb(15,60,91);fill-rule:nonzero;"/>
            <path d="M935.233,268.152C932.938,268.152 931.286,267.435 930.275,265.999C929.264,264.564 928.759,262.474 928.759,259.73L928.759,251.819C928.759,250.423 928.869,249.219 929.088,248.209C929.308,247.198 929.677,246.312 930.194,245.55C930.712,244.788 931.425,244.217 932.333,243.836C933.241,243.455 934.354,243.265 935.673,243.265C938.075,243.265 939.799,243.853 940.844,245.03C941.889,246.207 942.411,247.991 942.411,250.384L942.411,251.57L938.178,251.57L938.178,250.311C938.178,249.774 938.166,249.334 938.141,248.992C938.117,248.651 938.058,248.306 937.965,247.96C937.873,247.613 937.738,247.347 937.563,247.161C937.387,246.976 937.147,246.824 936.845,246.707C936.542,246.59 936.171,246.531 935.731,246.531C935.399,246.531 935.104,246.573 934.845,246.656C934.586,246.739 934.369,246.841 934.193,246.963C934.018,247.086 933.869,247.259 933.747,247.484C933.625,247.708 933.532,247.925 933.468,248.135C933.405,248.345 933.356,248.616 933.322,248.948C933.288,249.28 933.266,249.573 933.256,249.827C933.246,250.081 933.241,250.408 933.241,250.809L933.241,260.609C933.241,262.073 933.422,263.145 933.783,263.824C934.145,264.503 934.833,264.842 935.849,264.842C936.376,264.842 936.818,264.742 937.174,264.542C937.531,264.341 937.809,264.039 938.009,263.633C938.209,263.228 938.351,262.764 938.434,262.242C938.517,261.719 938.559,261.087 938.559,260.345L938.559,258.353L935.937,258.353L935.937,255.496L942.543,255.496L942.543,267.83L939.672,267.83L939.35,265.369C938.617,267.225 937.245,268.152 935.233,268.152Z" style="fill:rgb(15,60,91);fill-rule:nonzero;"/>
            <path d="M958.135,267.83L958.135,258.587L953.184,243.543L957.314,243.543L960.317,253.211L963.188,243.543L967.275,243.543L962.354,258.587L962.354,267.83L958.135,267.83Z" style="fill:rgb(15,60,91);fill-rule:nonzero;"/>
        </g>
    </g>
    <g transform="matrix(1,0,0,1,-191.106,116.038)">
        <path d="M334.643,267.83L334.643,256.619L332.471,256.619L332.471,254.877L339.104,254.877L339.104,256.619L337.002,256.619L337.002,267.83L334.643,267.83Z" style="fill:rgb(15,60,91);fill-rule:nonzero;"/>
        <path d="M348.177,268.002C346.953,268.002 346.072,267.619 345.533,266.854C344.994,266.088 344.724,264.973 344.724,263.51L344.724,259.291C344.724,258.546 344.783,257.904 344.9,257.365C345.017,256.826 345.214,256.354 345.49,255.947C345.766,255.541 346.146,255.236 346.63,255.033C347.115,254.83 347.708,254.729 348.412,254.729C349.693,254.729 350.612,255.042 351.169,255.67C351.727,256.298 352.005,257.249 352.005,258.526L352.005,259.158L349.747,259.158L349.747,258.486C349.747,258.2 349.741,257.966 349.728,257.783C349.715,257.601 349.684,257.417 349.634,257.233C349.585,257.048 349.513,256.906 349.419,256.807C349.326,256.708 349.198,256.627 349.037,256.565C348.875,256.502 348.677,256.471 348.443,256.471C348.266,256.471 348.108,256.493 347.97,256.537C347.832,256.581 347.716,256.636 347.622,256.701C347.529,256.766 347.449,256.859 347.384,256.979C347.319,257.098 347.27,257.214 347.236,257.326C347.202,257.438 347.176,257.583 347.158,257.76C347.139,257.937 347.128,258.093 347.122,258.229C347.117,258.364 347.115,258.539 347.115,258.752L347.115,263.979C347.115,264.76 347.211,265.331 347.404,265.693C347.596,266.055 347.964,266.236 348.505,266.236C348.787,266.236 349.022,266.183 349.212,266.076C349.402,265.97 349.551,265.808 349.658,265.592C349.764,265.376 349.84,265.128 349.884,264.85C349.928,264.571 349.951,264.234 349.951,263.838L349.951,262.776L348.552,262.776L348.552,261.252L352.076,261.252L352.076,267.83L350.544,267.83L350.372,266.518C349.982,267.507 349.25,268.002 348.177,268.002Z" style="fill:rgb(15,60,91);fill-rule:nonzero;"/>
        <path d="M361.016,260.408L361.587,260.408C362.284,260.408 362.781,260.26 363.075,259.963C363.369,259.666 363.516,259.158 363.516,258.44C363.516,257.747 363.389,257.251 363.133,256.951C362.878,256.652 362.409,256.502 361.727,256.502L361.016,256.502L361.016,260.408ZM358.657,267.83L358.657,254.877L361.626,254.877C362.308,254.877 362.894,254.933 363.383,255.045C363.873,255.157 364.299,255.345 364.661,255.608C365.023,255.871 365.294,256.227 365.473,256.678C365.653,257.128 365.743,257.679 365.743,258.33C365.743,259.143 365.622,259.807 365.379,260.322C365.137,260.838 364.738,261.213 364.18,261.447L365.977,267.83L363.61,267.83L362.063,261.916L361.016,261.916L361.016,267.83L358.657,267.83Z" style="fill:rgb(15,60,91);fill-rule:nonzero;"/>
        <path d="M374.668,263.283L376.402,263.283L375.535,257.963L374.668,263.283ZM371.66,267.83L374.293,254.877L376.754,254.877L379.379,267.83L377.183,267.83L376.66,264.822L374.418,264.822L373.887,267.83L371.66,267.83Z" style="fill:rgb(15,60,91);fill-rule:nonzero;"/>
        <path d="M386.882,267.83L386.882,262.901L384.241,254.877L386.444,254.877L388.046,260.033L389.577,254.877L391.757,254.877L389.132,262.901L389.132,267.83L386.882,267.83Z" style="fill:rgb(15,60,91);fill-rule:nonzero;"/>
        <rect x="397.237" y="265.666" width="2.125" height="2.164" style="fill:rgb(15,60,91);fill-rule:nonzero;"/>
        <rect x="405.763" y="254.877" width="2.328" height="12.953" style="fill:rgb(15,60,91);fill-rule:nonzero;"/>
        <path d="M416.149,267.83L416.149,256.619L413.977,256.619L413.977,254.877L420.61,254.877L420.61,256.619L418.508,256.619L418.508,267.83L416.149,267.83Z" style="fill:rgb(15,60,91);fill-rule:nonzero;"/>
        <path d="M432.933,264.658C433.131,264.617 433.328,264.505 433.523,264.322C433.719,264.14 433.853,263.872 433.926,263.518L434.449,259.83C434.387,259.747 434.254,259.705 434.051,259.705C433.639,259.705 433.263,259.872 432.922,260.205C432.581,260.539 432.316,260.968 432.129,261.494C431.941,262.02 431.847,262.578 431.847,263.166C431.842,263.624 431.929,264.001 432.109,264.295C432.289,264.589 432.564,264.71 432.933,264.658ZM433.043,269.979C430.892,269.979 429.22,269.363 428.027,268.131C426.834,266.899 426.293,265.166 426.402,262.932C426.449,261.64 426.663,260.485 427.043,259.467C427.423,258.449 427.943,257.605 428.601,256.936C429.26,256.266 430.045,255.756 430.957,255.404C431.868,255.053 432.879,254.877 433.988,254.877C434.801,254.877 435.54,254.993 436.207,255.225C436.874,255.456 437.433,255.772 437.887,256.17C438.34,256.568 438.719,257.041 439.023,257.588C439.328,258.135 439.541,258.721 439.664,259.346C439.786,259.971 439.832,260.624 439.801,261.307C439.785,261.796 439.721,262.277 439.609,262.748C439.497,263.22 439.329,263.67 439.105,264.1C438.881,264.529 438.616,264.907 438.308,265.233C438.001,265.558 437.63,265.817 437.195,266.01C436.76,266.203 436.29,266.299 435.785,266.299C435.311,266.299 434.905,266.18 434.566,265.943C434.228,265.706 434.025,265.377 433.957,264.955C433.853,265.289 433.676,265.574 433.426,265.811C433.176,266.048 432.858,266.184 432.472,266.221C431.92,266.273 431.443,266.158 431.039,265.877C430.635,265.596 430.34,265.218 430.152,264.744C429.965,264.27 429.879,263.742 429.894,263.158C429.9,262.726 429.953,262.281 430.054,261.822C430.156,261.364 430.312,260.912 430.523,260.467C430.734,260.022 430.983,259.624 431.269,259.276C431.556,258.927 431.905,258.644 432.316,258.428C432.728,258.212 433.165,258.104 433.629,258.104C433.988,258.104 434.35,258.341 434.715,258.815L434.879,258.229L436.543,258.229L435.715,263.877C435.647,264.377 435.642,264.705 435.699,264.861C435.746,264.997 435.834,265.072 435.965,265.088C436.36,265.119 436.732,264.97 437.078,264.639C437.424,264.308 437.703,263.856 437.914,263.283C438.125,262.71 438.241,262.093 438.262,261.432C438.288,260.88 438.259,260.358 438.176,259.865C438.092,259.373 437.94,258.912 437.719,258.483C437.497,258.053 437.216,257.683 436.875,257.373C436.534,257.063 436.104,256.818 435.586,256.639C435.068,256.459 434.485,256.369 433.84,256.369C432.975,256.369 432.193,256.529 431.492,256.85C430.791,257.17 430.207,257.619 429.738,258.197C429.269,258.776 428.902,259.462 428.637,260.256C428.371,261.05 428.22,261.924 428.183,262.877C428.084,264.664 428.466,266.044 429.328,267.018C430.19,267.992 431.499,268.479 433.254,268.479C434.228,268.479 435.23,268.317 436.262,267.994L436.574,269.455C435.282,269.804 434.105,269.979 433.043,269.979Z" style="fill:rgb(15,60,91);fill-rule:nonzero;"/>
        <path d="M449.437,268.002C448.213,268.002 447.331,267.619 446.792,266.854C446.253,266.088 445.983,264.973 445.983,263.51L445.983,259.291C445.983,258.546 446.042,257.904 446.159,257.365C446.276,256.826 446.473,256.354 446.749,255.947C447.025,255.541 447.405,255.236 447.89,255.033C448.374,254.83 448.968,254.729 449.671,254.729C450.952,254.729 451.871,255.042 452.429,255.67C452.986,256.298 453.265,257.249 453.265,258.526L453.265,259.158L451.007,259.158L451.007,258.486C451.007,258.2 451,257.966 450.987,257.783C450.974,257.601 450.943,257.417 450.894,257.233C450.844,257.048 450.772,256.906 450.679,256.807C450.585,256.708 450.457,256.627 450.296,256.565C450.134,256.502 449.937,256.471 449.702,256.471C449.525,256.471 449.368,256.493 449.229,256.537C449.091,256.581 448.976,256.636 448.882,256.701C448.788,256.766 448.709,256.859 448.644,256.979C448.578,257.098 448.529,257.214 448.495,257.326C448.461,257.438 448.435,257.583 448.417,257.76C448.399,257.937 448.387,258.093 448.382,258.229C448.377,258.364 448.374,258.539 448.374,258.752L448.374,263.979C448.374,264.76 448.47,265.331 448.663,265.693C448.856,266.055 449.223,266.236 449.765,266.236C450.046,266.236 450.282,266.183 450.472,266.076C450.662,265.97 450.81,265.808 450.917,265.592C451.024,265.376 451.099,265.128 451.144,264.85C451.188,264.571 451.21,264.234 451.21,263.838L451.21,262.776L449.812,262.776L449.812,261.252L453.335,261.252L453.335,267.83L451.804,267.83L451.632,266.518C451.241,267.507 450.509,268.002 449.437,268.002Z" style="fill:rgb(15,60,91);fill-rule:nonzero;"/>
        <path d="M459.893,267.83L460.104,254.877L462.526,254.877L464.401,263.979L466.33,254.877L468.697,254.877L468.916,267.83L467.135,267.83L466.979,258.908L465.112,267.83L463.729,267.83L461.838,258.877L461.697,267.83L459.893,267.83Z" style="fill:rgb(15,60,91);fill-rule:nonzero;"/>
        <path d="M477.966,263.283L479.701,263.283L478.833,257.963L477.966,263.283ZM474.958,267.83L477.591,254.877L480.052,254.877L482.677,267.83L480.482,267.83L479.958,264.822L477.716,264.822L477.185,267.83L474.958,267.83Z" style="fill:rgb(15,60,91);fill-rule:nonzero;"/>
        <rect x="488.821" y="254.877" width="2.328" height="12.953" style="fill:rgb(15,60,91);fill-rule:nonzero;"/>
        <path d="M497.941,267.83L497.941,254.877L500.301,254.877L500.301,266.197L503.402,266.197L503.402,267.83L497.941,267.83Z" style="fill:rgb(15,60,91);fill-rule:nonzero;"/>
        <rect x="509.218" y="265.666" width="2.125" height="2.164" style="fill:rgb(15,60,91);fill-rule:nonzero;"/>
        <path d="M521.151,267.986C520.593,267.986 520.101,267.916 519.674,267.776C519.247,267.635 518.894,267.44 518.615,267.19C518.337,266.94 518.11,266.63 517.936,266.26C517.761,265.89 517.639,265.493 517.569,265.068C517.498,264.644 517.463,264.166 517.463,263.635L517.463,259.119C517.463,258.557 517.5,258.058 517.572,257.623C517.645,257.188 517.768,256.785 517.94,256.412C518.112,256.04 518.337,255.734 518.615,255.494C518.894,255.255 519.246,255.067 519.67,254.932C520.095,254.796 520.588,254.729 521.151,254.729C521.796,254.729 522.349,254.815 522.807,254.986C523.265,255.158 523.627,255.411 523.893,255.744C524.158,256.078 524.351,256.467 524.471,256.912C524.591,257.358 524.651,257.877 524.651,258.471L524.651,259.58L522.377,259.58L522.377,258.479C522.377,257.833 522.343,257.398 522.276,257.174C522.14,256.736 521.809,256.502 521.283,256.471C521.242,256.471 521.2,256.471 521.158,256.471C520.96,256.471 520.787,256.494 520.639,256.541C520.49,256.588 520.369,256.662 520.276,256.764C520.182,256.865 520.106,256.973 520.049,257.088C519.992,257.203 519.949,257.352 519.92,257.537C519.891,257.722 519.873,257.893 519.865,258.049C519.858,258.205 519.854,258.403 519.854,258.643L519.854,264.127C519.854,264.887 519.949,265.429 520.139,265.752C520.329,266.075 520.669,266.236 521.158,266.236C521.325,266.236 521.472,266.217 521.6,266.178C521.727,266.139 521.834,266.089 521.92,266.029C522.006,265.97 522.079,265.884 522.139,265.772C522.199,265.66 522.244,265.555 522.276,265.459C522.307,265.363 522.33,265.229 522.346,265.057C522.362,264.885 522.371,264.739 522.373,264.619C522.376,264.499 522.377,264.335 522.377,264.127L522.377,262.971L524.651,262.971L524.651,264.033C524.651,264.518 524.617,264.953 524.549,265.338C524.481,265.723 524.365,266.085 524.201,266.424C524.037,266.762 523.825,267.044 523.565,267.268C523.304,267.492 522.971,267.667 522.565,267.795C522.158,267.923 521.687,267.986 521.151,267.986Z" style="fill:rgb(15,60,91);fill-rule:nonzero;"/>
        <path d="M534.607,267.986C533.274,267.986 532.318,267.624 531.74,266.901C531.162,266.177 530.872,265.117 530.872,263.721L530.872,258.94C530.872,258.252 530.938,257.656 531.068,257.151C531.198,256.645 531.408,256.208 531.697,255.838C531.986,255.468 532.372,255.191 532.857,255.006C533.341,254.821 533.925,254.729 534.607,254.729C535.935,254.729 536.889,255.085 537.47,255.799C538.051,256.512 538.341,257.559 538.341,258.94L538.341,263.721C538.341,264.398 538.275,264.993 538.142,265.506C538.009,266.019 537.798,266.464 537.509,266.842C537.22,267.22 536.833,267.505 536.349,267.697C535.865,267.89 535.284,267.986 534.607,267.986ZM534.013,266.135C534.18,266.203 534.378,266.236 534.607,266.236C534.836,266.236 535.031,266.203 535.193,266.135C535.354,266.067 535.483,265.979 535.579,265.869C535.676,265.76 535.751,265.617 535.806,265.44C535.861,265.262 535.897,265.085 535.915,264.908C535.934,264.731 535.943,264.52 535.943,264.276L535.943,258.393C535.943,258.08 535.927,257.82 535.896,257.611C535.865,257.403 535.803,257.206 535.712,257.022C535.621,256.837 535.484,256.699 535.302,256.608C535.12,256.516 534.888,256.471 534.607,256.471C534.326,256.471 534.093,256.516 533.908,256.608C533.723,256.699 533.586,256.837 533.497,257.022C533.409,257.206 533.349,257.403 533.318,257.611C533.287,257.82 533.271,258.08 533.271,258.393L533.271,264.276C533.271,264.52 533.28,264.731 533.298,264.908C533.316,265.085 533.353,265.262 533.408,265.44C533.462,265.617 533.537,265.76 533.63,265.869C533.724,265.979 533.852,266.067 534.013,266.135Z" style="fill:rgb(15,60,91);fill-rule:nonzero;"/>
        <path d="M544.844,267.83L545.055,254.877L547.477,254.877L549.352,263.979L551.282,254.877L553.649,254.877L553.868,267.83L552.087,267.83L551.93,258.908L550.063,267.83L548.68,267.83L546.79,258.877L546.649,267.83L544.844,267.83Z" style="fill:rgb(15,60,91);fill-rule:nonzero;"/>
        <path d="M569.382,270.432L569.397,254.869L571.296,254.877L571.288,270.432L569.382,270.432Z" style="fill:rgb(15,60,91);fill-rule:nonzero;"/>
        <path d="M589.912,268.01C588.755,268.01 587.901,267.69 587.349,267.049C586.797,266.408 586.521,265.505 586.521,264.338L586.521,263.877L588.74,263.877L588.74,264.236C588.75,264.893 588.837,265.377 589.001,265.69C589.165,266.002 589.474,266.158 589.927,266.158C590.125,266.158 590.296,266.124 590.439,266.057C590.582,265.989 590.695,265.902 590.779,265.795C590.862,265.688 590.926,265.542 590.97,265.358C591.014,265.173 591.044,264.986 591.06,264.799C591.076,264.611 591.083,264.382 591.083,264.111C591.083,263.424 590.971,262.901 590.747,262.541C590.524,262.182 590.133,261.986 589.576,261.955C589.555,261.955 589.497,261.954 589.404,261.951C589.31,261.949 589.255,261.947 589.24,261.947L589.24,260.088C589.406,260.088 589.505,260.085 589.537,260.08C590.109,260.065 590.51,259.915 590.74,259.631C590.969,259.347 591.083,258.88 591.083,258.229C591.083,257.656 590.996,257.226 590.822,256.94C590.647,256.653 590.339,256.51 589.896,256.51C589.708,256.51 589.546,256.541 589.408,256.604C589.27,256.666 589.159,256.749 589.076,256.854C588.992,256.958 588.926,257.092 588.876,257.256C588.827,257.42 588.793,257.588 588.775,257.76C588.757,257.932 588.745,258.132 588.74,258.361L588.74,258.799L586.521,258.799L586.521,258.197C586.521,257.093 586.814,256.238 587.4,255.631C587.986,255.024 588.818,254.721 589.896,254.721C590.984,254.721 591.822,255.018 592.408,255.611C592.994,256.205 593.287,257.052 593.287,258.151C593.287,258.885 593.128,259.497 592.81,259.986C592.492,260.476 592.07,260.796 591.544,260.947C592.102,261.14 592.531,261.498 592.833,262.022C593.135,262.545 593.287,263.231 593.287,264.08C593.287,265.315 593.016,266.278 592.474,266.971C591.932,267.664 591.078,268.01 589.912,268.01Z" style="fill:rgb(15,60,91);fill-rule:nonzero;"/>
        <path d="M602.579,268.01C601.422,268.01 600.568,267.69 600.016,267.049C599.464,266.408 599.188,265.505 599.188,264.338L599.188,263.877L601.407,263.877L601.407,264.236C601.417,264.893 601.504,265.377 601.669,265.69C601.833,266.002 602.141,266.158 602.594,266.158C602.792,266.158 602.963,266.124 603.106,266.057C603.249,265.989 603.363,265.902 603.446,265.795C603.529,265.688 603.593,265.542 603.637,265.358C603.682,265.173 603.712,264.986 603.727,264.799C603.743,264.611 603.751,264.382 603.751,264.111C603.751,263.424 603.639,262.901 603.415,262.541C603.191,262.182 602.8,261.986 602.243,261.955C602.222,261.955 602.165,261.954 602.071,261.951C601.977,261.949 601.922,261.947 601.907,261.947L601.907,260.088C602.074,260.088 602.172,260.085 602.204,260.08C602.777,260.065 603.178,259.915 603.407,259.631C603.636,259.347 603.751,258.88 603.751,258.229C603.751,257.656 603.663,257.226 603.489,256.94C603.314,256.653 603.006,256.51 602.563,256.51C602.376,256.51 602.213,256.541 602.075,256.604C601.937,256.666 601.826,256.749 601.743,256.854C601.659,256.958 601.593,257.092 601.544,257.256C601.494,257.42 601.46,257.588 601.442,257.76C601.424,257.932 601.412,258.132 601.407,258.361L601.407,258.799L599.188,258.799L599.188,258.197C599.188,257.093 599.481,256.238 600.067,255.631C600.653,255.024 601.485,254.721 602.563,254.721C603.652,254.721 604.489,255.018 605.075,255.611C605.661,256.205 605.954,257.052 605.954,258.151C605.954,258.885 605.795,259.497 605.477,259.986C605.159,260.476 604.738,260.796 604.212,260.947C604.769,261.14 605.199,261.498 605.501,262.022C605.803,262.545 605.954,263.231 605.954,264.08C605.954,265.315 605.683,266.278 605.141,266.971C604.6,267.664 603.745,268.01 602.579,268.01Z" style="fill:rgb(15,60,91);fill-rule:nonzero;"/>
        <path d="M613.699,262.822L615.582,262.822L615.582,257.33L613.699,262.822ZM615.582,267.83L615.582,264.666L611.777,264.666L611.777,262.619L615.066,254.869L617.676,254.869L617.676,262.822L619.019,262.822L619.019,264.666L617.676,264.666L617.676,267.83L615.582,267.83Z" style="fill:rgb(15,60,91);fill-rule:nonzero;"/>
        <rect x="625.062" y="261.971" width="3.859" height="1.516" style="fill:rgb(15,60,91);fill-rule:nonzero;"/>
        <path d="M635.338,267.83L635.338,266.268L638.502,261.315C638.549,261.236 638.677,261.042 638.885,260.733C639.093,260.423 639.231,260.206 639.299,260.084C639.367,259.962 639.462,259.774 639.584,259.522C639.707,259.269 639.79,259.032 639.834,258.811C639.878,258.589 639.901,258.354 639.901,258.104C639.901,257.593 639.811,257.205 639.631,256.94C639.451,256.674 639.174,256.552 638.799,256.572C638.007,256.609 637.612,257.302 637.612,258.651L637.612,259.19L635.424,259.19L635.424,258.635C635.424,258.041 635.487,257.511 635.612,257.045C635.737,256.579 635.929,256.169 636.19,255.815C636.45,255.46 636.8,255.19 637.24,255.002C637.681,254.815 638.197,254.721 638.791,254.721C639.885,254.721 640.712,255.016 641.272,255.608C641.832,256.199 642.112,257.036 642.112,258.119C642.112,258.489 642.078,258.838 642.01,259.166C641.942,259.494 641.833,259.815 641.682,260.127C641.531,260.44 641.39,260.703 641.26,260.916C641.13,261.13 640.95,261.406 640.721,261.744C640.695,261.781 640.675,261.809 640.662,261.83C640.649,261.851 640.632,261.876 640.612,261.904C640.591,261.933 640.572,261.96 640.557,261.986L637.893,266.041L641.776,266.041L641.776,267.83L635.338,267.83Z" style="fill:rgb(15,60,91);fill-rule:nonzero;"/>
        <path d="M651.458,268.01C650.302,268.01 649.448,267.69 648.896,267.049C648.344,266.408 648.068,265.505 648.068,264.338L648.068,263.877L650.287,263.877L650.287,264.236C650.297,264.893 650.384,265.377 650.548,265.69C650.712,266.002 651.021,266.158 651.474,266.158C651.672,266.158 651.843,266.124 651.986,266.057C652.129,265.989 652.242,265.902 652.326,265.795C652.409,265.688 652.473,265.542 652.517,265.358C652.561,265.173 652.591,264.986 652.607,264.799C652.622,264.611 652.63,264.382 652.63,264.111C652.63,263.424 652.518,262.901 652.294,262.541C652.07,262.182 651.68,261.986 651.122,261.955C651.102,261.955 651.044,261.954 650.951,261.951C650.857,261.949 650.802,261.947 650.787,261.947L650.787,260.088C650.953,260.088 651.052,260.085 651.083,260.08C651.656,260.065 652.057,259.915 652.287,259.631C652.516,259.347 652.63,258.88 652.63,258.229C652.63,257.656 652.543,257.226 652.369,256.94C652.194,256.653 651.885,256.51 651.443,256.51C651.255,256.51 651.093,256.541 650.954,256.604C650.816,256.666 650.706,256.749 650.622,256.854C650.539,256.958 650.473,257.092 650.423,257.256C650.374,257.42 650.34,257.588 650.322,257.76C650.303,257.932 650.292,258.132 650.287,258.361L650.287,258.799L648.068,258.799L648.068,258.197C648.068,257.093 648.361,256.238 648.947,255.631C649.533,255.024 650.365,254.721 651.443,254.721C652.531,254.721 653.369,255.018 653.954,255.611C654.54,256.205 654.833,257.052 654.833,258.151C654.833,258.885 654.675,259.497 654.357,259.986C654.039,260.476 653.617,260.796 653.091,260.947C653.649,261.14 654.078,261.498 654.38,262.022C654.682,262.545 654.833,263.231 654.833,264.08C654.833,265.315 654.563,266.278 654.021,266.971C653.479,267.664 652.625,268.01 651.458,268.01Z" style="fill:rgb(15,60,91);fill-rule:nonzero;"/>
        <path d="M664.126,268.01C662.969,268.01 662.115,267.69 661.563,267.049C661.011,266.408 660.735,265.505 660.735,264.338L660.735,263.877L662.954,263.877L662.954,264.236C662.964,264.893 663.051,265.377 663.215,265.69C663.379,266.002 663.688,266.158 664.141,266.158C664.339,266.158 664.51,266.124 664.653,266.057C664.796,265.989 664.909,265.902 664.993,265.795C665.076,265.688 665.14,265.542 665.184,265.358C665.228,265.173 665.258,264.986 665.274,264.799C665.29,264.611 665.297,264.382 665.297,264.111C665.297,263.424 665.185,262.901 664.962,262.541C664.738,262.182 664.347,261.986 663.79,261.955C663.769,261.955 663.712,261.954 663.618,261.951C663.524,261.949 663.469,261.947 663.454,261.947L663.454,260.088C663.62,260.088 663.719,260.085 663.751,260.08C664.324,260.065 664.725,259.915 664.954,259.631C665.183,259.347 665.297,258.88 665.297,258.229C665.297,257.656 665.21,257.226 665.036,256.94C664.861,256.653 664.553,256.51 664.11,256.51C663.922,256.51 663.76,256.541 663.622,256.604C663.484,256.666 663.373,256.749 663.29,256.854C663.206,256.958 663.14,257.092 663.09,257.256C663.041,257.42 663.007,257.588 662.989,257.76C662.971,257.932 662.959,258.132 662.954,258.361L662.954,258.799L660.735,258.799L660.735,258.197C660.735,257.093 661.028,256.238 661.614,255.631C662.2,255.024 663.032,254.721 664.11,254.721C665.199,254.721 666.036,255.018 666.622,255.611C667.208,256.205 667.501,257.052 667.501,258.151C667.501,258.885 667.342,259.497 667.024,259.986C666.706,260.476 666.284,260.796 665.758,260.947C666.316,261.14 666.745,261.498 667.047,262.022C667.35,262.545 667.501,263.231 667.501,264.08C667.501,265.315 667.23,266.278 666.688,266.971C666.146,267.664 665.292,268.01 664.126,268.01Z" style="fill:rgb(15,60,91);fill-rule:nonzero;"/>
        <rect x="673.652" y="261.971" width="3.859" height="1.516" style="fill:rgb(15,60,91);fill-rule:nonzero;"/>
        <path d="M687.413,266.26C687.637,266.26 687.827,266.204 687.983,266.092C688.14,265.98 688.258,265.816 688.339,265.6C688.42,265.384 688.476,265.149 688.507,264.897C688.538,264.644 688.554,264.348 688.554,264.01C688.554,263.765 688.552,263.579 688.55,263.451C688.547,263.324 688.539,263.157 688.526,262.951C688.513,262.746 688.493,262.588 688.464,262.479C688.435,262.369 688.392,262.244 688.335,262.104C688.278,261.963 688.21,261.858 688.132,261.787C688.054,261.717 687.953,261.657 687.831,261.608C687.709,261.558 687.567,261.533 687.405,261.533C686.9,261.533 686.512,261.786 686.241,262.291L686.241,264.244C686.241,265.588 686.632,266.26 687.413,266.26ZM687.397,267.986C686.929,267.986 686.506,267.914 686.128,267.768C685.75,267.622 685.431,267.421 685.171,267.166C684.91,266.911 684.693,266.602 684.519,266.24C684.344,265.878 684.216,265.486 684.136,265.065C684.055,264.643 684.015,264.19 684.015,263.705L684.015,259.338C684.015,258.802 684.046,258.315 684.108,257.877C684.171,257.44 684.28,257.022 684.437,256.623C684.593,256.225 684.797,255.889 685.05,255.615C685.302,255.342 685.627,255.126 686.022,254.967C686.418,254.808 686.877,254.729 687.397,254.729C689.538,254.729 690.629,255.815 690.671,257.986L690.671,258.174L688.522,258.174C688.522,257.58 688.447,257.148 688.296,256.877C688.145,256.606 687.848,256.471 687.405,256.471C686.983,256.471 686.684,256.678 686.507,257.092C686.33,257.506 686.241,258.195 686.241,259.158L686.241,260.697C686.392,260.437 686.619,260.233 686.921,260.084C687.223,259.936 687.577,259.859 687.983,259.854C689.843,259.833 690.772,261.07 690.772,263.565C690.772,264.216 690.713,264.8 690.593,265.318C690.473,265.837 690.285,266.3 690.03,266.709C689.775,267.118 689.425,267.433 688.979,267.654C688.534,267.876 688.007,267.986 687.397,267.986Z" style="fill:rgb(15,60,91);fill-rule:nonzero;"/>
        <path d="M700.205,261.174C700.69,261.174 701.065,260.924 701.33,260.424L701.33,258.471C701.33,257.122 700.95,256.447 700.19,256.447C699.966,256.447 699.777,256.505 699.623,256.619C699.47,256.734 699.352,256.899 699.272,257.115C699.191,257.331 699.135,257.566 699.104,257.818C699.072,258.071 699.057,258.367 699.057,258.705C699.057,258.898 699.057,259.042 699.057,259.139C699.057,259.235 699.061,259.369 699.069,259.541C699.076,259.713 699.087,259.843 699.1,259.932C699.113,260.02 699.132,260.132 699.158,260.268C699.184,260.403 699.216,260.507 699.252,260.58C699.289,260.653 699.337,260.734 699.397,260.822C699.457,260.911 699.524,260.976 699.6,261.018C699.675,261.059 699.764,261.096 699.865,261.127C699.967,261.158 700.08,261.174 700.205,261.174ZM700.182,267.986C698.036,267.986 696.947,266.89 696.916,264.697L696.916,264.541L699.065,264.541C699.065,265.13 699.141,265.561 699.295,265.834C699.449,266.108 699.75,266.244 700.197,266.244C700.614,266.244 700.907,266.037 701.076,265.623C701.246,265.209 701.33,264.518 701.33,263.549L701.33,262.018C701.007,262.565 700.432,262.843 699.604,262.854C699.192,262.859 698.825,262.798 698.502,262.67C698.179,262.542 697.914,262.368 697.705,262.147C697.497,261.925 697.325,261.652 697.19,261.326C697.054,261.001 696.958,260.654 696.901,260.287C696.843,259.92 696.815,259.518 696.815,259.08C696.815,258.434 696.877,257.854 697.002,257.338C697.127,256.822 697.32,256.367 697.58,255.971C697.841,255.575 698.191,255.269 698.631,255.053C699.071,254.837 699.591,254.729 700.19,254.729C700.773,254.729 701.285,254.835 701.725,255.049C702.165,255.262 702.518,255.562 702.783,255.947C703.049,256.333 703.247,256.776 703.377,257.276C703.507,257.776 703.572,258.333 703.572,258.947L703.572,263.377C703.572,263.914 703.541,264.401 703.479,264.838C703.416,265.276 703.306,265.693 703.147,266.092C702.988,266.49 702.783,266.826 702.533,267.1C702.283,267.373 701.959,267.589 701.561,267.748C701.162,267.907 700.703,267.986 700.182,267.986Z" style="fill:rgb(15,60,91);fill-rule:nonzero;"/>
        <path d="M713.122,268.01C711.966,268.01 711.112,267.69 710.56,267.049C710.008,266.408 709.732,265.505 709.732,264.338L709.732,263.877L711.951,263.877L711.951,264.236C711.961,264.893 712.048,265.377 712.212,265.69C712.376,266.002 712.685,266.158 713.138,266.158C713.336,266.158 713.507,266.124 713.65,266.057C713.793,265.989 713.906,265.902 713.99,265.795C714.073,265.688 714.137,265.542 714.181,265.358C714.225,265.173 714.255,264.986 714.271,264.799C714.287,264.611 714.294,264.382 714.294,264.111C714.294,263.424 714.182,262.901 713.958,262.541C713.734,262.182 713.344,261.986 712.787,261.955C712.766,261.955 712.708,261.954 712.615,261.951C712.521,261.949 712.466,261.947 712.451,261.947L712.451,260.088C712.617,260.088 712.716,260.085 712.747,260.08C713.32,260.065 713.721,259.915 713.951,259.631C714.18,259.347 714.294,258.88 714.294,258.229C714.294,257.656 714.207,257.226 714.033,256.94C713.858,256.653 713.55,256.51 713.107,256.51C712.919,256.51 712.757,256.541 712.619,256.604C712.481,256.666 712.37,256.749 712.287,256.854C712.203,256.958 712.137,257.092 712.087,257.256C712.038,257.42 712.004,257.588 711.986,257.76C711.968,257.932 711.956,258.132 711.951,258.361L711.951,258.799L709.732,258.799L709.732,258.197C709.732,257.093 710.025,256.238 710.611,255.631C711.197,255.024 712.029,254.721 713.107,254.721C714.195,254.721 715.033,255.018 715.619,255.611C716.204,256.205 716.497,257.052 716.497,258.151C716.497,258.885 716.339,259.497 716.021,259.986C715.703,260.476 715.281,260.796 714.755,260.947C715.313,261.14 715.742,261.498 716.044,262.022C716.346,262.545 716.497,263.231 716.497,264.08C716.497,265.315 716.227,266.278 715.685,266.971C715.143,267.664 714.289,268.01 713.122,268.01Z" style="fill:rgb(15,60,91);fill-rule:nonzero;"/>
        <path d="M725.219,267.83L725.219,257.385L723.133,257.94L723.133,256.283C724.462,255.841 725.331,255.372 725.743,254.877L727.438,254.877L727.438,267.83L725.219,267.83Z" style="fill:rgb(15,60,91);fill-rule:nonzero;"/>
        <path d="M744.327,270.432L744.343,254.869L746.241,254.877L746.233,270.432L744.327,270.432Z" style="fill:rgb(15,60,91);fill-rule:nonzero;"/>
        <path d="M760.966,268.104L760.966,266.447C761.659,266.453 762.12,266.348 762.349,266.135C762.578,265.921 762.693,265.481 762.693,264.815L762.693,254.877L765.052,254.877L765.044,264.869C765.039,265.437 764.991,265.915 764.9,266.303C764.809,266.691 764.652,267.024 764.431,267.303C764.21,267.581 763.908,267.785 763.525,267.912C763.142,268.04 762.667,268.104 762.099,268.104L760.966,268.104Z" style="fill:rgb(15,60,91);fill-rule:nonzero;"/>
        <path d="M775.321,267.986C773.988,267.986 773.032,267.624 772.454,266.901C771.876,266.177 771.587,265.117 771.587,263.721L771.587,258.94C771.587,258.252 771.652,257.656 771.782,257.151C771.912,256.645 772.122,256.208 772.411,255.838C772.7,255.468 773.087,255.191 773.571,255.006C774.055,254.821 774.639,254.729 775.321,254.729C776.649,254.729 777.603,255.085 778.184,255.799C778.765,256.512 779.055,257.559 779.055,258.94L779.055,263.721C779.055,264.398 778.989,264.993 778.856,265.506C778.723,266.019 778.512,266.464 778.223,266.842C777.934,267.22 777.547,267.505 777.063,267.697C776.579,267.89 775.998,267.986 775.321,267.986ZM774.727,266.135C774.894,266.203 775.092,266.236 775.321,266.236C775.55,266.236 775.745,266.203 775.907,266.135C776.068,266.067 776.197,265.979 776.294,265.869C776.39,265.76 776.465,265.617 776.52,265.44C776.575,265.262 776.611,265.085 776.629,264.908C776.648,264.731 776.657,264.52 776.657,264.276L776.657,258.393C776.657,258.08 776.641,257.82 776.61,257.611C776.579,257.403 776.518,257.206 776.426,257.022C776.335,256.837 776.199,256.699 776.016,256.608C775.834,256.516 775.602,256.471 775.321,256.471C775.04,256.471 774.807,256.516 774.622,256.608C774.437,256.699 774.3,256.837 774.212,257.022C774.123,257.206 774.063,257.403 774.032,257.611C774.001,257.82 773.985,258.08 773.985,258.393L773.985,264.276C773.985,264.52 773.994,264.731 774.012,264.908C774.031,265.085 774.067,265.262 774.122,265.44C774.176,265.617 774.251,265.76 774.344,265.869C774.438,265.979 774.566,266.067 774.727,266.135Z" style="fill:rgb(15,60,91);fill-rule:nonzero;"/>
        <path d="M785.605,267.83L785.605,254.877L787.965,254.877L787.965,260.291L790.597,260.291L790.597,254.877L792.957,254.877L792.957,267.83L790.597,267.83L790.597,261.971L787.965,261.971L787.965,267.83L785.605,267.83Z" style="fill:rgb(15,60,91);fill-rule:nonzero;"/>
        <path d="M799.718,267.83L799.718,254.877L801.343,254.877L804.515,262.213L804.515,254.877L806.468,254.877L806.468,267.83L804.921,267.83L801.718,260.119L801.718,267.83L799.718,267.83Z" style="fill:rgb(15,60,91);fill-rule:nonzero;"/>
        <path d="M814.471,267.83L814.471,256.619L812.299,256.619L812.299,254.877L818.932,254.877L818.932,256.619L816.83,256.619L816.83,267.83L814.471,267.83Z" style="fill:rgb(15,60,91);fill-rule:nonzero;"/>
        <path d="M828.005,268.002C826.781,268.002 825.9,267.619 825.361,266.854C824.822,266.088 824.552,264.973 824.552,263.51L824.552,259.291C824.552,258.546 824.611,257.904 824.728,257.365C824.845,256.826 825.042,256.354 825.318,255.947C825.594,255.541 825.974,255.236 826.458,255.033C826.943,254.83 827.537,254.729 828.24,254.729C829.521,254.729 830.44,255.042 830.997,255.67C831.555,256.298 831.833,257.249 831.833,258.526L831.833,259.158L829.576,259.158L829.576,258.486C829.576,258.2 829.569,257.966 829.556,257.783C829.543,257.601 829.512,257.417 829.462,257.233C829.413,257.048 829.341,256.906 829.247,256.807C829.154,256.708 829.026,256.627 828.865,256.565C828.703,256.502 828.505,256.471 828.271,256.471C828.094,256.471 827.936,256.493 827.798,256.537C827.66,256.581 827.544,256.636 827.451,256.701C827.357,256.766 827.277,256.859 827.212,256.979C827.147,257.098 827.098,257.214 827.064,257.326C827.03,257.438 827.004,257.583 826.986,257.76C826.968,257.937 826.956,258.093 826.951,258.229C826.945,258.364 826.943,258.539 826.943,258.752L826.943,263.979C826.943,264.76 827.039,265.331 827.232,265.693C827.425,266.055 827.792,266.236 828.333,266.236C828.615,266.236 828.85,266.183 829.04,266.076C829.231,265.97 829.379,265.808 829.486,265.592C829.593,265.376 829.668,265.128 829.712,264.85C829.757,264.571 829.779,264.234 829.779,263.838L829.779,262.776L828.38,262.776L828.38,261.252L831.904,261.252L831.904,267.83L830.372,267.83L830.201,266.518C829.81,267.507 829.078,268.002 828.005,268.002Z" style="fill:rgb(15,60,91);fill-rule:nonzero;"/>
        <path d="M840.844,260.408L841.415,260.408C842.113,260.408 842.609,260.26 842.903,259.963C843.197,259.666 843.344,259.158 843.344,258.44C843.344,257.747 843.217,257.251 842.962,256.951C842.706,256.652 842.238,256.502 841.555,256.502L840.844,256.502L840.844,260.408ZM838.485,267.83L838.485,254.877L841.454,254.877C842.136,254.877 842.722,254.933 843.212,255.045C843.701,255.157 844.127,255.345 844.489,255.608C844.851,255.871 845.122,256.227 845.301,256.678C845.481,257.128 845.571,257.679 845.571,258.33C845.571,259.143 845.45,259.807 845.208,260.322C844.965,260.838 844.566,261.213 844.008,261.447L845.805,267.83L843.438,267.83L841.891,261.916L840.844,261.916L840.844,267.83L838.485,267.83Z" style="fill:rgb(15,60,91);fill-rule:nonzero;"/>
        <path d="M854.496,263.283L856.23,263.283L855.363,257.963L854.496,263.283ZM851.488,267.83L854.121,254.877L856.582,254.877L859.207,267.83L857.012,267.83L856.488,264.822L854.246,264.822L853.715,267.83L851.488,267.83Z" style="fill:rgb(15,60,91);fill-rule:nonzero;"/>
        <path d="M866.71,267.83L866.71,262.901L864.069,254.877L866.272,254.877L867.874,260.033L869.405,254.877L871.585,254.877L868.96,262.901L868.96,267.83L866.71,267.83Z" style="fill:rgb(15,60,91);fill-rule:nonzero;"/>
        <rect x="877.065" y="265.666" width="2.125" height="2.164" style="fill:rgb(15,60,91);fill-rule:nonzero;"/>
        <path d="M888.997,267.986C888.44,267.986 887.948,267.916 887.521,267.776C887.094,267.635 886.741,267.44 886.462,267.19C886.184,266.94 885.957,266.63 885.783,266.26C885.608,265.89 885.486,265.493 885.415,265.068C885.345,264.644 885.31,264.166 885.31,263.635L885.31,259.119C885.31,258.557 885.346,258.058 885.419,257.623C885.492,257.188 885.615,256.785 885.787,256.412C885.958,256.04 886.184,255.734 886.462,255.494C886.741,255.255 887.093,255.067 887.517,254.932C887.941,254.796 888.435,254.729 888.997,254.729C889.643,254.729 890.195,254.815 890.654,254.986C891.112,255.158 891.474,255.411 891.74,255.744C892.005,256.078 892.198,256.467 892.318,256.912C892.438,257.358 892.497,257.877 892.497,258.471L892.497,259.58L890.224,259.58L890.224,258.479C890.224,257.833 890.19,257.398 890.122,257.174C889.987,256.736 889.656,256.502 889.13,256.471C889.089,256.471 889.047,256.471 889.005,256.471C888.807,256.471 888.634,256.494 888.486,256.541C888.337,256.588 888.216,256.662 888.122,256.764C888.029,256.865 887.953,256.973 887.896,257.088C887.839,257.203 887.796,257.352 887.767,257.537C887.738,257.722 887.72,257.893 887.712,258.049C887.704,258.205 887.701,258.403 887.701,258.643L887.701,264.127C887.701,264.887 887.796,265.429 887.986,265.752C888.176,266.075 888.516,266.236 889.005,266.236C889.172,266.236 889.319,266.217 889.447,266.178C889.574,266.139 889.681,266.089 889.767,266.029C889.853,265.97 889.926,265.884 889.986,265.772C890.046,265.66 890.091,265.555 890.122,265.459C890.154,265.363 890.177,265.229 890.193,265.057C890.208,264.885 890.218,264.739 890.22,264.619C890.223,264.499 890.224,264.335 890.224,264.127L890.224,262.971L892.497,262.971L892.497,264.033C892.497,264.518 892.464,264.953 892.396,265.338C892.328,265.723 892.212,266.085 892.048,266.424C891.884,266.762 891.672,267.044 891.412,267.268C891.151,267.492 890.818,267.667 890.412,267.795C890.005,267.923 889.534,267.986 888.997,267.986Z" style="fill:rgb(15,60,91);fill-rule:nonzero;"/>
        <path d="M902.454,267.986C901.12,267.986 900.165,267.624 899.587,266.901C899.008,266.177 898.719,265.117 898.719,263.721L898.719,258.94C898.719,258.252 898.784,257.656 898.915,257.151C899.045,256.645 899.254,256.208 899.544,255.838C899.833,255.468 900.219,255.191 900.704,255.006C901.188,254.821 901.771,254.729 902.454,254.729C903.782,254.729 904.736,255.085 905.317,255.799C905.898,256.512 906.188,257.559 906.188,258.94L906.188,263.721C906.188,264.398 906.122,264.993 905.989,265.506C905.856,266.019 905.645,266.464 905.356,266.842C905.067,267.22 904.68,267.505 904.196,267.697C903.712,267.89 903.131,267.986 902.454,267.986ZM901.86,266.135C902.027,266.203 902.225,266.236 902.454,266.236C902.683,266.236 902.878,266.203 903.04,266.135C903.201,266.067 903.33,265.979 903.426,265.869C903.523,265.76 903.598,265.617 903.653,265.44C903.708,265.262 903.744,265.085 903.762,264.908C903.781,264.731 903.79,264.52 903.79,264.276L903.79,258.393C903.79,258.08 903.774,257.82 903.743,257.611C903.712,257.403 903.65,257.206 903.559,257.022C903.468,256.837 903.331,256.699 903.149,256.608C902.967,256.516 902.735,256.471 902.454,256.471C902.172,256.471 901.939,256.516 901.754,256.608C901.57,256.699 901.433,256.837 901.344,257.022C901.256,257.206 901.196,257.403 901.165,257.611C901.133,257.82 901.118,258.08 901.118,258.393L901.118,264.276C901.118,264.52 901.127,264.731 901.145,264.908C901.163,265.085 901.2,265.262 901.254,265.44C901.309,265.617 901.383,265.76 901.477,265.869C901.571,265.979 901.699,266.067 901.86,266.135Z" style="fill:rgb(15,60,91);fill-rule:nonzero;"/>
        <path d="M912.691,267.83L912.902,254.877L915.324,254.877L917.199,263.979L919.129,254.877L921.496,254.877L921.715,267.83L919.933,267.83L919.777,258.908L917.91,267.83L916.527,267.83L914.637,258.877L914.496,267.83L912.691,267.83Z" style="fill:rgb(15,60,91);fill-rule:nonzero;"/>
    </g>
    <g transform="matrix(1,0,0,1,-257.471,-108.206)">
        <path d="M323.47,269.52L323.47,259.284C327.751,259.316 330.6,258.673 332.016,257.353C333.433,256.033 334.141,253.313 334.141,249.193L334.141,187.778L348.722,187.778L348.674,249.531C348.641,253.04 348.344,255.993 347.78,258.391C347.217,260.789 346.251,262.849 344.883,264.571C343.515,266.293 341.649,267.549 339.283,268.337C336.917,269.126 333.98,269.52 330.471,269.52L323.47,269.52Z" style="fill:rgb(15,60,91);fill-rule:nonzero;"/>
        <path d="M407.24,268.796C399,268.796 393.093,266.559 389.52,262.085C385.948,257.61 384.161,251.06 384.161,242.434L384.161,212.885C384.161,208.636 384.564,204.95 385.368,201.828C386.173,198.706 387.468,196.002 389.255,193.717C391.041,191.431 393.431,189.717 396.425,188.575C399.418,187.432 403.023,186.861 407.24,186.861C415.448,186.861 421.347,189.066 424.936,193.475C428.525,197.885 430.319,204.355 430.319,212.885L430.319,242.434C430.319,246.618 429.909,250.296 429.088,253.466C428.267,256.637 426.963,259.389 425.177,261.722C423.391,264.056 421.001,265.818 418.007,267.009C415.014,268.2 411.425,268.796 407.24,268.796ZM403.571,257.353C404.601,257.771 405.824,257.981 407.24,257.981C408.656,257.981 409.863,257.771 410.861,257.353C411.859,256.934 412.656,256.387 413.251,255.711C413.847,255.035 414.313,254.15 414.651,253.056C414.989,251.961 415.215,250.867 415.327,249.773C415.44,248.678 415.496,247.375 415.496,245.862L415.496,209.505C415.496,207.574 415.4,205.964 415.207,204.677C415.014,203.389 414.635,202.174 414.072,201.032C413.509,199.889 412.664,199.036 411.537,198.473C410.411,197.909 408.978,197.628 407.24,197.628C405.502,197.628 404.062,197.909 402.919,198.473C401.776,199.036 400.931,199.889 400.384,201.032C399.837,202.174 399.467,203.389 399.274,204.677C399.08,205.964 398.984,207.574 398.984,209.505L398.984,245.862C398.984,247.375 399.04,248.678 399.153,249.773C399.265,250.867 399.491,251.961 399.829,253.056C400.167,254.15 400.625,255.035 401.205,255.711C401.784,256.387 402.573,256.934 403.571,257.353Z" style="fill:rgb(15,60,91);fill-rule:nonzero;"/>
        <path d="M465.855,267.83L465.855,187.778L480.436,187.778L480.436,221.238L496.707,221.238L496.707,187.778L511.289,187.778L511.289,267.83L496.707,267.83L496.707,231.618L480.436,231.618L480.436,267.83L465.855,267.83Z" style="fill:rgb(15,60,91);fill-rule:nonzero;"/>
        <path d="M548.128,267.83L548.128,187.778L558.171,187.778L577.773,233.115L577.773,187.778L589.844,187.778L589.844,267.83L580.284,267.83L560.488,220.176L560.488,267.83L548.128,267.83Z" style="fill:rgb(15,60,91);fill-rule:nonzero;"/>
        <path d="M683.222,267.83L683.222,198.545L669.799,198.545L669.799,187.778L710.791,187.778L710.791,198.545L697.803,198.545L697.803,267.83L683.222,267.83Z" style="fill:rgb(15,60,91);fill-rule:nonzero;"/>
        <path d="M810.784,268.892C803.22,268.892 797.772,266.527 794.44,261.795C791.109,257.063 789.443,250.175 789.443,241.13L789.443,215.058C789.443,210.455 789.805,206.487 790.529,203.156C791.254,199.825 792.469,196.903 794.175,194.393C795.881,191.882 798.23,189.999 801.224,188.744C804.217,187.488 807.887,186.861 812.232,186.861C820.151,186.861 825.832,188.8 829.276,192.679C832.72,196.557 834.442,202.44 834.442,210.326L834.442,214.237L820.489,214.237L820.489,210.085C820.489,208.314 820.448,206.866 820.368,205.739C820.287,204.613 820.094,203.478 819.789,202.335C819.483,201.193 819.04,200.315 818.461,199.704C817.881,199.092 817.093,198.593 816.095,198.207C815.097,197.821 813.874,197.628 812.425,197.628C811.331,197.628 810.357,197.764 809.504,198.038C808.651,198.312 807.935,198.65 807.356,199.052C806.776,199.454 806.286,200.026 805.883,200.766C805.481,201.506 805.175,202.223 804.966,202.915C804.757,203.607 804.596,204.5 804.483,205.594C804.37,206.689 804.298,207.654 804.266,208.491C804.234,209.328 804.217,210.406 804.217,211.726L804.217,244.027C804.217,248.855 804.813,252.388 806.004,254.625C807.195,256.862 809.464,257.981 812.812,257.981C814.55,257.981 816.006,257.651 817.181,256.991C818.356,256.331 819.274,255.333 819.933,253.997C820.593,252.661 821.06,251.133 821.334,249.41C821.607,247.688 821.744,245.604 821.744,243.158L821.744,236.592L813.101,236.592L813.101,227.176L834.877,227.176L834.877,267.83L825.413,267.83L824.351,259.719C821.937,265.835 817.415,268.892 810.784,268.892Z" style="fill:rgb(15,60,91);fill-rule:nonzero;"/>
        <path d="M885.187,221.962L888.712,221.962C893.025,221.962 896.091,221.045 897.909,219.21C899.728,217.375 900.637,214.237 900.637,209.795C900.637,205.514 899.849,202.448 898.271,200.597C896.694,198.746 893.797,197.821 889.581,197.821L885.187,197.821L885.187,221.962ZM870.606,267.83L870.606,187.778L888.953,187.778C893.17,187.778 896.791,188.124 899.817,188.816C902.842,189.508 905.474,190.667 907.711,192.292C909.948,193.918 911.622,196.123 912.732,198.907C913.843,201.691 914.398,205.095 914.398,209.119C914.398,214.14 913.649,218.244 912.153,221.431C910.656,224.617 908.185,226.935 904.741,228.384L915.846,267.83L901.217,267.83L891.657,231.28L885.187,231.28L885.187,267.83L870.606,267.83Z" style="fill:rgb(15,60,91);fill-rule:nonzero;"/>
        <path d="M964.611,239.73L975.33,239.73L969.971,206.85L964.611,239.73ZM946.023,267.83L962.294,187.778L977.503,187.778L993.726,267.83L980.158,267.83L976.923,249.241L963.066,249.241L959.783,267.83L946.023,267.83Z" style="fill:rgb(15,60,91);fill-rule:nonzero;"/>
        <path d="M1035.15,267.83L1035.15,237.364L1018.83,187.778L1032.45,187.778L1042.35,219.644L1051.81,187.778L1065.28,187.778L1049.06,237.364L1049.06,267.83L1035.15,267.83Z" style="fill:rgb(15,60,91);fill-rule:nonzero;"/>
    </g>
    <g transform="matrix(1.02433,2.59496e-17,2.52144e-17,1,-274.982,63.7558)">
        <rect x="284" y="161" width="822" height="6" style="fill:rgb(15,60,91);"/>
    </g>
    <g transform="matrix(1.02433,2.59496e-17,2.52144e-17,1,-274.982,182.812)">
        <rect x="284" y="161" width="822" height="6" style="fill:rgb(15,60,91);"/>
    </g>
    <path d="M6.928,6.928L355.928,6.928L355.928,14.928L14.928,14.928L14.928,405.756L858.928,405.756L858.928,14.928L517.928,14.928L517.928,6.928L866.928,6.928L866.928,413.756L6.928,413.756L6.928,6.928Z" style="fill:none;stroke:rgb(15,60,91);stroke-width:5.33px;"/>
    <g transform="matrix(0.52381,0,0,0.52381,-48.0718,-84.2147)">
        <rect x="105" y="174" width="21" height="21" style="fill:rgb(15,60,91);"/>
    </g>
    <g transform="matrix(0.52381,0,0,0.52381,-48.0718,311.113)">
        <rect x="105" y="174" width="21" height="21" style="fill:rgb(15,60,91);"/>
    </g>
    <g transform="matrix(0.52381,0,0,0.52381,800.428,-83.7147)">
        <rect x="105" y="174" width="21" height="21" style="fill:rgb(15,60,91);"/>
    </g>
    <g transform="matrix(0.52381,0,0,0.52381,800.428,311.113)">
        <rect x="105" y="174" width="21" height="21" style="fill:rgb(15,60,91);"/>
    </g>
</svg>
