<?xml version="1.0" encoding="UTF-8" standalone="no"?><!DOCTYPE svg PUBLIC "-//W3C//DTD SVG 1.1//EN" "http://www.w3.org/Graphics/SVG/1.1/DTD/svg11.dtd"><svg width="100%" height="100%" viewBox="0 0 304 125" version="1.1" xmlns="http://www.w3.org/2000/svg" xmlns:xlink="http://www.w3.org/1999/xlink" xml:space="preserve" style="fill-rule:evenodd;clip-rule:evenodd;stroke-linejoin:round;stroke-miterlimit:1.41421;"><path d="M66.853,83.265c0.159,-0.55 -0.165,-0.744 -0.523,-1.047c-0.329,0.341 -0.8,0.022 -1.545,0.237c0.866,0.339 1.454,0.57 2.068,0.81M228.855,4.843c0.012,-0.43 0.203,-0.801 -0.263,-1.226c-0.851,1.124 -1.756,2.167 -2.269,3.521c1.355,-0.271 1.596,-1.679 2.532,-2.295M79.454,73.44c-0.008,-0.055 -0.09,-0.099 -0.143,-0.155c-0.347,0.029 -0.544,0.167 -0.418,0.569c0.444,0.202 0.622,0.051 0.561,-0.414M55.585,91.175c-0.832,-0.306 -0.888,-0.272 -1.019,0.798c0.525,-0.205 0.912,-0.297 1.019,-0.798M53.138,90.603c1.056,-0.176 1.785,-0.249 2.301,-1.28c-0.994,0.089 -1.837,0.004 -2.301,1.28M85.367,82.679c-0.552,0.12 -1.01,0.23 -0.507,1.016c0.516,-0.21 0.714,-0.484 0.507,-1.016M62.477,69.551c0.311,-0.222 0.622,-0.445 0.922,-0.659c-0.114,-0.314 -0.33,-0.334 -0.594,-0.354c-0.162,0.286 -0.33,0.585 -0.498,0.884c0.057,0.043 0.113,0.086 0.17,0.129M46.385,57.209c0.961,0.392 1.364,-0.3 2.126,-0.849c-1.159,-0.365 -1.747,-0.099 -2.126,0.849M25.476,38.02c0.33,-0.287 0.796,-0.441 0.403,-1.132c-0.602,0.56 -1.444,-0.009 -2.261,0.605c0.653,0.534 1.345,0.216 1.858,0.527M73.329,65.802c1.161,-0.141 2.393,0.048 3.479,-0.768c-1.374,-0.398 -2.388,0.336 -3.479,0.768M58.716,63.043c-1.288,0.19 -2.308,0.38 -3.022,1.314c1.163,0.126 2.234,0.036 3.022,-1.314M58.624,52.197c-2.168,0.075 -4.376,-0.141 -6.384,0.887c2.176,-0.061 4.336,-0.125 6.384,-0.887M22.924,37.76c-1.899,-0.502 -6.109,0.782 -6.663,1.993c2.342,-0.321 4.142,-1.695 6.663,-1.993M14.598,34.711c-2.421,-0.266 -5.108,0.991 -5.327,2.431l1.761,0c-0.086,-0.306 -0.162,-0.57 -0.25,-0.883c1.225,-0.668 2.742,-0.347 3.816,-1.548M50.457,53.047c-0.141,-0.067 -0.284,-0.199 -0.38,-0.17c-2.466,0.707 -4.929,1.428 -7.389,2.159c-0.42,0.124 -0.6,0.405 -0.341,0.921c0.471,0.024 7.82,-2.598 8.11,-2.91M32.378,40.99c-2.408,-1.209 -10.535,-0.026 -11.797,1.862c3.874,-1.029 7.723,-2.168 11.797,-1.862M28.815,38.802c-3.863,-0.621 -7.298,0.721 -11.145,1.44c0.623,0.545 10.667,-0.972 11.145,-1.44M38.121,43.681c-0.797,-0.058 -1.594,-0.121 -2.392,-0.173c-3.554,-0.233 -6.839,1.08 -10.227,1.804c-0.346,0.074 -0.699,0.296 -0.42,0.92c2.063,-0.964 4.455,-0.649 6.49,-1.691c2.121,-1.085 4.451,0.292 6.573,-0.514c-0.007,-0.116 -0.015,-0.231 -0.024,-0.346M36.202,51.241c0.154,0.071 0.336,0.238 0.464,0.203c4.107,-1.117 8.23,-2.148 12.812,-2.273c-2.297,-1.065 -12.719,0.668 -13.276,2.07M40.932,47.844c-2.973,0.37 -5.959,0.658 -8.784,1.765c-0.431,0.169 -0.956,0.251 -0.809,1.338c4.401,-2.511 9.399,-1.956 13.978,-3.364c-1.515,-0.334 -2.939,0.08 -4.385,0.261M28.256,48.629c5.064,-1.735 10.001,-2.918 15.183,-2.541c-2.133,-1.745 -14.318,0.637 -15.183,2.541M36,42.508c0.012,-0.427 -0.143,-0.519 -0.309,-0.607c-0.758,-0.402 -1.5,0.121 -2.273,0.023c-1.868,-0.238 -3.692,0.315 -5.542,0.465c-1.625,0.133 -2.999,1.169 -4.612,1.419c-0.55,0.086 -0.823,0.467 -0.341,1.165c4.141,-1.898 8.543,-2.653 13.077,-2.465M48.633,56.798c4.724,-2.055 9.527,-2.026 14.236,-2.603c-2.334,-1.205 -13.565,0.648 -14.236,2.603M74.162,59.607c-0.831,0.026 -1.293,-0.492 -1.919,-1.178c0.317,1.01 -0.098,1.305 -0.787,1.39c-2.951,0.362 -5.823,1.122 -8.718,1.758c-1.087,0.239 -2.094,0.717 -2.895,1.568c5.365,-1.744 10.894,-2.588 16.683,-3.293c-0.934,-0.754 -1.666,-0.267 -2.364,-0.245M65.539,58.795c-3.529,0.763 -7.182,1.163 -10.479,2.818c-0.451,0.226 -0.941,0.4 -0.759,1.332c2.677,-1.354 5.322,-2.396 8.232,-2.736c2.885,-0.338 5.734,-0.995 8.428,-1.481c-1.714,0 -3.643,-0.317 -5.422,0.067M45.353,50.783c-1.91,0.413 -6.096,1.702 -6.32,2.352c5.688,-1.5 11.414,-2.761 17.341,-2.856c-1.359,-0.749 -3.243,0.04 -4.143,-1.803c-0.65,0.16 -1.258,-0.43 -1.964,-0.099c0.342,0.726 1.159,0.336 1.748,1.056c-2.11,1.327 -4.494,0.878 -6.662,1.35M78.759,61.39c-2.067,-1.099 -20.41,3.211 -21.301,5.086c7.09,-2.365 14.089,-4.171 21.301,-5.086M81.214,62.778c-1.349,-0.495 -2.722,-0.244 -4.026,0.037c-4.708,1.015 -9.406,2.088 -14.075,3.267c-1.004,0.254 -2.084,0.6 -2.973,1.242c0.231,0.607 0.531,0.695 0.984,0.422c1.656,-1 3.565,-1.454 5.375,-1.825c3.78,-0.774 7.517,-1.747 11.317,-2.425c1.14,-0.203 2.382,-0.003 3.414,-0.727c0,0 -0.012,0.005 -0.016,0.009M60.152,55.869c-3.736,0.604 -7.425,1.487 -10.997,2.785c-0.566,0.205 -0.776,0.558 -0.757,1.26c4.934,-2.095 9.97,-3.165 15.125,-3.676c0.044,0.179 0.087,0.358 0.13,0.537c-3.227,0.76 -6.454,1.519 -9.683,2.278c0.04,0.184 0.08,0.369 0.119,0.553c2.476,0.035 4.747,-1.139 7.146,-1.564c2.485,-0.443 5.048,-0.195 7.522,-0.851c-1.467,-0.498 -3.052,-0.056 -4.556,-0.555c0.318,-0.688 0.84,-0.757 1.094,-0.815c-1.568,0 -3.398,-0.235 -5.143,0.048M151.222,53.778c-0.344,0.25 -0.553,0.448 -0.272,0.879c0.371,-0.197 0.5,-0.423 0.272,-0.879M114.342,90.164c0.405,0.057 0.583,-0.075 0.577,-0.63c-0.523,-0.046 -0.715,0.099 -0.577,0.63M111.856,91.519c0.404,0.119 0.586,-0.065 0.647,-0.551c-0.594,0 -0.594,0 -0.647,0.551M129.549,84.902c-0.392,0.098 -0.505,0.342 -0.354,0.8c0.789,-0.195 0.789,-0.195 0.354,-0.8M159.814,66.973c-0.567,0.246 -0.771,0.577 -0.442,1.26c0.467,-0.384 0.629,-0.731 0.442,-1.26M141.597,55.427c-0.545,0.322 -0.635,0.673 -0.163,1.282c0.348,-0.494 0.731,-0.815 0.163,-1.282M123.381,86.002c-0.18,-0.2 -0.345,-0.398 -0.665,-0.245c-0.29,0.333 -0.198,0.622 0.135,0.901c0.346,-0.095 0.572,-0.266 0.53,-0.656M126.01,85.723c-0.036,0.348 0.193,0.512 0.55,0.513c0.429,-0.249 0.479,-0.562 0.157,-0.943c-0.399,-0.103 -0.668,0.032 -0.707,0.43M129.648,55.704c-0.384,-0.276 -0.669,-0.139 -0.934,0.22c-0.025,0.35 0.105,0.6 0.558,0.681c0.339,-0.185 0.613,-0.416 0.376,-0.901M145.428,54.401c-0.573,0.244 -1.058,0.492 -0.983,1.249c0.943,-0.272 0.943,-0.272 0.983,-1.249M109.552,91.973c-0.065,0.527 0.08,0.892 0.709,1.069c0.382,-0.879 0.325,-0.961 -0.709,-1.069M131.79,58.408c-0.758,0.082 -1.162,0.357 -1.107,1.332c0.753,-0.269 1.072,-0.624 1.107,-1.332M107.525,95.494c-0.004,-0.973 -0.142,-1.079 -1.114,-0.763c0.418,0.708 0.418,0.708 1.114,0.763M138.174,56.499c-0.873,0.317 -1.421,0.686 -1.288,1.678c0.717,-0.363 1.05,-0.891 1.288,-1.678M176.627,54.969c0.605,-0.569 0.919,-1.027 0.921,-1.873c-0.781,0.475 -1.069,0.959 -0.921,1.873M119.637,86.815c-0.194,0.274 -0.407,0.539 -0.106,0.917c0.538,0.042 0.97,-0.093 1.197,-0.718c-0.394,-0.403 -0.732,-0.374 -1.091,-0.199M116.774,88.85c0.372,0.083 0.745,0.109 0.911,-0.418c-0.195,-0.409 -0.523,-0.592 -1.015,-0.655c-0.269,0.413 -0.275,0.737 0.104,1.073M107.757,93.134c-0.09,0.885 0.446,1.091 1.28,1.3c0.114,-1.136 -0.363,-1.397 -1.28,-1.3M159.842,52.882c-0.668,0.866 -0.79,1.715 -0.741,2.614c0.211,-0.824 1.441,-1.351 0.741,-2.614M118.083,61.981c-1.251,0.263 -1.538,0.788 -0.84,1.64c0.614,-0.434 0.96,-0.903 0.84,-1.64M103.082,66.273c0.929,-0.546 1.169,-1.264 1.512,-2.358c-1.031,0.661 -1.624,1.174 -1.512,2.358M105.922,97.613c0.442,0.107 0.646,-0.234 0.514,-0.77c-0.599,-0.1 -1.007,-0.77 -1.876,-0.643c0.064,0.946 0.703,1.251 1.362,1.413M157.609,53.834c-0.689,1.162 -1.264,2.106 -1.19,3.291c0.288,-1.057 1.591,-1.732 1.19,-3.291M104.764,66.41c1.322,-0.557 1.714,-1.399 1.89,-2.427c-0.828,0.483 -1.562,1.052 -1.89,2.427M153.88,58.188c0.659,-1.232 1.738,-2.315 1.325,-3.9c-0.545,1.273 -1.574,2.382 -1.325,3.9M109.256,63.879c-1.521,0.653 -3.017,2.928 -2.668,4.177c0.748,-1.542 2.059,-2.515 2.668,-4.177M152.397,55.272c-0.945,1.208 -0.911,2.704 -1.769,4.063c1.441,-0.619 2.243,-2.61 1.769,-4.063M146.485,60.5c1.335,-1.418 1.03,-2.942 1.188,-4.347c-0.932,1.208 -1.183,2.586 -1.188,4.347M178.391,50.12c0.94,-1.441 2.069,-2.793 2.164,-4.617c-1.164,1.345 -1.736,2.949 -2.164,4.617M160.752,56.602c1.325,-1.057 1.262,-2.716 1.733,-4.146c-1.339,1.065 -1.571,2.59 -1.733,4.146M197.252,44.034c0.702,-1.673 1.356,-3.231 2.009,-4.79c-1.347,0.636 -2.591,3.786 -2.009,4.79M139.26,84.169c1.624,0.034 2.52,1.694 4.13,1.742c-0.825,-1.516 -3.033,-2.444 -4.13,-1.742M185.995,49.203c1.467,-1.745 1.942,-3.939 2.745,-5.986c-1.712,1.633 -2.13,3.855 -2.745,5.986M156.963,76.504c1.382,-1.989 1.417,-4.34 1.857,-6.582c-1.41,1.981 -1.518,4.312 -1.857,6.582M100.711,68.472c0.416,0.034 0.77,0.226 1.153,-0.273c-0.771,-0.808 -1.266,-1.759 -0.566,-2.97c-0.312,0.105 -0.439,0.231 -0.592,0.31c-0.15,0.076 -0.326,0.105 -0.465,0.149c-0.887,-1.053 -0.887,-1.053 -1.66,-1.203c0.21,1.637 1.661,2.543 2.13,3.987M177.982,47.014c-1.102,0.581 -3.326,6.485 -2.886,7.509c1.151,-2.513 2.05,-4.855 2.886,-7.509M201.641,37.754c-1.613,2.109 -2.322,4.633 -3.066,7.154c1.43,-2.19 2.342,-4.629 3.066,-7.154M200.836,43.984c1.624,-2.24 2.682,-4.712 3.309,-7.515c-0.695,0.083 -0.853,0.496 -1.001,0.837c-0.392,0.904 -0.771,1.82 -1.071,2.758c-0.417,1.301 -1.467,2.407 -1.223,3.914c0,0 -0.018,0.01 -0.014,0.006M183.42,44.995c-1.14,0.43 -4.621,9.248 -4.223,10.929c1.555,-3.769 3.124,-7.19 4.223,-10.929M135.702,85.711c0.467,0.408 1.009,0.683 1.44,-0.112c-0.012,-0.361 -0.707,-0.553 -0.227,-1.083c0.502,0.314 1.013,0.63 1.522,0.951c0.99,0.622 0.989,0.623 1.395,0.225c-0.546,-0.899 -2.793,-2.093 -3.687,-1.957c-0.334,0.127 -0.165,0.666 -0.752,0.738c-1.301,-0.547 -2.689,-0.105 -4.12,0.4c0.651,0.276 1.303,0.552 2.085,0.883c0.793,-0.816 1.552,-0.738 2.344,-0.045M0.504,37.006c-0.342,0.467 -0.564,0.893 -0.083,1.515c0.757,-0.873 0.757,-0.873 0.083,-1.515M246.181,100.4c-1.596,0.602 -1.596,0.602 -1.473,1.521c0.598,0.188 1.012,-0.279 1.558,-0.428c0.183,-0.643 0.183,-0.643 -0.085,-1.093M280.885,110.228c1.742,-1.232 3.872,-1.357 5.403,-2.715c-2.039,-0.212 -5.334,1.438 -5.403,2.715M266.908,105.887c-0.529,0.2 -0.847,0.456 -0.372,1.087c2.053,-0.244 3.665,-1.606 5.57,-2.212c0.196,-0.27 0.212,-0.537 -0.042,-0.85c-1.76,0.675 -3.457,1.33 -5.156,1.975M275.806,108.925c1.636,0.294 6.442,-1.506 6.72,-2.568c-2.388,0.59 -4.633,0.955 -6.72,2.568M279.057,105.237c-2.468,0.579 -4.782,1.213 -7.103,2.738c1.221,0.499 6.77,-1.789 7.103,-2.738M296.009,111.574c-1.905,-0.106 -5.807,1.576 -7.488,3.275c1.198,0.184 7.301,-2.547 7.488,-3.275M268.706,102.933c-0.251,0.209 -0.503,0.416 -0.778,0.643c-1.199,-0.274 -1.885,0.798 -2.813,1.229c-0.404,-0.716 1.005,-0.852 0.175,-1.719c-1.201,1.679 -3.269,1.731 -5.24,2.659c1.297,1.045 2.207,0 3.06,-0.105c0.397,0.155 0.281,0.705 0.909,0.683c1.227,-0.611 2.615,-1.262 3.956,-1.996c0.498,-0.272 0.724,-0.817 0.706,-1.418l0.025,0.024ZM288.529,112.345c2.134,-0.772 4.273,-1.677 6.549,-2.073c0.476,-0.083 1.002,-0.317 0.929,-0.993c-0.367,-0.279 -0.719,-0.173 -1.069,-0.044c-0.788,0.29 -1.565,0.609 -2.362,0.87c-2.648,0.868 -5.303,1.711 -7.95,2.575c-0.493,0.161 -0.99,0.356 -0.882,1.355c1.541,-1 3.222,-1.126 4.785,-1.69M82.53,77.853c-0.488,-0.256 -0.665,-0.111 -0.686,0.352c0.384,0.272 0.556,0.123 0.686,-0.352M170.53,87.036c-0.346,-0.278 -0.587,-0.294 -0.756,0.065c-0.023,0.049 0.025,0.131 0.044,0.211c0.307,0.191 0.522,0.09 0.712,-0.276M211.153,40.681c0.27,-0.396 0.278,-0.663 -0.221,-0.878c-0.334,0.408 -0.312,0.668 0.221,0.878M63.191,73.94c-0.452,0.183 -0.609,0.381 -0.36,0.788c0.423,-0.07 0.503,-0.292 0.36,-0.788M137.481,67.416c-0.057,0.5 0.075,0.714 0.566,0.674c0.154,-0.464 0.063,-0.706 -0.566,-0.674M73.3,93.372c0.376,-0.225 0.603,-0.405 0.372,-0.837c-0.382,0.156 -0.62,0.314 -0.372,0.837M219.178,12.107c0.315,0.336 0.565,0.385 0.79,0.002c0.026,-0.046 -0.017,-0.134 -0.029,-0.209c-0.279,-0.207 -0.514,-0.178 -0.761,0.207M132.679,99.557c-0.503,0.258 -0.595,0.508 -0.121,0.896c0.366,-0.22 0.582,-0.425 0.121,-0.896M57.775,96.755c0.421,-0.208 0.671,-0.368 0.502,-0.834c-0.384,0.101 -0.649,0.228 -0.502,0.834M134.768,65.742c0.534,0.005 0.601,-0.253 0.455,-0.632c-0.019,-0.051 -0.114,-0.074 -0.182,-0.113c-0.369,0.095 -0.419,0.334 -0.273,0.745M269.55,117.544c0.275,0.253 0.501,0.237 0.667,-0.103c0.019,-0.04 -0.047,-0.123 -0.078,-0.197c-0.328,-0.178 -0.525,-0.094 -0.589,0.3M76.743,79.768c-0.227,0.41 -0.262,0.675 0.227,0.919c0.056,-0.352 0.183,-0.613 -0.227,-0.919M68.223,93.016c-0.472,0.336 -0.453,0.608 -0.043,0.922c0.303,-0.264 0.375,-0.521 0.043,-0.922M196.586,49.858c-0.23,0.39 -0.242,0.664 0.167,0.976c0.271,-0.387 0.359,-0.669 -0.167,-0.976M118.963,111.991c-0.286,-0.519 -0.487,-0.671 -0.865,-0.2c0.203,0.315 0.405,0.33 0.865,0.2M14.39,32.336c0.312,0.273 0.555,0.436 0.863,-0.059c-0.301,-0.366 -0.544,-0.444 -0.863,0.059M153.057,109.212c-0.181,0.486 -0.196,0.796 0.361,0.888c0.279,-0.406 0.213,-0.669 -0.361,-0.888M105.169,74.06c-0.147,0.472 -0.113,0.774 0.095,1.124c0.317,-0.407 0.311,-0.711 -0.095,-1.124M117.374,101.145c-0.448,0.135 -0.729,0.235 -0.55,0.705c0.445,0.052 0.578,-0.165 0.55,-0.705M103.871,80.427c0.246,-0.544 0.512,-0.841 0.079,-1.322c-0.232,0.375 -0.398,0.666 -0.079,1.322M149.891,92.174c-0.596,-0.023 -0.778,0.198 -0.56,0.704c0.033,0.077 0.162,0.11 0.241,0.161c0.294,-0.188 0.427,-0.415 0.319,-0.865M223.603,12.292c0.547,-0.001 0.823,-0.124 0.78,-0.647c-0.525,-0.15 -0.68,0.115 -0.78,0.647M154.653,60.182c-0.426,0.11 -0.65,0.253 -0.775,0.594c0.457,0.125 0.715,0.026 0.775,-0.594M211.246,26.117c-0.333,0.479 -0.659,0.73 -0.614,1.329c0.386,-0.376 0.876,-0.516 0.614,-1.329M228.859,9.385c-0.589,0.017 -0.782,0.241 -0.713,0.758c0.528,0.03 0.773,-0.137 0.713,-0.758M218.276,16.117c0.479,-0.289 0.672,-0.528 0.396,-0.991c-0.521,0.113 -0.617,0.387 -0.396,0.991M58.357,77.434c0.527,-0.196 0.724,-0.442 0.718,-0.952c-0.526,0.06 -0.657,0.363 -0.718,0.952M229.631,14.993c-0.604,0.382 -0.604,0.382 -0.02,0.855c0.235,-0.285 0.259,-0.562 0.02,-0.855M56.552,98.033c0.472,0.642 0.472,0.642 0.802,-0.097c-0.255,-0.211 -0.497,-0.256 -0.802,0.097M71.107,81.218c0.399,0.061 0.648,-0.083 0.637,-0.499c-0.008,-0.263 -0.208,-0.351 -0.53,-0.305c-0.171,0.219 -0.335,0.467 -0.107,0.804M103.183,82.789c0.498,-0.565 0.498,-0.565 0.191,-1.128c-0.332,0.3 -0.448,0.618 -0.191,1.128M227.044,15.943c0.432,-0.086 0.643,-0.294 0.338,-0.727c-0.112,-0.159 -0.315,-0.143 -0.501,-0.022c-0.167,0.272 -0.17,0.523 0.163,0.749M221.811,12.007c-0.681,0.102 -0.701,0.403 -0.413,0.92c0.425,-0.172 0.637,-0.374 0.413,-0.92M88.586,107.194c-0.26,0.496 -0.385,0.821 0.082,1.199c0.427,-0.339 0.413,-0.651 -0.082,-1.199M77.133,90.902c0.646,-0.145 0.743,-0.417 0.429,-0.955c-0.375,0.231 -0.585,0.434 -0.429,0.955M77.52,100.591c0.731,-0.052 0.72,-0.422 0.661,-1.028c-0.519,0.239 -0.748,0.455 -0.661,1.028M66.545,89.318c-0.824,0.254 -0.824,0.254 -0.403,0.865c0.358,-0.142 0.431,-0.429 0.403,-0.865M146.816,64.72c0.819,0.179 1.015,-0.16 1.18,-0.831c-0.594,0.097 -0.893,0.295 -1.18,0.831M67.7,89.657c0.287,-0.372 0.377,-0.672 -0.05,-1.176c-0.189,0.448 -0.608,0.72 0.05,1.176M153.444,63.22c0.612,-0.089 0.775,-0.335 0.537,-0.866c-0.438,0.108 -0.699,0.276 -0.537,0.866M154.494,93.188c-0.426,0.418 -0.606,0.737 -0.298,1.305c0.421,-0.347 0.719,-0.616 0.298,-1.305M226.345,14.093c0.576,-0.173 0.96,-0.297 0.785,-0.934c-0.544,0.004 -0.765,0.252 -0.785,0.934M209.533,39.687c-0.432,0.079 -0.684,0.279 -0.574,0.666c0.081,0.284 0.31,0.483 0.672,0.307c0.142,-0.311 0.119,-0.61 -0.098,-0.973M75.052,72.323c0.539,-0.409 0.681,-0.736 0.108,-1.222c-0.322,0.356 -0.5,0.661 -0.108,1.222M73.915,84.731c-0.898,-0.051 -0.898,-0.051 -0.935,0.832c0.43,-0.206 0.838,-0.298 0.935,-0.832M119.864,113.591c0.526,0.075 0.775,-0.071 0.719,-0.636c-0.662,-0.245 -0.796,0.032 -0.719,0.636M115.603,111.717c0.343,0.47 0.59,0.702 1.077,0.534c-0.008,-0.754 -0.399,-0.735 -1.077,-0.534M96.235,68.205c-0.806,0.003 -0.877,0.356 -0.674,0.934c0.593,-0.026 0.702,-0.36 0.674,-0.934M202.652,46.69c-0.818,0.068 -0.818,0.068 -0.62,0.987c0.452,-0.206 0.671,-0.49 0.62,-0.987M228.893,29.008c-0.881,-0.058 -0.893,-0.039 -0.563,0.883c0.427,-0.092 0.579,-0.373 0.563,-0.883M72.726,74.152c0.161,-0.437 0.303,-0.76 -0.171,-0.973c-0.563,0.545 -0.563,0.545 0.171,0.973M129.629,90.997c0.035,0.476 -0.011,0.825 0.422,0.983c0.558,-0.605 0.558,-0.605 -0.422,-0.983M91.925,79.713c0.444,-0.548 0.499,-0.912 -0.173,-1.298c-0.379,0.491 -0.475,0.841 0.173,1.298M161.534,61.193c0.385,0.011 0.649,-0.108 0.635,-0.47c-0.014,-0.37 -0.227,-0.599 -0.663,-0.522c-0.325,0.297 -0.313,0.605 0.028,0.992M91.288,72.341c0.321,-0.716 0.035,-0.989 -0.514,-1.224c-0.325,0.597 -0.134,0.917 0.514,1.224M82.78,101.555c0.442,-0.615 0.159,-0.915 -0.418,-1.415c-0.042,0.705 -0.097,1.116 0.418,1.415M92.841,104.345c-0.21,0.388 -0.264,0.712 0.076,1.003c0.427,-0.015 0.665,-0.218 0.715,-0.624c-0.149,-0.327 -0.403,-0.407 -0.791,-0.379M151.203,95.964c0.376,-0.305 0.379,-0.66 0.153,-0.988c-0.171,-0.248 -0.437,-0.234 -0.698,0.035c-0.041,0.42 -0.046,0.834 0.545,0.953M149.743,93.476c-0.438,0.391 -0.582,0.756 -0.299,1.34c0.615,-0.293 0.769,-0.64 0.299,-1.34M114.951,102.713c1.033,-0.38 1.071,-0.456 0.641,-1.211c-0.265,0.354 -0.628,0.604 -0.641,1.211M223.982,16.502c-0.669,0.367 -0.872,0.709 -0.216,1.232c0.505,-0.316 0.648,-0.655 0.216,-1.232M83.29,80.907c-0.221,0.777 0.18,0.873 0.727,0.96c0.13,-0.647 -0.11,-0.88 -0.727,-0.96M68.369,71.52c-0.621,0.322 -1.076,0.498 -1.165,1.118c0.839,-0.238 0.839,-0.238 1.165,-1.118M129.175,103.824c0.624,-0.903 0.613,-0.988 -0.135,-1.342c-0.247,0.428 -0.094,0.819 0.135,1.342M69.028,70.572c0.435,0.218 0.79,0.284 0.898,-0.306c0.035,-0.189 -0.116,-0.335 -0.392,-0.398c-0.208,0.111 -0.493,0.197 -0.506,0.704M90.471,100.126c-0.541,0.507 -0.466,0.902 -0.015,1.311c0.626,-0.567 0.626,-0.567 0.015,-1.311M133.158,106.45c0.6,-0.324 0.977,-0.611 1.166,-1.241c-0.797,0.065 -1.064,0.455 -1.166,1.241M134.712,68.041c0.707,0.393 1.218,0.149 1.936,-0.477c-0.851,0.209 -1.393,0.344 -1.936,0.477M93.868,78.887c0.349,-0.088 0.611,-0.267 0.47,-0.663c-0.124,-0.347 -0.374,-0.6 -0.877,-0.436c-0.06,0.425 -0.082,0.821 0.407,1.099M85.893,98.956c-0.215,0.606 -0.258,1.026 0.109,1.616c0.407,-0.619 0.597,-1.042 -0.109,-1.616M51.625,77.037c0.688,-0.033 0.977,-0.294 0.862,-1.082c-0.654,0.081 -1.057,0.238 -0.862,1.082M80.963,100.744c-0.737,0.348 -0.562,0.923 -0.624,1.515c0.833,-0.318 0.979,-0.778 0.624,-1.515M194.042,53.774c0.721,-0.166 1.113,-0.44 0.981,-1.24c-0.659,0.171 -0.915,0.552 -0.981,1.24M150.719,88.143c-0.454,0.958 -0.407,1.036 0.557,1.02c0.111,-0.455 -0.115,-0.738 -0.557,-1.02M73.895,82.468c0.559,-0.261 0.896,-0.547 0.676,-1.213c-0.779,0.282 -0.779,0.282 -0.676,1.213M207.975,45.755c-0.509,0.554 -0.623,0.97 -0.422,1.586c0.552,-0.451 1.138,-0.747 0.422,-1.586M140.733,105.824c0.312,-1.094 0.266,-1.175 -0.573,-1.12c-0.079,0.469 0,0.861 0.573,1.12M120.61,108.148c-0.416,0.242 -0.684,0.493 -0.465,1.057c0.342,-0.171 0.772,-0.049 1.016,-0.437c0.015,-0.369 -0.154,-0.556 -0.551,-0.62M134.163,113.298c-0.742,0.309 -0.942,0.698 -0.536,1.375c0.597,-0.28 0.84,-0.642 0.536,-1.375M87.606,100.492c0.834,-0.316 0.834,-0.316 0.648,-1.288c-0.921,0.092 -0.896,0.613 -0.648,1.288M234.391,116.675c0.769,-0.316 0.799,-0.724 0.419,-1.304c-0.768,0.225 -0.824,0.631 -0.419,1.304M91.304,103.615c-0.658,0.577 -0.72,1.055 -0.269,1.682c0.586,-0.44 0.745,-0.894 0.269,-1.682M167.92,62.746c0.222,-0.651 0.339,-1.122 0.107,-1.841c-0.603,0.636 -0.883,1.092 -0.107,1.841M86.456,106.622c0.518,-0.951 0.498,-1.02 -0.364,-1.233c-0.134,0.49 -0.481,1.018 0.364,1.233M134.452,95.122c1.029,-0.069 1.121,-0.243 0.638,-1.124c-0.529,0.153 -0.748,0.493 -0.638,1.124M55.132,97.33c0.518,-0.21 1.156,0.022 1.715,-0.612c-0.573,-0.07 -1.004,-0.124 -1.426,-0.175c-0.159,0.239 -0.398,0.396 -0.289,0.787M69.056,83.877c-0.389,0.326 -0.416,0.673 -0.188,1.071c0.486,0.148 0.762,-0.04 0.889,-0.477c-0.058,-0.374 -0.331,-0.47 -0.701,-0.594M225.493,15.935c0.218,-0.392 0.308,-0.744 -0.038,-1.098c-0.498,-0.042 -0.773,0.182 -0.754,0.671c0.015,0.423 0.302,0.529 0.792,0.427M187.915,57.118c-0.967,0.246 -1.166,0.663 -0.9,1.503c0.55,-0.302 0.801,-0.674 0.9,-1.503M147.199,91.485c0.341,0.052 0.749,0.27 1.156,-0.151c-0.223,-0.517 -0.632,-0.665 -1.061,-0.745c-0.321,0.281 -0.38,0.532 -0.095,0.896M112.021,101.552c0.626,-0.685 0.665,-0.936 0.264,-1.694c-0.635,0.648 -0.671,0.882 -0.264,1.694M142.041,105.071c0.861,-0.682 0.629,-1.447 0.797,-2.484c-0.71,0.869 -1.007,1.485 -0.797,2.484M218.726,20.252c0.268,-0.456 0.257,-0.796 -0.266,-1.068c-0.32,0.187 -0.679,0.345 -0.637,0.848c0.207,0.359 0.507,0.356 0.903,0.22M67.297,75.329c0.413,-0.027 0.72,-0.179 0.926,-0.507c0.074,-0.489 -0.063,-0.793 -0.627,-0.784c-0.388,0.366 -0.419,0.8 -0.299,1.291M157.96,108.804c-0.401,-0.132 -0.725,-0.117 -0.851,0.278c-0.121,0.376 -0.053,0.729 0.497,0.838c0.293,-0.263 0.496,-0.57 0.354,-1.116M227.903,12.448c0.89,-0.097 1.418,-0.403 1.59,-1.312c-0.818,0.126 -1.269,0.527 -1.59,1.312M54.294,73.301c0.457,0.678 0.457,0.678 1.328,0.479c-0.181,-0.823 -0.25,-0.848 -1.328,-0.479M214.059,42.066c-0.818,0.318 -1.041,0.718 -0.658,1.496c0.824,-0.187 0.832,-0.694 0.658,-1.496M73.734,89.011c-0.053,-0.402 -0.229,-0.636 -0.643,-0.654c-0.382,0.204 -0.8,0.378 -0.757,0.958c0.598,0.417 1.011,0.13 1.4,-0.304M122.698,94.12c-0.722,-0.124 -1.078,0.133 -1.007,0.913c0.314,0.222 0.607,0.293 0.945,0.134c0.209,-0.326 0.282,-0.657 0.062,-1.047M222.174,20.815c0.185,0.258 0.324,0.644 0.854,0.619l0,-1.677c-0.524,0.187 -0.81,0.473 -0.854,1.058M65.438,78.238c0.907,0.178 1.065,-0.274 1,-1.047c-0.828,-0.074 -1.202,0.172 -1,1.047M171.588,41.854c-0.706,0.132 -1.502,0.076 -1.916,0.867c0.612,-0.369 1.496,-0.044 1.916,-0.867M62.661,77.122c-0.739,0.716 -1.356,1.063 -1.535,1.971c0.829,-0.364 1.335,-0.792 1.535,-1.971M226.454,30.609c0.82,-0.408 0.786,-0.984 0.751,-1.718c-0.687,0.434 -1.226,0.772 -0.751,1.718M222.05,16.162c0.835,-0.23 1.389,-0.488 1.293,-1.487c-0.952,0.183 -1.244,0.63 -1.293,1.487M152.251,93.964c0.334,-0.304 0.376,-0.56 0.167,-0.87c-0.691,-0.29 -1.198,-0.194 -1.504,0.723c0.536,0.059 0.921,0.102 1.337,0.147M76.291,83.724c-0.633,0.047 -1.037,0.301 -1.223,0.903c0.472,0.282 0.874,0.313 1.26,0.04c0.19,-0.297 0.201,-0.57 -0.037,-0.943M132.553,111.119c0.597,-1.101 0.059,-1.643 -0.64,-2.141c0.377,0.596 -0.201,1.423 0.64,2.141M65.17,84.673c-0.977,-0.419 -1.203,0.147 -1.483,0.768c0.868,0.46 1.144,-0.056 1.483,-0.768M77.703,87.382c-0.388,-0.492 -0.752,-0.531 -1.188,-0.142c-0.133,0.379 -0.283,0.775 0.022,1.192c0.594,-0.144 0.928,-0.483 1.166,-1.05M112.745,103.369c1.104,-0.034 1.055,-0.651 0.942,-1.385c-0.819,0.069 -1.065,0.489 -0.942,1.385M114.743,110.888c0.505,-0.126 0.699,-0.356 0.757,-0.794c-0.238,-0.345 -0.114,-0.918 -0.605,-1.346c-0.338,0.741 -0.414,1.379 -0.152,2.14M86.187,89.901c0.767,-0.215 0.956,-0.668 1.105,-1.176c-0.222,-0.544 -0.555,-0.99 -1.187,-1.64c0.293,0.732 0.454,1.13 0.602,1.499c-0.166,0.419 -0.309,0.782 -0.52,1.317M121.339,99.188c-0.376,-0.345 -0.559,-0.947 -1.329,-1.076c-0.038,0.723 0.4,1.156 0.667,1.688c0.307,-0.084 0.574,-0.085 0.662,-0.612M50.918,91.012c-0.841,0.53 -0.988,1.158 -0.958,1.968c1.055,-0.291 1.079,-0.991 0.958,-1.968M81.11,66.776c-0.741,0.279 -1.415,0.562 -1.532,1.59c0.708,-0.311 1.296,-0.57 1.861,-0.818c0.087,-0.329 -0.014,-0.543 -0.329,-0.772M65.731,88.102c-0.65,-0.38 -1.173,-0.436 -1.673,0.029c-0.163,0.152 -0.269,0.352 -0.127,0.589c0.191,0.17 0.38,0.345 0.736,0.314c0.301,-0.265 0.645,-0.567 1.064,-0.932M50.733,98.613c0.524,-0.289 0.685,-0.657 0.46,-1.059c-0.248,-0.444 -0.532,-0.951 -1.312,-0.847c0.28,0.672 0.336,1.328 0.852,1.906M215.506,47.821c-0.312,-0.469 -0.541,-0.893 -1.119,-0.88c-0.593,0.405 -0.74,0.87 -0.268,1.464c0.531,-0.013 0.944,-0.204 1.387,-0.584M77.496,83.255c0.043,0.657 0.342,0.796 0.869,0.825c0.105,-0.587 0.98,-0.492 1.117,-1.295c-0.872,-0.596 -1.287,0.469 -1.986,0.47M148.013,107.931c0.398,-0.409 0.881,-0.587 1.393,-0.696c0.09,-0.57 0.33,-1.099 -0.336,-1.604c-0.639,0.641 -0.651,1.547 -1.057,2.3M75.767,88.595c-0.021,-0.569 -0.192,-1.052 -0.855,-0.964c-0.695,0.094 -0.83,0.582 -0.572,1.229c0.528,0.247 0.967,0.083 1.427,-0.265M220.877,20.77c0.351,-0.505 0.82,-0.901 0.52,-1.627c-0.753,0.198 -1.495,0.308 -1.466,1.38c0.323,0.084 0.627,0.163 0.946,0.247M84.738,103.658c0.944,-0.118 1.218,-0.807 0.811,-2.039c-0.848,0.438 -1.09,1.076 -0.811,2.039M87.44,78.888c0.496,0.843 0.737,1.566 1.589,1.725c0.397,-0.393 0.479,-0.781 0.216,-1.333c-0.492,-0.107 -1.038,-0.225 -1.805,-0.392M120.438,110.735c0.688,-0.156 1.514,-0.054 2.25,-1.02l-2.414,0c-0.153,0.331 -0.168,0.634 0.164,1.02M134.998,99.17c-0.794,-0.011 -0.967,0.432 -0.962,1.119c0.565,0.104 0.639,0.731 1.087,1.129c0.636,-0.88 0.109,-1.543 -0.125,-2.248M79.102,85.747c-0.459,0.558 -0.903,1.013 -0.878,1.81c0.652,0.032 1.17,-0.128 1.633,-0.5c0.008,-0.56 -0.254,-0.92 -0.755,-1.31M126.537,92.149c-0.253,0.452 -1.005,0.702 -0.262,1.569c0.356,-0.751 1.422,-0.318 1.684,-1.223c-0.368,-0.422 -0.822,-0.315 -1.422,-0.346M143.432,94.74c1.73,0.156 1.73,0.156 2.083,-0.467c-0.688,-0.199 -1.359,-0.394 -1.994,-0.577c-0.316,0.356 -0.322,0.658 -0.089,1.044M82.151,81.734c-1.076,-0.446 -1.499,0.348 -2.171,0.804c1.267,0.689 1.743,0.513 2.171,-0.804M169.238,41.27c0.958,-0.26 1.536,-0.417 2.091,-0.568c0.144,-0.438 0.299,-0.819 -0.081,-1.216c-1.063,-0.054 -1.263,0.879 -2.01,1.784M188.181,52.678c-0.203,0.843 -0.426,1.61 -0.168,2.423c0.656,0.097 0.945,-0.216 0.908,-0.729c-0.04,-0.586 0.256,-1.355 -0.74,-1.694M134.478,64.027c1.16,-1.013 1.537,-2.144 1.18,-3.367c-0.709,1.013 -1.047,2.02 -1.18,3.367M71.462,97.287c-0.575,-0.532 -1.349,-0.746 -2.279,-1.291c0.288,1.061 0.623,1.684 1.351,1.947c0.407,0.147 0.793,-0.012 0.928,-0.656M62.61,96.908c0.597,0.145 0.864,-0.707 1.425,-0.386c0.292,0.411 -0.454,0.608 -0.068,1.126c0.677,-0.688 0.856,-1.303 0.113,-2.041c-0.728,0.147 -1.556,0.124 -1.47,1.301M225.356,24.905c1.23,-0.64 2.023,-1.919 1.66,-2.882c-0.76,0.894 -1.65,1.572 -1.66,2.882M130.69,116.374c0.914,-0.479 1.842,-0.951 1.722,-2.448c-1.106,0.601 -1.64,1.354 -1.722,2.448M128.108,69.838c-0.96,-0.381 -1.763,-0.045 -2.436,1.023c1.138,0.297 2.312,-0.196 2.436,-1.023M136.744,102.025c1.154,-0.911 0.81,-1.939 0.668,-3.057c-0.866,0.556 -1.121,1.815 -0.668,3.057M47.24,75.446c1.409,-0.86 2.532,-1.546 3.691,-2.253c-0.593,-0.522 -3.139,0.957 -3.691,2.253M61.281,94.298c0.527,-1.348 0.389,-2.294 -0.419,-3.133c-0.244,1.005 -0.413,1.995 0.419,3.133M229.498,22.32c-0.761,-0.455 0.142,-1.212 -0.769,-2.089c0.474,1.96 -0.84,2.946 -1.549,4.483c1.224,-0.569 1.519,-1.535 2.318,-2.394M105.422,81.711c0.061,-1.273 0.348,-2.502 -0.1,-3.717c-0.587,1.094 0.013,2.379 -0.765,3.261c0.184,0.496 0.425,0.584 0.865,0.456M127.375,102.338c0.658,1.188 -1.089,1.617 -0.84,2.665c0.607,0.072 1.09,0.012 1.522,-0.286c0.293,-0.929 -0.449,-1.57 -0.682,-2.379M215.768,44.883c1.592,-0.525 2.738,-2.035 2.596,-3.322c-0.87,1.113 -1.632,2.088 -2.596,3.322M221.178,26.601c0.802,-1.274 1.461,-2.322 2.182,-3.464c-1.338,0.41 -2.367,1.922 -2.182,3.464M133.859,103.692c-0.216,-0.926 -0.433,-1.853 -0.649,-2.781c-0.178,0.012 -0.356,0.023 -0.535,0.034c0.473,1.036 -0.063,2.008 0.011,2.982c0.467,0.176 0.778,0.158 1.173,-0.235M134.329,60.869c-1.112,0.666 -1.709,2.771 -1.089,3.664c0.617,-1.125 0.802,-2.326 1.089,-3.664M99.458,96.827c0.502,-1.473 1.494,-2.443 1.185,-3.855c-0.798,0.235 -1.497,2.278 -1.185,3.855M129.938,114.174c-1.074,0.333 -1.7,2.006 -1.248,3.159c0.786,-0.929 1.172,-1.897 1.248,-3.159M221.264,5.634c-1.032,0.979 -1.287,2.106 -2.025,3.065c0.577,0.152 0.911,0.331 1.322,0.045l0,-0.971c0.719,-0.892 0.719,-0.892 0.703,-2.139M214.901,41.463c0.643,-0.987 1.592,-1.529 1.672,-2.622c-0.349,-0.243 -0.61,-0.31 -0.957,-0.077c-0.205,0.792 -1.255,1.37 -0.715,2.699M144.74,101.179c-1.191,1.654 -1.517,3.531 -0.764,4.549c-0.013,-1.672 0.805,-3.027 0.764,-4.549M116.617,99.454c-1.401,-0.182 -2.578,1.059 -2.363,2.319c1.244,-0.26 1.596,-1.386 2.363,-2.319M65.221,89.806c-2.088,-0.224 -3.171,0.253 -3.148,1.312c1.231,0.166 2.098,-0.515 3.148,-1.312M75.731,97.686c-0.08,-0.795 -0.568,-0.984 -1.271,-1.033c-0.195,0.757 -0.993,1.261 -0.754,2.255c0.725,-0.437 1.368,-0.826 2.025,-1.222M69.218,77.465c0.528,1.291 2.743,2.169 3.463,1.406c-0.424,-0.842 -1.09,-1.114 -1.971,-0.819c-0.471,-0.241 -0.812,-0.707 -1.492,-0.587M130.866,103.624c1.011,-0.488 1.008,-0.868 0.076,-3.901c-0.539,-0.043 -0.675,0.305 -0.743,0.794c0.702,0.863 0.395,1.996 0.667,3.107M218.367,24.334c-1.662,0.991 -2.815,2.843 -2.22,3.468c0.992,-0.709 2.223,-2.577 2.22,-3.468M126.063,111.796c1.14,-0.37 1.667,-1.07 2.518,-1.646c-0.891,-0.153 -1.471,0.718 -2.088,0.182c-0.227,-0.662 1.228,-0.919 0.182,-1.714c-0.967,0.927 -0.527,2.003 -0.612,3.178M100.023,96.898c-0.115,0.753 -0.218,1.422 -0.333,2.167c0.879,0.2 1.255,-0.409 1.718,-0.755c0.137,-0.506 0.116,-0.928 -0.201,-1.303c-0.358,-0.272 -0.738,-0.291 -1.184,-0.109M52.144,72.369c1.194,0.369 4.112,-0.444 4.344,-1.145c-2.126,-0.043 -3.33,0.26 -4.344,1.145M114.324,73.561c0.858,0.539 4.237,-0.282 4.419,-0.971c-0.006,-0.308 -0.169,-0.462 -0.512,-0.482c-0.972,1.172 -2.735,0.318 -3.907,1.453M123.655,99.48c0.565,-0.429 0.056,-0.948 0.343,-1.319c0.614,-0.424 0.639,-0.449 0.907,-0.925c-1.04,-0.179 -1.959,0.077 -2.376,0.661c-0.142,0.314 -0.19,0.629 0.017,1.003c0.336,0.176 0.718,0.376 1.109,0.58M122.893,106.388c-1.177,-0.438 -2.702,0.087 -3.028,1.07c0.607,0.189 1.146,-0.247 1.814,-0.156c0.389,0.21 0.843,0.843 1.417,0.06c0.051,-0.307 0.083,-0.63 -0.203,-0.974M224.412,23.293c-0.645,0.692 -1.3,1.439 -1.549,2.449c0.522,0.246 0.81,0.018 1.148,-0.225c0.301,-0.744 0.343,-1.699 1.315,-2.072c-0.192,-0.658 -0.367,-1.256 -0.555,-1.902c-0.881,0.49 -0.099,1.112 -0.359,1.75M213.15,28.998c1.509,-0.469 2.881,-2.925 2.343,-4.018c-1.364,0.956 -1.736,2.448 -2.343,4.018M70.732,79.888c-0.986,-0.775 -1.93,-1.42 -3.163,-1.484c-0.342,0.216 -0.693,0.423 -0.544,0.924c2.987,1.35 2.987,1.35 3.707,0.56M119.282,106.329c0.902,-0.769 2.122,-1.323 2.346,-3.053c-1.284,0.656 -1.922,1.977 -3.271,1.672c-0.311,0.297 -0.469,0.564 -0.234,0.982c0.331,0.113 0.708,0.243 1.159,0.399M144.601,57.635c-1.176,0.273 -2.115,3.114 -1.572,4.549c1.379,-1.304 1.005,-3.02 1.572,-4.549M211.101,29.526c0.994,-0.409 2.528,-2.87 2.404,-3.857c-1.152,0.182 -2.75,2.747 -2.404,3.857M148.002,101.324c-1.268,1.454 -1.715,4.485 -0.802,5.798c0.857,-1.904 0.522,-3.706 0.802,-5.798M118.984,95.439c-0.233,1.688 0.552,2.227 2.414,1.753c0.148,-0.657 0.092,-1.284 -0.296,-1.886c-0.713,-0.161 -1.381,0.046 -2.118,0.133M139.657,107.143c-0.151,-0.478 -0.31,-0.986 -0.535,-1.702c-1.275,1.304 -3.131,1.602 -4.321,3.385c1.48,-0.371 2.269,-1.409 3.546,-1.546c0.338,0.003 0.762,0.604 1.31,-0.137M192.97,56.531c-1.462,0.592 -2.021,1.996 -1.524,3.697c0.624,-0.377 1.22,-0.738 1.884,-1.141c-0.398,-0.795 -0.394,-1.618 -0.36,-2.556M125.325,114.703c-1.049,1.677 -1.671,3.532 -2.711,5.191c0.094,0.06 0.188,0.121 0.281,0.181c0.387,-0.176 0.773,-0.352 1.191,-0.543c0.239,-1.681 1.497,-3.019 1.239,-4.829M114.776,85.783c1.563,-2.011 1.18,-4.494 2.122,-6.642c-0.133,-0.048 -0.266,-0.096 -0.399,-0.144c-0.305,0.555 -0.61,1.111 -0.895,1.632c0.123,0.383 0.223,0.692 0.283,0.881c-0.885,1.387 -1.131,2.804 -1.111,4.273M216.424,19.351c-0.782,0.524 -1.246,1.212 -1.703,1.964c0.405,0.782 -0.097,1.648 0.21,2.508c1.178,-0.102 0.781,-1.13 1.091,-1.608c-0.075,-0.497 -0.662,-0.509 -0.618,-1.014c0.219,-0.425 0.592,-0.659 1.118,-0.683c0.505,0.504 0.285,1.458 1.27,1.884c-0.187,-1.26 -0.857,-2.093 -1.368,-3.051M66.317,92.694c-1.201,1.104 -3.071,0.524 -4.207,1.775c0.815,0.476 4.052,-0.15 4.372,-0.906c0.28,-0.663 1.201,-1.41 0.25,-2.288c-0.57,0.403 -0.294,0.936 -0.415,1.419M147.682,95.276c-1.124,1.053 -2.597,0.504 -3.86,0.921c0.093,1.31 1.617,1.48 4.055,0.481c0.151,-0.384 0.297,-0.788 -0.195,-1.402M83.129,94.105c-2.272,0.093 -3.561,1.847 -5.488,1.642c-0.064,0.496 -0.114,0.88 -0.192,1.483c1.821,-1.197 4.135,-1.104 5.68,-3.125M127.912,114.402c-1.375,0.667 -2.697,3.377 -2.389,4.62c0.407,-0.054 0.763,-0.207 1.102,-0.558c0.3,-1.292 1.357,-2.411 1.287,-4.062M128.281,66.031c1.284,0.046 2.577,-2.422 2.293,-4.222c-1.088,0.167 -2.087,1.978 -2.293,4.222M76.601,69.312c0.411,-0.786 1.097,-1.046 1.735,-1.282c0.196,-0.562 0.352,-1.05 -0.239,-1.494c-0.827,0.588 -2.255,0.523 -2.294,1.971c-0.023,0.859 0.139,1.764 0.906,2.413c0.961,-0.688 0.125,-1.106 -0.108,-1.608M219.006,46.036c0.923,-0.034 1.579,-0.202 1.775,-0.827c0.537,-1.703 1.744,-2.953 2.735,-4.349c0.342,-0.481 0.352,-0.841 -0.381,-1.199c-0.714,2.45 -2.848,3.916 -4.129,6.375M198.715,56.155c1.919,-0.893 2.878,-3.247 2.474,-5.415c-0.507,0.147 -0.685,0.628 -1.072,0.997c0.196,1.531 -1.179,2.671 -1.402,4.418M113.761,85.069c1.344,-2.802 1.522,-5.822 2.373,-8.666c-0.826,0.657 -2.796,8.151 -2.373,8.666M123.493,102.79c1.454,2.066 1.215,4.451 1.19,7.075c1.633,-1.557 0.747,-6.429 -1.19,-7.075M51.513,94.465c-0.321,0.2 -0.476,0.46 -0.374,0.829c0.191,0.233 0.586,0.187 0.676,0.529c0.156,0.486 -0.286,1.103 0.313,1.51c0.688,-0.263 0.734,-1.083 1.271,-1.441c0.534,0.075 1.021,0.633 1.588,0.021c-0.291,-0.37 -0.58,-0.741 -0.892,-1.141c-0.852,-0.02 -1.616,-0.504 -2.582,-0.307M136.109,63.548c0.949,0.282 1.288,0.247 1.553,-0.387c0.492,-1.176 0.812,-2.409 0.812,-3.748c-0.646,0.058 -1.044,0.342 -1.444,0.857c0.249,1.171 -1.026,2.04 -0.921,3.278M114.581,66.499c0.201,1.287 -1.013,2.416 -0.745,3.925c1.85,-1.288 2.482,-2.738 2.006,-4.433c-0.475,-0.107 -0.84,0.095 -1.261,0.508M220.616,22.109c0.268,2.289 -2.239,3.149 -2.905,5.276c0.673,-0.097 1.063,-0.152 1.498,-0.216c1.014,-1.326 1.591,-2.868 2.267,-4.349c-0.114,-0.406 -0.256,-0.724 -0.86,-0.711M56.431,84.298c1.081,0.44 5.488,-1.603 5.57,-2.519c-1.067,-0.29 -5.121,1.502 -5.57,2.519M61.153,95.928c-0.533,1.678 -1.121,3.054 -1.998,4.215c0.462,1.039 1.562,0.246 1.973,0.95c0.406,-0.073 0.729,-0.139 0.865,-0.603c-0.5,-0.548 -1.005,-1.083 -0.85,-2.042c0.114,-0.711 0.906,-1.422 0.01,-2.52M194.311,58.766c1.715,-1.541 2.029,-3.467 1.944,-5.611c-1.235,0.784 -2.604,4.537 -1.944,5.611M140.587,93.657c-1.985,-1.843 -4.521,-1.859 -6.816,-2.557c1.017,1.376 2.999,1.15 3.997,2.638c0.929,-0.601 1.679,0.828 2.819,-0.081M152.583,98.004c0.058,0.453 0.519,0.576 0.449,0.968c-1.675,3.237 -1.844,5.303 -0.464,6.342c0.024,-0.166 0.091,-0.314 0.055,-0.431c-0.442,-1.423 -0.265,-2.732 0.617,-3.958c0.675,-0.939 0.776,-2.075 1.121,-3.146c-0.745,-0.296 -1.278,-0.228 -1.778,0.225M62.42,85.559c-0.788,0.26 -1.335,0.924 -2.158,0.95c-0.156,0.682 -0.084,1.268 0.115,1.813c0.457,0.163 0.825,-0.316 1.243,0c-0.168,0.519 -0.621,1.125 0.317,1.362c0.821,-0.286 0.493,-0.948 0.484,-1.462c0.898,-0.732 2.338,-0.624 2.802,-1.935c-1.07,0.588 -2.448,0.228 -3.325,1.239c-0.304,-0.184 -0.545,-0.334 -0.492,-0.717c0.242,-0.43 1.114,-0.297 1.014,-1.25M149.962,105.427c0.868,0.434 0.326,1.677 1.05,2.322c0.378,0.05 0.737,0.147 1.076,-0.237c-1.795,-2.691 -1.455,-5.504 -0.248,-8.353c-1.436,1.818 -2.151,3.799 -1.878,6.268M215.763,47.608c1.376,0.028 2.083,-0.517 2.352,-1.295c0.726,-2.101 2.084,-3.75 3.473,-5.402c0.279,-0.332 0.491,-0.705 0.164,-1.376c-2.294,2.482 -3.853,5.303 -5.989,8.073M60.754,79.974c-2.684,0.565 -7.046,3.26 -6.8,4.277c1.387,-0.265 2.511,-0.952 3.361,-2.024c2.191,-0.211 3.709,-1.218 3.439,-2.253M122.781,114.597c1.279,-0.57 2.735,-3.255 2.121,-4.023c-0.743,0.488 -0.715,1.638 -1.563,1.949c-0.758,0.064 -0.636,-0.646 -0.971,-0.978c-0.533,-0.154 -1.088,-0.314 -1.593,-0.459c-0.516,0.339 -0.609,0.708 -0.375,1.173c0.424,0.125 0.916,-0.128 1.412,0.462c0.251,0.483 0.269,1.372 0.969,1.876M104.396,82.141c-0.952,3.976 -2.196,7.758 -2.483,11.775c1.187,-3.559 1.917,-7.26 3.302,-10.7c-0.064,-0.396 -0.16,-0.703 -0.819,-1.075M58.418,85.832c2.26,0.473 3.726,-1.364 5.613,-1.842c0.034,-0.708 -0.224,-1.03 -0.809,-1.148c-1.51,0.483 -2.863,1.431 -4.386,1.709c-0.299,0.313 -0.508,0.564 -0.418,1.281M131.128,81.123c0.131,0.026 0.262,0.053 0.393,0.079c1.357,-3.659 1.85,-7.531 3.004,-11.326c-0.726,-0.014 -0.987,0.21 -1.022,0.268c-0.834,3.858 -1.604,7.419 -2.375,10.979M226.249,3.103c-2.983,0.856 -3.363,3.726 -5.374,5.169c1.096,0.822 1.784,0.235 2.577,-0.132c-0.033,-2.081 2.104,-2.965 2.797,-5.037M219.646,3.706c2.867,-1.229 6.003,-0.824 8.782,-2.209c-0.487,-0.705 -0.956,-0.65 -1.377,-0.572c-1.973,0.368 -3.951,0.724 -5.903,1.185c-0.639,0.151 -1.506,0.279 -1.502,1.596M84.299,69.085c-1.451,-0.613 -1.976,1.077 -3.114,1.041c-0.287,-0.918 0.802,-1.101 0.863,-1.795c-1.227,0.033 -3.365,1.704 -3.322,2.638c0.896,-0.079 1.535,0.812 2.562,0.632c1.128,-0.57 2.14,-1.392 3.011,-2.516M86.784,94.557c1.417,-0.906 0.941,-2.015 1.239,-2.881c0.739,-2.148 1.359,-4.328 1.604,-6.6c0.057,-0.533 0.013,-0.942 -0.688,-1.116c-0.343,3.512 -1.967,6.751 -2.155,10.597M196.866,56.955c1.052,-0.686 4.197,-7.694 3.992,-8.785c-1.063,0.079 -4.42,7.337 -3.992,8.785M126.365,65.332c-0.768,-0.891 0.253,-1.822 -0.292,-2.588c-0.886,0.328 -1.801,3.26 -1.287,4.357c0.778,-0.539 1.671,-0.785 2.58,-0.889c0.375,-1.328 0.721,-2.556 1.103,-3.907c-1.911,0.297 -1.41,1.943 -2.104,3.027M73.189,80.193c0.638,-0.113 1.143,-0.338 1.667,-0.68c-0.145,-0.339 -0.269,-0.63 -0.381,-0.89c0.324,-0.473 0.608,-0.889 0.829,-1.211c1.357,-0.221 2.495,-0.845 3.83,-1.004c-1.213,-0.057 -1.586,-1.64 -2.796,-1.497c-0.451,0.578 0.274,1.08 -0.103,1.551c-0.996,0.391 -1.535,-0.977 -2.501,-0.684c-0.136,0.663 0.759,0.717 0.69,1.312c-1.084,0.698 -1.979,-0.817 -3.169,-0.268c0.827,0.898 2.167,0.871 2.796,1.866c-0.319,0.459 -1.043,0.593 -0.862,1.505M211.254,49.507c0.193,-1.946 0.515,-2.977 1.145,-3.704c0.797,0.579 -0.679,1.355 0.191,1.95c0.515,-0.352 0.599,-0.977 0.934,-1.38c-0.4,-2.028 -0.409,-2.044 -1.36,-2.458c-0.883,0.678 -2.824,5.803 -2.467,6.57c0.683,-0.047 1.066,-0.567 1.557,-0.978M104.055,73.009c3.799,-0.72 4.648,-2.215 5.059,-4.706c-0.479,0.069 -0.541,0.572 -0.904,0.819c-0.273,0.067 -0.585,-0.251 -0.942,-0.012c-0.969,0.346 -0.926,1.6 -1.634,2.232c-0.567,-0.534 0.15,-1.205 -0.428,-1.606c-1.236,0.92 -1.591,1.904 -1.151,3.273M124.171,72.505c-2.254,3.51 -1.908,7.707 -3.399,11.343c0.641,0.347 0.925,0.231 1.253,-0.078c0.447,-3.754 1.905,-7.377 2.146,-11.265M86.855,73.624c0.387,-0.951 0.941,-1.547 1.882,-1.68c0.068,-0.393 0.397,-0.674 0.227,-1.034c-1.627,-1.197 -2.424,1.469 -3.95,0.945c0.106,-0.871 1.072,-0.997 1.066,-1.89c-1.265,-0.507 -1.529,0.897 -2.319,1.216c-0.35,0.2 -0.809,0.063 -1.176,0.431c-0.161,0.285 -0.376,0.621 -0.177,1.116c1.507,-0.05 2.839,0.853 4.447,0.896M68.652,80.88c-0.689,-0.97 -1.719,-1.152 -2.679,-1.116c-1.096,0.04 -2.138,0.462 -2.871,1.429c1.171,1.269 1.556,3.283 3.811,3.054c0.271,-0.429 0.556,-0.882 0.798,-1.267c-0.266,-1.011 -1.38,-1.305 -1.877,-2.45c1.053,0.379 1.706,1.355 2.818,0.35M208.592,44.2c0.386,0.096 0.668,-0.551 1.174,-0.125c-0.003,2.568 -2.265,4.573 -1.999,7.306c1.733,-3.47 2.742,-7.29 5.264,-10.329c0.153,-0.185 0.09,-0.511 -0.349,-0.6c-0.201,0.299 -0.422,0.623 -0.625,0.924c-3.414,1.329 -3.682,1.544 -3.465,2.824M204.986,47.431c-0.947,0.434 -3.244,6.063 -2.83,7.133c1.523,-0.828 3.029,-1.648 4.51,-2.455c0.122,-0.493 0.148,-0.916 -0.124,-1.354l-1.23,0c-0.535,0.147 -0.545,0.781 -1.163,0.662c0.051,-1.367 1.112,-2.541 0.837,-3.986M100.427,75.293c0.087,-0.855 0.194,-2.013 1.335,-2.599c0.064,-0.412 0.095,-0.735 -0.345,-0.942c-0.636,0.375 -0.925,1.078 -1.428,1.582c0.076,0.393 0.145,0.744 0.249,1.289c-1.374,0.621 -1.487,2.665 -3.286,3.102c-0.319,-0.92 0.512,-1.601 -0.011,-2.369c-0.692,-0.397 -1.228,-0.092 -1.637,0.515c-0.353,0.523 -0.591,1.097 -0.383,1.699c0.28,0.291 0.735,-0.068 0.94,0.457c-0.295,0.519 -1.255,0.855 -0.77,1.777c2.616,-0.373 3.775,-2.511 5.336,-4.511M71.439,90.046c0.33,-0.231 0.436,-0.518 0.367,-0.93c-0.302,-0.197 -0.63,-0.409 -0.966,-0.628c0.337,-1.09 1.575,-0.5 2.116,-1.218c-0.012,-0.318 -0.035,-0.638 -0.402,-0.791c-0.994,-0.08 -1.865,0.336 -2.713,0.665c-0.924,-0.816 -2.206,-0.557 -3.065,-1.455c-0.435,0.933 -0.124,1.498 0.402,2.042l1.042,0c0.912,1.162 0.566,2.567 0.696,4.039c2.182,-0.713 0.262,-2.368 0.842,-3.318c1.048,0.098 0.479,1.659 1.681,1.594M115.421,74.773c-0.805,0.326 -1.409,0.513 -1.558,1.069c-1.045,3.899 -2.368,7.743 -2.56,11.925c0.633,-0.172 1.212,-0.209 1.64,-0.64c-0.031,-0.424 -0.509,-0.602 -0.421,-1.014c0.348,-3.844 1.814,-7.417 2.899,-11.34M136.488,69.293c-0.939,0.181 -1.143,0.958 -1.348,1.694c-0.636,2.302 -1.286,4.6 -1.851,6.92c-0.331,1.355 -1.071,2.628 -0.947,4.122c0.966,0.215 1.132,-0.364 1.335,-1.057c1.031,-3.524 1.637,-7.162 2.898,-10.623c0.124,-0.341 0.189,-0.705 -0.087,-1.056M164.541,74.973c0.953,-0.043 1.276,-0.738 1.394,-1.504c0.136,-0.877 0.297,-1.741 0.703,-2.521c1.155,-2.216 0.851,-4.676 1.222,-7.021c0.04,-0.26 0.066,-0.61 -0.33,-0.713c-0.838,0.835 -3.397,10.788 -2.989,11.759M135.764,81.619c0.933,-4.094 1.894,-8.303 2.854,-12.51c-0.238,-0.059 -0.476,-0.118 -0.714,-0.177c-1.59,4.229 -2.549,8.641 -3.599,13.055c0.6,0.131 0.94,-0.084 1.459,-0.368M112.55,75.098c-2.151,4.507 -2.568,9.488 -4.251,14.335c1.17,-0.392 1.728,-0.89 1.934,-1.899c0.558,-2.73 1.14,-5.453 1.909,-8.142c0.384,-1.346 0.867,-2.783 0.408,-4.294M207.356,35.691c-1.537,2.286 -2.48,4.855 -3.578,7.255c0.518,0.491 1.058,0.447 1.293,0.889c-0.149,0.809 -0.689,1.537 -0.556,2.405c1.289,0.227 2.442,-1.804 2.324,-3.994c-0.227,-0.232 -0.586,0.163 -0.927,-0.361c0.283,-1.399 0.894,-2.863 1.537,-4.376c-0.347,-0.55 -0.26,-1.134 -0.093,-1.818M158.712,78.197c1.973,-0.595 1.8,-2.017 2.127,-3.22c0.921,-3.391 1.93,-6.758 2.893,-10.137c0.095,-0.333 0.223,-0.704 -0.399,-1.224c-2.538,4.558 -2.648,9.737 -4.621,14.581M88.981,98.459c0.606,0.254 1.029,-0.11 1.051,-0.594c0.061,-1.325 0.716,-2.458 1.062,-3.683c0.986,-3.491 1.876,-7.015 3.178,-10.409c0.307,-0.797 0.472,-1.58 0.191,-2.43c-0.677,0.288 -5.714,16.179 -5.482,17.116M227.117,3.177c-0.493,2.008 -2.353,3.126 -3.164,5.067c2.303,-0.355 4.413,-0.68 6.567,-1.012c0.237,-0.225 0.362,-0.489 0.123,-0.807c-0.438,-0.221 -0.867,0.339 -1.414,-0.169c1.173,-1.5 0.936,-2.87 -0.653,-3.995c-0.493,0.31 -0.952,0.597 -1.459,0.916M87.89,97.376c0.781,-0.508 4.196,-11.391 4.789,-15.076c-0.971,0.513 -1.667,1.103 -1.946,2.239c-0.919,3.738 -1.942,7.45 -2.927,11.171c-0.141,0.533 -0.249,1.059 0.084,1.666M128.988,82.458c1,0.102 1.303,-0.312 1.389,-0.984c0.079,-0.618 0.146,-1.238 0.251,-1.853c0.547,-3.191 1.367,-6.317 2.293,-9.417c0.129,-0.432 0.146,-0.872 -0.223,-1.224c-0.362,-0.069 -0.792,-0.03 -0.875,0.299c-1.087,4.322 -2.532,8.576 -2.835,13.179M170.094,57.562c-0.356,2.643 -1.143,5.195 -0.674,7.934c1.739,-2.191 2.809,-4.672 3.545,-7.329c-0.188,-0.398 -0.384,-0.787 -0.803,-1.033c-0.672,0.139 -1.346,0.279 -2.068,0.428M80.723,104.538c-0.591,-0.12 -0.445,-0.635 -0.733,-0.926c-0.27,0.001 -0.573,0.346 -0.816,0.117c-0.875,-1.236 0.803,-1.858 0.653,-3.026c-0.768,0.321 -1.375,0.778 -2.1,0.56c-0.807,1.058 -1.623,2.029 -1.237,3.513c0.267,0.234 0.473,0.653 1.107,0.783c1.508,-0.872 3.132,0.626 4.997,-0.105c0.821,-0.586 1.313,-2.126 0.844,-3.275c-0.765,0.736 -0.431,2.251 -1.745,2.615c-0.413,-0.836 0.681,-1.589 -0.063,-2.331c-1.054,0.391 -0.176,1.567 -0.907,2.075M80.24,76c1.612,-0.014 3.049,1.289 4.81,0.635c-0.165,-0.834 0.191,-1.646 -0.314,-2.364c-0.761,-0.172 -0.986,0.844 -1.84,0.624c-0.4,-0.346 -0.988,-0.37 -1.612,-0.094c-0.326,-0.29 -0.62,-0.551 -0.911,-0.811c0.053,-0.518 0.464,-0.928 0.183,-1.52c-0.274,-0.203 -0.623,-0.463 -0.997,-0.74c-0.385,0.107 -0.805,-0.074 -1.237,0.244c-0.185,0.566 -0.388,1.185 -0.552,1.688c0.325,0.933 1.117,1.212 1.643,1.757c0.656,0.681 -0.337,1.574 0.275,2.338c0.58,-0.033 1.339,0.253 1.344,-0.731c-0.206,-0.428 -0.789,-0.313 -0.792,-1.026M144.839,106.543c1.031,-0.022 1.102,-0.516 1.043,-0.938c-0.207,-1.482 0.4,-2.808 0.715,-4.188c0.366,-1.601 1.79,-2.896 3.399,-3.061c-0.176,0.901 -0.817,1.551 -1.156,2.42c0.315,0.536 -0.254,1.154 0.107,2.152c0.847,-2.987 2.722,-4.929 4.328,-7.096c-0.735,0.516 -1.472,1.031 -2.088,1.463c-1.019,-0.037 -0.704,-1.572 -1.602,-1.346c-3.786,2.678 -4.283,6.538 -4.746,10.594M144.416,81.406c1.218,-5.141 2.258,-10.399 4.121,-15.517c-0.873,0.067 -0.873,0.067 -1.552,0.588c-1.792,4.9 -2.564,10.061 -3.739,15.105c0.556,0.203 0.859,0.156 1.17,-0.176M116.688,104.918c-1.789,-1.043 -3.709,-0.574 -5.594,-0.815c-0.408,0.995 -0.474,1.943 -0.141,2.927c0.461,0.169 0.896,0.328 1.327,0.486c0.65,-0.51 1.357,-0.887 2.029,-1.124c0.711,-0.057 1.046,0.537 1.623,0.636c0.627,-0.148 1.01,-0.648 1.438,-1.052c0.047,-0.404 0.089,-0.767 0.105,-0.909c0.658,-1.288 1.807,-1.588 2.817,-2.051c0.096,-0.549 0.193,-1.008 -0.35,-1.485c-1.243,0.866 -2.142,2.088 -3.254,3.387M128.065,82.327c0.298,-3.513 1.441,-6.951 2.241,-10.465c0.803,-3.529 1.73,-7.042 2.203,-10.652c-0.527,-0.076 -0.762,0.195 -0.831,0.518c-0.383,1.799 -1.115,3.491 -1.494,5.299c-0.634,3.029 -0.682,6.185 -1.97,9.081c-0.447,1.007 -0.745,2.085 -0.278,3.119c-0.699,1.139 -0.99,2.279 -1.087,3.477c0.514,0.143 0.821,-0.033 1.216,-0.377M122.025,117.339c0.228,-0.817 0.242,-1.581 0.088,-2.345c-3.296,-0.109 -4.929,1.983 -6.248,4.471c-0.328,0.616 -0.196,1.213 0.469,1.655c0.819,-0.012 2.077,0.449 2.336,-0.527c0.376,-1.416 1.694,-1.882 2.25,-3.009c0.351,-0.078 0.669,-0.148 1.105,-0.245M104.989,75.637c-0.742,0.869 -2.004,1.115 -2.494,2.148c-0.771,1.621 -1.247,3.398 -1.658,5.109c-1.15,4.781 -2.468,9.516 -3.669,14.281c-0.167,0.661 -0.786,1.352 -0.329,2.107c0.336,0.044 0.576,-0.063 0.642,-0.266c2.255,-7.028 3.712,-14.28 6.039,-21.399c0.83,-0.035 1.226,-0.868 1.934,-1.153c0.062,-0.37 -0.105,-0.553 -0.465,-0.827M123.668,63.1c-1.803,7.398 -3.542,14.55 -5.038,21.735c0.648,0.24 1.015,-0.052 1.108,-0.351c1.711,-5.534 2.819,-11.193 3.715,-17.265c0.521,-0.573 0.962,-3.156 0.215,-4.119M151.299,81.589c1.16,-5.979 3.519,-11.82 4.858,-18.048c-1.081,0.079 -1.395,0.684 -1.599,1.374c-1.218,4.111 -2.464,8.211 -3.619,12.339c-0.4,1.427 -0.964,2.846 -0.89,4.343c0.361,0.329 0.695,0.356 1.25,-0.008M148.868,81.592c1.567,-5.405 2.703,-10.799 4.693,-15.944c0.16,-0.415 0.289,-0.847 -0.126,-1.267c-0.834,-0.09 -1.132,0.582 -1.355,1.155c-0.665,1.709 -1.417,3.411 -1.817,5.186c-0.82,3.647 -1.781,7.243 -3.009,10.787c0.538,0.503 1.08,0.306 1.614,0.083M123.858,82.881c0.904,-3.717 1.757,-7.219 2.627,-10.795c-0.722,-0.045 -1.107,0.076 -1.217,0.272c-0.556,4.009 -2.079,7.563 -2.341,11.375c2.346,0.079 2.772,-0.328 3.312,-2.344c0.588,-2.19 0.72,-4.483 1.665,-6.602c0.446,-0.999 0.498,-2.175 0.751,-3.378c-0.714,0.151 -1.025,0.453 -1.352,0.791c-0.701,3.162 -1.725,6.267 -2.239,9.495c-0.075,0.461 -0.242,0.929 -1.206,1.186M95.174,99.632c1.788,-2.891 1.962,-6.313 3.021,-9.448c1.073,-3.176 1.5,-6.538 2.666,-9.703c1.154,-3.132 1.781,-6.407 2.291,-9.73c-1.114,2.143 -1.263,4.686 -2.923,6.754c0.075,1.731 -0.784,3.492 -0.731,4.785c-1.823,6.063 -3.511,11.576 -4.324,17.342M116.157,85.633c1.172,0.117 1.643,-0.308 1.802,-1.232c0.254,-1.486 0.544,-2.968 0.857,-4.443c0.563,-2.659 1.394,-5.268 1.911,-7.919c0.495,-2.53 1.059,-5.006 1.915,-7.427c0.077,-0.216 0.077,-0.435 -0.145,-0.65c-0.73,0.038 -1.178,0.48 -1.365,1.166c-0.483,1.769 -0.977,3.536 -1.38,5.325c-0.669,2.963 -1.438,5.899 -2.202,8.839c-0.533,2.046 -0.779,4.169 -1.393,6.341M59.509,93.489c-1.533,-1.264 -2.893,0.576 -4.457,0.094c1.193,-0.572 2.387,-1.144 3.761,-1.802c-0.862,-2.219 -2.661,-3.045 -4.827,-3.607c-0.634,0.977 -2.335,0.839 -2.698,2.269c0.367,0.363 0.795,-0.025 1.028,0.39c0.376,0.341 -0.313,0.918 0.171,1.243c0.423,0.147 0.506,-0.517 1.042,-0.208c0.219,1.204 0.249,2.698 1.951,3c0.115,0.332 0.206,0.6 0.335,0.972c0.451,-0.154 0.851,-0.29 1.254,-0.429c-0.102,-0.355 -0.586,-0.325 -0.486,-0.875c0.653,-0.643 1.476,-0.359 2.225,-0.271c0.216,0.453 -0.3,0.832 0.23,1.183c0.853,-0.45 0.546,-1.195 0.471,-1.959M179.732,59.44c-0.651,-0.054 -1.019,0.167 -1.381,0.443c-0.851,2.679 -2.336,5.225 -1.798,8.233c0.583,-0.104 3.529,-1.546 3.811,-1.8c0.666,-0.602 0.527,-1.396 0.573,-2.158c0.014,-0.247 0.174,-0.483 0.252,-0.728c0.614,-1.897 1.224,-3.796 1.835,-5.693c-1.302,0.537 -2.3,1.281 -2.644,2.601c-0.433,1.663 -1.194,3.23 -1.393,4.97c-0.058,0.502 -0.475,0.964 -0.727,1.445c-0.051,-2.55 0.991,-4.812 1.472,-7.313M174.825,60.056c-1.568,3.532 -3.194,7.054 -4.081,10.892c-0.664,-1.53 -0.187,-2.877 0.796,-4.039c-0.238,-0.768 -0.608,-0.801 -1.089,-0.445c-0.399,1.238 -0.333,2.66 -1.581,3.696c-0.256,-1.146 0.825,-1.881 0.362,-2.839c-0.977,0.338 -2.587,4.572 -2.362,6.227c1.607,-0.051 2.686,-1.257 4.045,-1.833c1.098,-0.468 1.594,-1.305 1.9,-2.395c0.697,-2.473 1.127,-5.018 2.004,-7.449c0.184,-0.512 0.507,-1.082 0.006,-1.815M145.323,81.612c0.988,0.151 1.213,-0.389 1.375,-0.919c0.28,-0.913 0.473,-1.853 0.75,-2.767c1.351,-4.462 2.588,-8.959 4.078,-13.381c0.296,-0.874 0.674,-1.909 0.243,-2.964c-0.816,0.385 -0.773,1.137 -1.183,1.675c-2.666,5.825 -4.071,12.016 -5.263,18.356M137.936,81.597c1.372,-7.871 3.085,-15.556 4.65,-23.323c-0.611,-0.166 -0.909,0.48 -1.468,0.654c-0.46,-0.075 -1.006,-0.402 -1.615,0.266c-0.167,1.331 -0.925,2.733 -0.936,4.586c1.903,-1.085 0.824,-3.39 2.521,-4.413c-1.439,7.629 -2.778,15.114 -4.46,22.513c0.69,0.227 1.014,0.01 1.308,-0.283M88.786,82.225c0.034,-0.114 0.148,-0.288 0.102,-0.364c-0.737,-1.198 -2.211,-1.469 -3.073,-2.297c-0.181,-0.716 0.59,-0.755 0.576,-1.262c-0.079,-0.34 -0.638,-0.235 -0.646,-0.66c1.366,-2.37 1.366,-2.37 0.25,-2.878c-0.092,1.322 -0.688,2.455 -1.31,3.632c0.589,0.535 0.613,1.199 0.599,1.839c0.281,0.406 0.793,0.663 0.589,1.313c-0.769,0.094 -1.284,0.656 -1.777,1.216c-0.423,-0.206 -0.777,-0.381 -1.119,-0.549c-0.345,0.306 -0.609,0.644 -0.954,0.829c-2.088,1.114 -4.346,1.792 -6.62,2.371c-1.32,0.335 -1.86,0.782 -1.499,1.788c1.171,-0.373 2.444,-0.506 3.289,-1.646c1.332,0.725 2.355,-0.646 3.617,-0.379c0.356,-0.58 0.657,-1.223 1.515,-0.621c-0.069,1.266 -2.516,0.557 -2.038,2.334c1.004,0.008 1.478,-0.707 1.978,-1.356c0.492,0.174 0.859,0.789 1.473,0.206c0.221,-0.334 -0.047,-0.908 0.429,-1.321c0.441,-0.118 0.952,-0.256 1.528,-0.411c0.038,0.451 0.068,0.796 0.099,1.156c0.735,-0.245 1.336,-0.939 2.211,-2.509c-0.414,-0.501 -0.691,0.04 -1.031,0.13c-0.544,0.142 -0.751,-0.072 -0.556,-0.778c0.617,0.232 1.112,-0.057 1.502,-0.355c0.501,-0.021 0.379,0.605 0.866,0.572M141.205,97.522c-0.025,-0.579 0.4,-0.965 -0.001,-1.601c-4.234,0.824 -8.642,-0.345 -12.993,0.695c1.175,0.232 2.398,0.003 3.66,0.476c-2.483,0.843 -5.258,0.048 -7.578,2.036c0.914,0.316 1.284,0.936 1.893,0.979c0.558,-0.355 -0.266,-0.811 0.271,-1.139c0.288,0.159 0.596,0.327 0.818,0.451c0.539,0.012 0.702,-0.584 1.257,-0.442c0.394,0.265 0.797,0.871 1.437,0.31c0.276,-0.267 0.113,-0.763 0.592,-0.961c0.431,0.253 0.895,0.525 1.245,0.73c0.738,0 0.997,-0.554 1.485,-0.784c0.328,0.058 0.68,0.122 1.031,0.183c0.326,-0.224 0.624,-0.428 0.874,-0.601c0.47,-0.039 0.609,0.529 1.075,0.401c0.338,-0.132 0.709,-0.278 1.031,-0.405c1.251,0.579 1.041,1.786 1.264,2.894c1.034,-0.401 0.831,-1.191 0.934,-1.872c0.114,-0.757 -0.858,-1.358 -0.267,-2.228c1.003,0.348 1.375,1.239 1.824,2.031c0.905,-0.377 0.444,-0.791 0.148,-1.153M111.643,68.629c-2.179,7.28 -3.687,14.696 -5.747,22.009c0.789,0.128 1.139,-0.381 1.564,-0.755c1.785,-7.76 4.08,-15.366 6.217,-23.127c-1.257,-0.041 -1.938,1.005 -2.959,0.824c-1.355,2.041 -1.917,4.195 -1.818,6.488c1.796,-1.377 0.995,-4.005 2.743,-5.439M143.989,67.424c-0.076,2.43 -1.476,4.477 -1.808,6.813c-0.321,2.252 -0.381,4.561 -1.226,6.814c-0.663,-0.446 -0.584,-0.828 -0.453,-1.233c0.332,-1.019 0.465,-2.068 0.592,-3.133c0.185,-1.564 0.226,-3.205 0.983,-4.621c1.487,-2.776 0.191,-5.744 0.712,-8.576c0.024,-0.13 -0.154,-0.297 -0.435,-0.797c-0.972,6.603 -2.638,12.718 -3.53,19.085c1.248,0.069 2.402,0.284 3.499,-0.306c1.206,-5.111 2.155,-10.224 3.966,-15.234c-1.17,-0.063 -1.631,0.734 -2.3,1.188M92.261,99.108c-0.195,-0.063 -0.391,-0.124 -0.587,-0.185c1.313,-6.403 3.748,-12.515 5.314,-19.067c-1.244,0.813 -1.353,0.89 -1.427,1.448c-0.421,3.194 -1.897,6.076 -2.682,9.166c-0.737,2.903 -1.633,5.765 -2.451,8.619c1.257,0.889 2.572,0.971 3.638,0.249c1.278,-6.795 3.935,-13.281 5.132,-20.12c-0.229,-0.073 -0.457,-0.146 -0.687,-0.219c-1.473,3.16 -2.298,6.568 -3.294,9.905c-1.012,3.393 -1.972,6.802 -2.956,10.204M180.815,26.13c3.43,0.636 6.859,1.274 10.288,1.91c-0.014,0.071 -0.028,0.142 -0.041,0.212l2.717,0c0.592,0.365 1.282,0.732 2.059,0.82c2.223,0.253 4.46,0.387 6.539,1.371c0.473,0.225 1.085,0.224 1.631,0.218c1.63,-0.019 2.518,-0.943 2.307,-2.341c-10.422,-1.726 -20.847,-3.453 -31.598,-5.234c-0.615,0.322 -1.495,-0.727 -2.516,-0.282c-0.826,0.36 -2.023,0.091 -2.225,1.507c0.899,0.188 1.671,-0.086 2.514,-0.227c0.501,0.532 1.133,0.711 1.86,0.436c0.351,-0.138 0.273,-0.839 0.933,-0.644c-0.224,1.376 0.59,1.65 1.753,1.713c1.235,0.068 2.489,0.16 3.779,0.541M185.329,28.401c-0.731,0.178 -1.944,-0.114 -2.891,-0.487c-2.819,-1.111 -5.857,-1.041 -8.707,-1.929c-1.436,-0.448 -2.99,-0.817 -4.578,-0.091c-0.319,0.456 -0.911,0.93 -0.272,1.685c2.36,0.745 4.802,1.218 7.262,1.591c3.564,0.54 7.015,1.652 10.618,2.005c1.149,0.111 2.362,0.37 3.362,0.904c0.776,0.414 1.504,0.546 2.323,0.671c2.397,0.369 4.52,-0.83 6.803,-1.088c0.383,-0.043 0.832,-0.12 0.791,-0.849c-4.8,-0.382 -9.502,-1.405 -14.711,-2.412M269.296,38.59c-2.736,0.285 -5.111,-0.542 -7.54,-0.979c-3.481,-0.628 -6.927,-1.426 -10.448,-1.859c-2.354,-0.289 -4.675,-0.83 -7.018,-1.218c-2.023,-0.335 -4.059,-0.595 -6.084,-0.917c-3.433,-0.546 -6.86,-1.124 -10.292,-1.671c-2.261,-0.361 -4.518,-0.735 -6.847,-1.393c-0.94,0.423 -2.091,0.484 -3.18,0.763c-0.241,0.242 -0.341,0.494 -0.106,0.925c1.089,0.067 2.235,0.343 3.385,0.463c1.174,0.123 2.326,0.119 3.234,1.052c0.367,-0.134 0.706,-0.257 1.14,-0.415c1.055,0.975 2.573,0.525 3.817,1.106c0.204,0.297 0.104,0.772 0.54,0.914c0.6,-0.229 0.6,-0.229 1.255,-0.865c2.375,0.735 4.891,0.833 7.363,1.211c0.289,0.215 0.579,0.429 0.87,0.644c4.333,0.677 8.659,1.228 12.886,1.892c0.334,0.177 0.187,0.647 0.726,0.676c0.276,0.02 0.372,-0.574 0.897,-0.458c0.121,0.184 0.276,0.418 0.415,0.627c1.452,-0.211 2.73,0.57 4.124,0.588c0.843,0.011 1.805,0.074 2.441,0.584c1.72,1.379 3.425,1.031 5.239,0.328c1.097,-0.424 2.097,-0.97 3.183,-1.998M200.832,43.988c1.173,-0.123 1.222,0.934 1.606,1.6c1.092,-0.344 1.155,-0.76 0.236,-2.098c1.134,-2.547 2.302,-5.194 3.507,-7.824c0.104,-0.225 0.446,-0.436 0.705,-0.477c1.275,-0.197 2.301,-0.951 3.436,-1.458c0.825,-0.371 1.672,-0.675 2.64,-0.666c-0.849,1.303 -2.154,1.794 -3.593,1.949c-0.348,0.324 -0.447,0.638 -0.151,1.076c2.673,0.894 5.593,1.073 8.409,2.201c0.786,-0.262 1.69,-0.031 2.592,0.147c2.652,0.523 5.305,1.038 7.945,1.616c0.704,0.154 1.42,-0.073 2.079,0.129c3.038,0.933 6.216,1.034 9.311,1.631c3.052,0.589 6.177,0.798 9.236,1.361c2.341,0.43 4.602,0.906 6.804,-0.464c0.517,-0.322 1.152,-0.455 1.731,-0.679c0.35,-0.135 0.554,-0.354 0.381,-0.869c-1.606,-0.589 -3.59,0.178 -4.701,-0.816c-13.102,-2.382 -25.779,-4.685 -38.403,-6.979c-0.228,-0.443 -0.128,-0.724 0.17,-0.998c0.479,-0.074 0.983,-0.153 1.507,-0.234c0.992,-1.991 3.187,-1.754 4.819,-2.696c0.208,-0.255 0.109,-0.769 0.591,-0.988c0.198,0.074 0.429,0.16 0.624,0.233c0.427,-0.178 0.609,-0.755 1.166,-0.551c0.309,0.679 -0.592,0.982 -0.483,1.677c1.777,0.168 1.336,-2.313 2.929,-2.416c0.263,1.176 -1.318,1.714 -0.988,3.179c0.646,-1.464 1.382,-2.508 2.503,-3.079c0.673,-0.043 1.263,0.406 1.944,-0.236c-0.517,-1.058 0.567,-2.126 0.21,-3.528c-0.392,0.439 -0.799,0.695 -0.895,1.037c-0.428,1.522 -1.755,1.677 -2.94,1.979c-0.99,0.252 -2.032,0.288 -3.037,0.492c-1.794,0.367 -3.46,1.111 -5.315,1.84c-0.946,-0.382 -1.902,0.746 -2.986,0.369c-0.955,0.987 -6.912,2.935 -7.78,2.484c0.984,-1.652 3.719,-1.577 3.937,-3.941c-0.486,-0.049 -0.645,0.82 -1.526,0.223c1.778,-3.551 3.679,-7.117 5.363,-10.781c1.708,-3.714 3.201,-7.526 4.934,-11.639c-1.546,0.751 -1.935,1.943 -2.357,3.003c-1.075,2.698 -2.198,5.372 -3.474,7.98c-1.92,3.925 -3.869,7.835 -5.746,11.781c-0.454,0.953 -0.664,1.962 -1.748,2.533c-0.719,0.38 -1.444,0.273 -2.139,0.337c-1.305,0.122 -2.341,0.984 -3.621,1.102c-2.057,0.191 -4.048,0.745 -6.039,1.237c-4.741,1.17 -9.457,2.44 -14.175,3.697c-2.426,0.648 -4.972,0.804 -7.34,1.745c-0.066,0.605 -0.05,1.201 -0.315,1.711c0.095,0.357 0.594,0.419 0.499,0.864c-0.772,1.663 -4.339,2.804 -6.522,2.057c-0.107,-0.69 0.697,-0.676 0.905,-1.18c0.113,-0.614 0.045,-1.201 -0.773,-1.671c-23.019,6.778 -46.542,12.129 -69.786,18.315c-0.416,0.993 0.036,2.052 -0.428,2.916c-2.546,0.845 -6.185,0.64 -6.649,-0.438c1.617,-0.532 3.414,0.5 4.95,-0.557c0.181,-0.421 0.48,-0.82 0.309,-1.328c-2.009,-0.286 -11.447,3.133 -12.016,4.373c0.733,0.404 1.596,-0.477 2.363,0.285c-0.432,0.957 -1.216,1.216 -2.232,1.063c-0.142,0.679 -0.854,1.343 0.234,1.984c1.255,-1.559 3.209,-1.811 4.86,-2.648c1.136,0.097 2.287,0.064 3.562,0.437c-0.724,1.449 -2.109,2.09 -3.053,2.943c-0.811,0.265 -1.257,-0.069 -1.585,-0.536c-0.649,0.049 -1.222,0.092 -2.084,0.158c0.85,1.255 2.147,1.267 3.106,1.659c2.697,1.102 3.896,-1.719 5.887,-2.529c0.272,-0.042 0.296,0.478 0.792,0.189c0.228,-0.127 -0.204,-0.557 0.073,-0.804c0.409,-0.168 0.81,-0.384 1.321,-0.099c0.095,0.214 0.211,0.474 0.337,0.762c0.692,0.031 1.126,0.475 1.445,0.889c0.552,0.255 1.155,-0.004 1.51,0.495c-0.531,1.424 -4.325,4.082 -5.517,3.88c-0.526,-0.652 0.457,-1.711 -0.686,-2.323c-0.478,1.032 -1.06,1.956 -0.75,3.129c-0.695,0.502 -1.264,1.092 -2.058,1.201c-0.81,-0.198 -1.384,-0.703 -2.02,-1.17c-0.565,0.598 -0.184,1.247 -0.302,1.728c0.143,0.432 0.641,0.405 0.696,0.922c-0.034,0.206 -0.088,0.529 -0.152,0.929c0.615,0.418 0.295,1.317 0.927,1.84c1.382,-0.119 1.247,-1.421 1.762,-2.328c3.011,-1.297 5.65,-3.429 8.771,-4.718c2.095,-0.866 4.071,-2.02 6.092,-3.059c0.924,-0.474 2.105,-0.465 2.707,-1.55c0.516,-0.929 1.123,-1.806 1.688,-2.708c0.233,-0.37 0.449,-0.762 1.099,-0.657c-0.337,1.528 -1.891,2.313 -2.39,3.763c3.129,-0.341 3.467,-3.837 5.977,-4.974c-0.155,1.464 -1.854,1.772 -1.926,3.359c2.126,-0.694 4.059,-1.326 5.918,-1.933c0.522,-1.735 0.746,-2.041 1.622,-2.306c0.361,0.832 -1.061,1.172 -0.558,2.105c1.05,0.228 1.645,-0.473 2.183,-1.156c1.188,-1.511 1.165,-1.529 1.868,-1.777c0.119,0.69 -1.148,0.982 -0.461,1.925c0.882,-0.334 1.773,-0.756 2.845,-0.783c-0.314,-1.133 0.403,-1.629 1.233,-2.381c-0.787,1.584 -0.787,1.584 -0.649,2.165c6.298,-1.311 12.291,-3.727 18.648,-5.348c-0.705,1.724 -1.306,3.29 -1.21,5.121c1.359,-0.281 2.605,-0.381 3.622,-1.063c1.091,-4.254 1.091,-4.254 2.084,-4.44c-0.875,2.155 -1.379,4.276 -0.723,6.933c1.616,-2.779 3.924,-4.079 6.652,-4.706c0.368,0.302 -0.29,0.778 0.2,1.095c0.531,-0.258 0.333,-0.863 0.64,-1.294c0.187,-0.12 0.433,-0.279 0.68,-0.436c0.25,-0.157 0.335,-0.616 0.543,-0.531c-1.459,8.557 -4.63,16.634 -6.299,25.024c0.471,0.359 0.747,0.571 1.003,0.767c-0.151,0.439 -0.704,0.109 -0.811,0.572c0.083,0.382 0.314,0.697 0.638,0.935c1.797,0.2 3.239,1.194 4.771,2.075c-0.922,0.882 -1.565,-0.259 -2.331,-0.324c-1.019,-0.087 -1.471,-1.254 -2.529,-1.259c-0.085,0.847 1.013,0.815 0.955,1.531c-0.627,0.455 -1.111,-0.402 -1.703,-0.127c-0.27,0.245 0.077,0.777 -0.449,0.938c-1.818,-0.674 -3.249,-2.21 -5.271,-2.741c0.147,1.413 1.591,0.793 2.082,1.541c-0.921,0.939 -4.819,-0.657 -5.814,-2.337c0.847,-0.115 1.498,0.754 2.543,0.297c0.027,-0.047 0.174,-0.301 0.226,-0.39c1.015,-0.108 1.584,0.499 2.346,0.66c0.378,-0.243 0.771,-0.495 1.131,-0.727c0.562,0.306 1.072,0.583 1.511,0.821c0.737,-0.215 0.939,-0.601 0.707,-1.285c-0.281,-0.068 -0.593,-0.184 -0.913,-0.216c-2.548,-0.258 -5.099,-0.203 -7.653,-0.096c-2.745,0.115 -5.489,0.142 -8.237,0.341c-2.162,0.156 -4.291,0.446 -6.429,0.742c-2.369,0.328 -4.616,1.173 -6.947,1.655c-2.665,0.553 -5.227,1.454 -7.647,2.624c-2.354,1.136 -4.748,2.244 -6.871,3.858c-0.796,0.605 -1.386,1.425 -2.239,1.925c-2.503,1.466 -2.571,1.579 -2.031,4.358l1.006,0c1.807,1.536 3.912,2.573 6.077,3.509c0.636,0.275 1.055,0.052 1.368,-0.515c0.442,-0.801 0.938,-1.564 1.586,-2.183c0.841,0.251 1.017,0.949 1.234,1.887c0.278,-0.654 0.444,-1.046 0.623,-1.466c0.93,-0.298 1.608,-0.94 2.159,-1.762c0.981,0.536 1.931,0.687 2.93,0.365c-0.032,-1.062 -0.869,-0.572 -1.349,-0.937c-0.135,-0.196 -0.338,-0.489 -0.565,-0.816c-0.683,0.362 -1.4,0.311 -2.08,0.454c-0.772,0.161 -1.234,0.742 -1.801,1.199c-0.357,0.287 -0.77,0.193 -1.04,-0.249c-0.072,-0.38 0.09,-0.711 0.236,-1.031c1.518,-1.048 2.708,-1.336 4.638,-1.216c2.326,-0.86 4.408,-1.647 6.503,-2.394c0.533,-0.191 1.092,-0.28 0.995,-1.122c-1.007,-0.457 -2.329,-0.405 -2.931,-1.595c-0.357,0.018 -0.678,0.034 -0.976,0.049c-0.456,-0.552 -0.349,-1.169 0.125,-1.378c1.093,-0.484 2.319,-0.626 3.276,-1.284c0.633,0.717 -0.652,0.948 -0.156,1.541c0.507,0.103 0.556,-0.613 1.146,-0.504c1.474,0.048 2.798,0.933 3.982,1.359c1.144,0 2.16,0.285 2.875,-0.058c1.595,-0.762 3.33,-0.871 4.975,-1.308c4.503,-1.194 9.168,-1.047 13.781,-0.897c1.693,0.054 3.423,0.243 5.12,0.503c0.138,0.022 0.27,0.08 0.368,0.11c0.208,0.345 -0.428,0.627 0.018,0.926c0.607,0.223 0.767,-0.442 1.254,-0.657c1.259,0.195 2.566,0.456 3.934,0.335c1.306,-0.114 2.553,-0.376 3.65,-1.048c0.529,-0.323 1.174,-0.846 0.69,-1.835c-0.818,0.268 -1.529,-0.221 -2.313,-0.373c-2.149,-0.416 -4.419,-0.17 -6.459,-1.166c-1.141,-0.559 -2.626,-0.659 -3.068,-2.3c0.344,-0.064 0.652,-0.121 0.947,-0.177c0.479,-0.887 0.415,-2.017 1.574,-2.762c0.078,0.242 0.168,0.528 0.262,0.825c0.685,-0.629 1.164,-1.07 1.354,-1.245c0.687,-5.338 2.61,-10.047 3.589,-15.021c-0.455,0.498 -0.909,0.995 -1.367,1.498c-0.364,-0.125 -0.667,-0.228 -0.903,-0.307c-0.514,0.19 -0.682,0.551 -0.796,0.953c-0.211,0.743 -0.396,1.494 -0.631,2.23c-1.28,4.023 -2.823,7.965 -3.744,12.098c-0.097,0.436 -0.285,0.77 -0.805,0.617c-0.216,-0.18 -0.253,-0.387 -0.18,-0.616c0.894,-2.838 1.706,-5.708 2.707,-8.509c1.192,-3.335 2.138,-6.727 2.684,-10.22c0.202,-1.287 0.863,-1.989 2.028,-2.307c1.116,-0.303 1.664,-0.993 1.955,-2.121c0.476,-1.843 1.123,-3.642 1.722,-5.451c0.154,-0.465 0.358,-0.956 1.079,-0.868c-0.459,2.51 -2.013,4.626 -2.164,7.142c1.184,0.213 1.521,0.033 1.75,-1.058c0.433,-2.064 1.444,-3.93 1.985,-5.956c0.083,-0.31 0.168,-0.747 0.826,-0.668c-0.172,1.61 -0.872,3.012 -1.433,4.476c-0.81,2.109 -1.619,4.261 -0.962,6.678c-1.294,4.781 -2.613,9.65 -3.947,14.58c0.761,0.074 1.172,-0.021 1.315,-0.149c1.572,-5.689 3.079,-11.145 4.522,-16.363c-0.22,-0.64 -0.735,-0.687 -0.783,-1.498c1.248,-2.284 1.615,-5.297 3.235,-7.804c-0.328,2.909 -1.703,5.503 -2.304,8.334c2.774,-2.527 3.266,-6.243 4.996,-9.328c-0.457,1.935 -1.244,3.753 -1.512,5.722c0.529,0.117 0.918,0.162 1.265,-0.013c0.961,-2.539 1.909,-5.043 2.855,-7.546c0.131,0.051 0.261,0.102 0.392,0.152c0.018,1.385 -0.579,2.609 -1.312,3.722c-1.581,2.392 -1.452,4.365 0.523,6.014c0.077,0.644 -0.475,1.17 -0.334,1.813c0.809,0.688 1.281,0.565 1.524,-0.444c0.164,-0.685 0.304,-1.347 0.999,-1.775c0.228,0.574 0.064,1.084 -0.111,1.537c-1.275,3.3 -2.18,6.707 -3.008,10.138c-0.108,0.446 -0.356,0.92 0.206,1.343c0.659,-0.323 1.444,-0.687 1.394,-1.507c-0.173,-2.821 1.164,-5.281 1.771,-7.911c0.297,-1.287 0.925,-2.498 1.419,-3.787c0.888,0.783 0.888,0.783 1.951,0.438c1.577,-4.364 3.09,-8.851 5.349,-13.038c-1.057,4.228 -3.065,8.14 -3.859,12.446c0.329,0.183 0.643,0.367 1.086,0.28c0.763,-0.869 0.821,-1.985 0.934,-3.076c0.12,-1.152 0.82,-1.957 1.471,-2.746c-0.634,4.791 -2.729,9.214 -3.95,14.195c1.079,-0.389 1.788,-0.58 2.438,-0.894c1.144,-0.551 2.251,-1.153 2.146,-2.738c-0.034,-0.515 0.329,-0.78 0.836,-0.661c0.366,0.299 -0.185,0.758 0.285,1.02c0.286,-0.222 0.104,-0.776 0.703,-0.871c0.263,0.073 0.639,0.178 1.367,0.381c1.543,-3.888 3.474,-7.613 3.676,-11.972c-0.576,-0.005 -0.89,0.181 -0.898,0.69c-0.01,0.635 -0.364,1.123 -0.701,1.595c-0.783,1.099 -1.144,2.393 -1.017,3.639c0.219,2.131 -1.238,3.379 -2.131,4.951c0.234,-1.02 0.905,-1.966 0.408,-3.165c-0.947,0.581 -0.862,1.659 -1.431,2.409c-0.304,-0.093 -0.6,-0.184 -0.895,-0.275c-0.414,0.392 -0.785,0.745 -1.137,1.079c-0.508,0.085 -0.929,0.069 -1.107,-0.573c1.02,-2.442 2.158,-4.895 2.555,-7.618c0.149,-1.015 0.534,-2.07 1.521,-2.712c0.286,-0.187 0.387,-0.516 0.454,-0.856c0.476,-2.438 1.853,-4.55 2.527,-6.918c0.05,-0.17 0.16,-0.34 0.611,-0.214c0.118,1.986 -1.329,3.498 -1.926,5.25c-0.693,2.032 -0.123,3.821 0.199,5.745c0.446,-0.704 1.055,-1.261 1.249,-2.156c-0.98,-1.301 -0.509,-2.479 0.363,-3.69c0.392,-0.545 0.628,-1.26 0.75,-1.931c0.222,-1.221 0.781,-2.294 1.267,-3.403c0.217,-0.498 0.531,-0.859 1.299,-0.677c-0.782,1.337 -1.378,2.652 -1.829,4.045c-0.432,1.339 -1.08,2.609 -1.725,4.127c0.935,-0.121 1.321,-0.496 1.657,-0.826c0.568,-3.026 1.943,-5.627 3.396,-8.207c0.167,0.187 0.231,0.344 0.188,0.459c-0.727,1.959 -1.375,3.951 -2.363,5.802c-0.265,0.498 -0.357,0.94 0.037,1.45c1.45,-0.61 1.306,-2.421 2.658,-3.53c-0.644,2.167 -1.86,3.796 -1.732,5.947c1.881,-0.821 1.572,-2.994 2.811,-4.115c0.316,-0.012 0.637,0.004 0.925,0.35c-0.157,0.732 -0.322,1.502 -0.491,2.29c1.166,-0.122 2.267,-2.321 2.318,-4.487l-0.018,0.01ZM81.218,62.774c0.354,0.349 0.768,0.444 1.211,0.218c1.7,-0.867 3.54,-1.446 5.138,-2.482c0.129,-0.379 0.097,-0.683 -0.079,-0.826c-3.316,-1.164 -6.457,-2.354 -9.543,-3.727c-2.593,-0.554 -4.967,-1.838 -7.515,-2.604c-1.895,-0.571 -3.596,-1.639 -5.459,-2.258c-1.796,-0.597 -3.438,-1.534 -5.275,-2.055c-1.876,-0.532 -3.579,-1.577 -5.458,-2.195c-2.96,-0.972 -5.853,-2.142 -8.774,-3.229c-1.368,-0.508 -2.735,-1.015 -4.1,-1.529c-2.464,-0.928 -5.001,-1.692 -7.264,-3.139c-1.473,-0.155 -2.881,-0.65 -4.268,-1.243c-1.139,-0.487 -2.286,-1.216 -3.464,-1.29c-2.284,-0.143 -4.628,-0.304 -6.878,0.336c-2.262,0.646 -4.817,0.288 -6.788,1.952c-0.058,0.049 -0.206,-0.009 -0.357,-0.021c-0.433,-0.693 -0.142,-1.053 0.538,-1.306c2.15,-0.801 4.408,-1.091 6.658,-1.416c1.143,-0.165 2.302,-0.26 3.486,-0.698c-0.485,-0.708 -1.112,-0.749 -1.69,-0.869c-1.51,1.067 -3.1,0.631 -4.679,0.437c0.936,-0.792 2.233,-0.275 3.261,-0.863c-0.322,-0.585 -0.809,-0.57 -1.194,-0.75c-0.539,0.152 -1.068,0.301 -1.618,0.455c-0.396,-0.283 -0.852,-0.382 -1.339,-0.393c-2.222,-0.052 -4.327,0.594 -6.425,1.179c-0.701,0.195 -1.309,0.29 -2.002,0.099c0.417,-0.916 3.831,-1.766 5.336,-1.372c0.301,-0.266 0.832,-0.259 1.03,-0.894c-2.518,-0.754 -4.815,0.507 -7.46,0.588c-0.077,-0.031 -0.411,-0.16 -0.806,-0.314c-1.013,0.929 -2.732,0.699 -3.59,2.151c0.712,0.67 1.319,1.241 1.929,1.815l0,0.879c0.496,0.858 1.492,0.575 2.106,1.173c0.027,0.955 0.766,1.278 1.541,1.494c0.182,0.419 0.342,0.785 0.484,1.111c0.372,0.131 0.68,0.24 1.024,0.362c0.314,1.475 1.823,1.918 2.568,3.048c1.751,-0.049 1.87,1.944 3.169,2.417c0.099,0.402 0.184,0.749 0.277,1.127c0.401,0.025 0.753,0.048 1.21,0.076c0.753,2.472 2.721,3.551 5.051,4.398c-0.04,0.39 -0.197,0.942 0.137,1.504l0.93,0c0.169,0.38 0.316,0.709 0.494,1.109c1.913,0.06 2.442,2.53 4.394,2.42c0.257,0.494 0.457,0.881 0.621,1.196c0.665,0.455 1.516,-0.012 2.087,0.727c0.071,0.217 0.172,0.529 0.286,0.881c1.481,0.733 2.732,1.927 4.427,2.243c0.304,0.375 -0.136,0.805 0.189,1.297c0.994,0.269 1.805,0.995 2.453,1.873c0.702,0.245 1.387,0.283 2.048,0.167c0.413,0.251 0.783,0.477 1.155,0.702c-0.113,0.162 -0.211,0.3 -0.298,0.424c0.499,0.635 0.951,0.289 1.34,-0.049c0.289,0.484 -0.121,0.989 0.278,1.335c0.435,0.158 0.737,-0.415 1.188,-0.161c0.471,0.613 0.958,1.245 1.39,1.807c0.683,0.131 1.102,-0.548 1.79,-0.225c0.356,0.137 0.182,0.696 0.494,0.961c0.353,0.207 0.701,0.412 1.085,0.638c0.294,-0.096 0.597,-0.197 0.863,-0.284c1.255,0.724 1.927,0.648 3.159,0.139c1.906,-0.787 3.928,-0.877 5.946,-0.508c0.5,0.091 1.23,0.277 0.878,1.181c-0.359,0.093 -0.708,0.184 -1.021,0.266c-0.48,0.53 -0.532,1 0.088,1.556c0.99,-0.478 1.815,-1.118 2.119,-2.284c0.43,0.024 0.832,0.046 1.208,0.067c0.892,-0.604 1.961,-0.732 2.837,-1.188c3.154,-1.64 6.452,-2.808 9.953,-3.328c2.88,-0.428 5.249,-1.857 7.625,-3.371c-0.048,-0.369 -0.085,-0.656 -0.123,-0.942l-0.012,0.005ZM108.208,77.823c0.05,-0.729 -0.073,-1.356 -0.915,-1.617c-0.4,0.439 -0.344,0.761 0.172,0.919c0.38,0.117 0.675,0.262 0.751,0.683c-0.554,1.027 -1.107,2.054 -1.629,3.022c0.332,2.607 -1.18,4.86 -1.106,7.393c0.419,-0.584 0.837,-1.169 1.292,-1.803c-0.511,-1.887 0.647,-3.539 0.837,-5.349c0.115,-1.101 0.795,-2.091 0.598,-3.248M117.64,67.776c-0.327,-0.065 -0.652,-0.124 -1.007,0.171c-0.078,0.359 -0.241,0.766 0.03,1.262c0.841,-0.338 1.733,0.77 2.629,-0.254c0.333,-1.361 0.691,-2.826 1.05,-4.29c-2.006,0.548 -0.994,2.796 -2.436,3.6c-0.074,-0.126 -0.184,-0.314 -0.296,-0.503c0.621,-0.824 0.766,-1.777 0.918,-2.9c-1.544,0.28 -1.73,1.238 -1.713,2.427c0.272,0.161 0.549,0.324 0.825,0.487M268.706,102.933c-0.221,-0.26 -0.463,-0.457 -0.834,-0.475c-2.595,-0.121 -5.137,-0.885 -7.788,-0.622c-0.249,0.254 0.097,0.534 0.017,0.811c-0.055,0.474 -1.052,0.64 -0.41,1.403c0.876,-0.385 1.604,-1.154 2.987,-1.13c-1.517,1.558 -3.234,2.242 -4.944,3.142c-0.403,-1.366 1.499,-1.223 1.262,-2.392c-0.866,0.088 -1.275,0.834 -1.953,1.21c-0.494,0 -1.056,0.215 -1.736,-0.456c1.455,-0.566 2.838,-1.003 4.189,-1.857c0.098,-0.535 -0.256,-0.656 -0.839,-0.458c-1.357,0.457 -2.771,0.765 -3.991,1.578c-0.418,0.28 -0.888,0.621 -1.405,-0.12c1.039,-1.194 2.76,-1.165 3.979,-2.161c-0.492,-0.996 -1.272,-0.301 -1.725,-0.368c-1.614,1.227 -3.391,1.726 -4.877,2.488c-0.649,-0.355 -0.416,-0.891 -0.707,-1.187c-0.748,-0.397 -1.487,1.096 -2.299,-0.029c0.507,-1.167 1.67,-0.825 2.424,-1.148c0.546,0.164 0.439,0.676 0.865,0.997c0.755,-0.471 1.816,-0.489 2.736,-1.483c-5.257,-0.853 -10.345,-0.756 -14.711,-1.868c-3.619,-0.277 -6.64,-0.869 -9.684,-1.335c-8.299,-1.78 -16.765,-2.532 -26.012,-4.237c-1.063,0.034 -3.038,-0.38 -5.013,-0.678c-1.042,-0.158 -2.088,-0.369 -3.116,-0.586c-1.632,-0.345 -3.299,-0.593 -4.926,-0.778c-2.561,-0.294 -5.052,-0.971 -7.722,-0.894c-2.235,0.065 -4.531,-0.06 -6.767,0.148c-2.263,0.208 -4.617,0.024 -6.774,1.012c-0.097,0.045 -0.215,0.056 -0.324,0.06c-2.798,0.097 -5.07,1.502 -7.458,2.773c-2.416,1.285 -4.199,3.146 -5.872,5.187c-1.56,1.903 -2.411,4.717 -0.953,7.495c0.23,0.439 0.441,0.888 0.662,1.335c0.509,0.152 0.489,-0.498 0.854,-0.558c1.169,0.149 2.306,0.372 3.221,1.215c0.328,0.303 0.788,0.09 1.147,0.172c1.892,0.432 3.885,0.228 5.798,1.081c0.601,0.268 1.517,0.162 2.307,0.446c0.595,-0.289 1.201,-0.572 1.987,-0.245c0.2,0.477 0.726,0.705 1.26,0.84c0.544,0.858 0.018,1.253 -0.529,1.618c-5.135,0.212 -10.154,-0.573 -15.621,-1.275c-0.811,-1.007 -2.554,-0.073 -3.98,-0.659c-2.371,-0.972 -5.035,-0.445 -7.435,-1.329c-1.139,-0.42 -2.397,-0.401 -3.469,-0.987c-1.313,0.745 -1.458,1.173 -0.767,2.204c0.383,0.266 0.791,-0.153 1.178,0.043c0.281,1.045 0.281,1.045 1.662,1.572c-0.022,1.222 -0.801,2.048 -1.594,2.855c-2.064,2.1 -4.659,3.394 -7.184,4.826c-2.737,1.554 -5.646,2.621 -8.575,3.711c-1.384,0.514 -2.777,0.548 -4.164,0.792c-1.777,0.312 -2.174,-0.07 -2.233,-1.858c-0.006,-0.176 -0.04,-0.352 -0.076,-0.65c-1.269,0.322 -2.407,0.186 -3.507,-0.53c-0.804,-0.525 -1.006,-1.11 -0.691,-1.953c0.516,-1.372 1.531,-2.414 2.373,-3.57c0.207,-0.285 0.571,-0.479 0.555,-0.965c-2.855,-0.347 -5.188,-1.353 -6.934,-3.917c-1.781,-2.614 -1.216,-5.299 -1.107,-7.945c-2.153,-1.272 -4.239,-2.503 -6.281,-3.711c-1.373,0.636 -2.598,1.298 -4.034,1.379c-0.858,0.048 -1.084,0.78 -1.301,1.46c-0.65,2.039 -1.893,3.646 -3.392,5.167c-1.941,1.973 -4.269,3.05 -7.044,3.666c-0.149,-0.067 -0.444,-0.201 -0.818,-0.369c-2.298,0.613 -4.315,-0.274 -6.256,-1.549c-0.43,-0.767 0.396,-1.522 0.074,-2.442c-1.787,0.099 -3.878,0.792 -4.942,-1.374c-0.979,-1.992 0.641,-3.338 1.543,-4.943c-2.009,0.682 -3.791,2.124 -6.64,1.09c-1.065,-0.552 -1.63,-1.896 -0.855,-3.66c-1.15,-0.379 -1.795,-0.025 -2.404,0.595c-1.187,1.209 -2.456,2.328 -4.032,3.016c-1.371,0.6 -2.776,0.725 -4.173,0.1c-0.644,-0.288 -1.319,-0.366 -1.938,-0.134c-2.821,1.052 -5.121,0.028 -7.113,-1.851c-1.501,-1.414 -2.003,-3.274 -1.422,-5.282c0.453,-1.563 0.643,-3.284 2.108,-4.381c0.161,-0.12 0.238,-0.376 0.07,-0.637c-0.594,-0.282 -1.141,0.562 -1.762,0.126c-0.378,-0.277 -0.118,-0.775 -0.299,-1.021c-0.345,-0.415 -0.775,-0.222 -1.033,-0.348c-0.415,-0.276 -0.336,-0.715 -0.579,-1.08c-0.885,-0.591 -1.541,-1.528 -2.388,-2.278c-1.399,-1.239 -1.363,-1.783 -0.573,-3.401c0.212,-1.677 -2.02,-2.141 -1.843,-3.853c2.46,1.388 2.62,3.877 3.027,6.056c0.739,0.104 0.69,-0.558 1.377,-0.564c-0.128,1.681 0.705,3.009 1.907,4.221c0.311,-0.033 0.664,-0.072 1.004,-0.109c0.363,0.384 -0.098,0.918 0.428,1.365c0.343,0.21 1.094,-0.342 1.353,0.415c0.985,-0.14 1.233,-0.954 1.739,-1.512c-0.11,-1.001 -0.423,-2.013 0.488,-2.846c-0.512,-0.476 -0.991,-0.881 -0.707,-1.642c-0.429,0.042 -0.741,0.074 -1.011,0.101c-0.603,-0.714 0.222,-1.496 -0.275,-2.232c-1.068,0.324 -1.98,-0.101 -2.846,-0.761c-0.541,0.056 -1.184,0.382 -1.497,-0.397c-0.069,-0.915 1.433,-1.192 0.916,-2.325c-0.956,-0.194 -1.511,0.583 -2.232,0.965c-1.502,-2.209 -0.069,-3.664 1.48,-5.174c-0.851,-0.36 -1.459,-0.672 -2.101,-0.882c-2.118,-0.692 -3.863,-1.999 -5.712,-3.186c-1.659,-1.064 -3.416,-2.044 -4.919,-3.281c-1.529,-1.259 -3.43,-1.779 -4.93,-3.014c-1.376,-1.133 -2.814,-2.192 -4.206,-3.308c-1.768,-1.418 -3.613,-2.76 -5.246,-4.322c-1.722,-1.646 -3.539,-3.183 -5.286,-4.798c-3.091,-2.855 -5.752,-6.129 -8.962,-8.873c-1.639,-1.398 -3.354,-2.893 -3.978,-5.151c-0.08,-0.291 -0.294,-0.507 -0.642,-0.671l-1.09,0c-0.379,-0.89 -0.295,-1.615 0.56,-2.191c2.337,-1.574 4.991,-2.152 7.726,-2.481c3.023,-0.364 5.916,-0.167 8.766,1.186c1.473,0.7 3.065,1.301 4.735,1.618c1.088,0.206 2.01,0.966 3.098,1.341c4.687,1.617 9.329,3.361 13.982,5.073c3.909,1.437 7.825,2.842 11.797,4.103c1.379,0.438 2.793,1.014 4.088,1.825c1.364,0.853 3.068,0.948 4.557,1.618c3.246,1.463 6.497,2.94 9.841,4.15c1.92,0.694 3.783,1.537 5.709,2.221c1.945,0.691 3.94,1.297 5.858,2.118c1.497,0.64 3.131,1.049 4.639,1.716c0.994,0.439 2.125,0.523 3.022,1.184c0.316,0.256 0.114,0.636 0.246,0.988c1.74,-0.412 3.479,-0.815 5.212,-1.238c1.049,-0.255 1.183,-1.134 1.236,-1.991c0.11,-1.759 0.056,-3.528 0.352,-5.274c0.053,-0.313 -0.065,-0.684 0.509,-0.89c1.317,2.365 -0.223,4.97 0.632,7.409c2.364,-0.305 4.617,-1.245 6.964,-1.795c4.508,-1.057 8.94,-2.433 13.503,-3.257c1.093,-0.198 2.118,-0.611 3.178,-0.903c7.302,-2.014 14.676,-3.742 22.026,-5.574c4.581,-1.141 9.12,-2.447 13.683,-3.664c3.428,-0.915 6.899,-1.734 10.192,-3.044c3.55,-1.413 7.308,-2.015 10.944,-3.077c2.398,-0.699 4.925,-1.14 7.426,-1.549c1.95,-0.319 3.643,-1.355 5.489,-2.15c-5.599,-1.588 -11.334,-2.343 -17.408,-3.58c-0.611,0.24 -1.601,-0.651 -2.623,-0.306c-1.032,-0.962 -3.052,-0.426 -3.323,-2.435c0.707,-0.485 1.013,-1.184 1.038,-2.041c0.011,-0.39 0.288,-0.707 0.613,-0.876c1.413,-0.734 2.645,-1.858 4.307,-2.059c0.973,-0.117 1.821,0.424 2.768,0.547c3.788,0.495 7.582,1.018 11.326,1.77c5.012,1.008 10.091,1.592 15.103,2.603c1.653,0.334 3.372,0.789 5.26,0.549c1.2,-2.701 2.64,-5.334 3.779,-8.132c1.121,-2.752 2.687,-5.326 3.752,-8.096c0.752,-1.956 1.993,-3.676 2.327,-5.872c0.294,-1.932 1.745,-3.322 3.799,-3.817c2.436,-0.588 4.898,-1.032 7.454,-1.331c1.091,1.276 1.857,2.733 2.506,4.32c0.483,1.186 0.699,2.456 1.3,3.596c0.868,1.646 0.91,3.34 0.418,5.137c-0.324,1.183 -0.221,2.456 -0.459,3.683c-0.29,1.502 -0.306,3.054 -0.985,4.476c-0.187,0.389 -0.259,0.848 -0.316,1.283c-0.286,2.207 -0.573,4.414 -0.81,6.627c-0.074,0.692 -0.578,1.081 -0.904,1.527c0.022,0.482 0.237,0.643 0.634,0.674c4.187,0.33 8.263,1.39 12.421,1.908c3.717,0.461 7.389,1.212 11.08,1.823c3.576,0.589 7.18,1.097 10.698,2.052c1.828,0.496 3.804,0.382 5.55,1.292c0.441,0.229 0.811,0.492 1.115,1.01c-1.558,3.216 -4.999,2.285 -7.094,3.356c-1.998,-0.475 -3.51,-0.492 -5.045,0.246c-1.915,0.92 -4.016,1.395 -5.891,2.445c-0.62,0.347 -1.288,-0.033 -1.862,-0.318c-7.662,-1.499 -15.357,-2.793 -23.141,-4.21c-1.095,0.714 -1.938,1.887 -3.273,2.603c-0.701,-1.505 1.233,-1.865 1.217,-2.986c-0.692,-0.022 -2.185,1.567 -2.468,2.673c0.141,0.232 0.308,0.505 0.501,0.821c-0.637,1.023 -1.295,1.927 -0.908,3.395c0.422,1.606 -2.568,4.181 -4.336,4.024c-0.438,-0.039 -0.871,-0.12 -1.386,-0.194c-0.235,-0.373 -0.481,-0.778 -0.742,-1.174c-0.271,-0.411 -0.631,-0.709 -1.145,-0.85c-0.292,0.233 -0.575,0.461 -0.779,0.623c-1.687,0.304 -2.905,1.393 -4.308,2.059c-2.873,1.363 -5.641,2.971 -8.347,4.649c-1.813,1.123 -3.682,2.18 -5.548,3.165c-2.141,1.129 -4.211,2.393 -6.383,3.472c-2.956,1.468 -5.819,3.123 -8.723,4.694c-4.666,2.524 -9.326,5.055 -14,7.563c-2.128,1.142 -4.343,2.127 -6.472,3.249c-1.717,0.903 -3.08,2.434 -4.109,4.129c1.373,1.467 3.166,1.287 4.781,1.619c2.72,0.559 5.479,0.93 8.165,1.664c0.314,0.085 0.657,0.091 0.987,0.087c2.11,-0.027 2.168,0.006 2.898,1.952c0.517,0.2 0.837,0.082 0.853,-0.525c-0.005,-0.464 -0.652,-0.362 -0.692,-0.915c1.491,0.106 2.889,0.451 4.305,0.666c5.289,0.946 10.577,1.894 15.866,2.841c0.473,-0.042 0.97,-0.185 1.354,0.357c0.291,-0.154 0.516,-0.272 0.627,-0.33c1.34,0.188 2.481,0.693 3.74,0.755c1.189,0.058 2.373,0.548 3.603,-0.059l0,0.857c5.533,0.527 10.864,2.158 16.673,2.592c0.297,0.334 1.021,0.438 1.75,0.553c4.046,0.638 8.073,1.46 12.141,1.874c3.506,0.357 6.887,1.418 10.449,1.49c1.601,0.032 3.25,0.554 4.887,0.794c2.715,0.399 5.433,0.781 8.158,1.092c0.537,0.062 0.85,0.355 1.155,0.565c2.95,-0.108 5.795,-0.101 8.588,0.726c0.69,0.205 1.455,0.182 2.188,0.213c3.943,0.173 7.677,1.475 11.529,2.146c2.812,0.489 5.615,1.116 8.359,1.903c2.457,0.703 5.009,0.85 7.457,1.584c2.255,0.675 4.29,1.782 6.327,2.887c1.173,0.638 1.397,1.822 1.148,2.861c-1.368,2.293 -3.931,2.24 -5.543,3.58c-0.503,-0.019 -0.724,-0.254 -0.884,-0.563c-0.15,-0.288 -0.202,-0.643 -0.579,-0.796c-2.212,1.248 -4.459,2.452 -6.897,3.245c-2.66,0.865 -5.352,1.478 -8.185,1.081c-0.796,-0.111 -1.609,-0.116 -2.415,-0.133c-2.309,-0.048 -4.62,-0.045 -6.928,-0.125c-1.856,-0.065 -3.712,-0.19 -5.562,-0.358c-0.571,-0.052 -1.093,-0.033 -1.63,0.19c-0.302,-0.122 -0.607,-0.244 -0.94,-0.379c-0.33,0.129 -0.667,0.259 -1.04,0.403c-0.341,-0.208 -0.68,-0.416 -0.834,-0.51c-2.718,0.127 -5.242,0.048 -7.743,-0.27c-2.651,-0.34 -5.314,-0.35 -7.97,-0.431c-4.445,-0.135 -8.898,0.011 -13.339,-0.35c-2.84,-0.232 -5.7,-0.147 -8.532,-0.523c-0.517,-0.069 -1.025,0.049 -1.513,0.252c-0.416,0.173 -0.872,0.296 -1.289,0.089c-2.009,-0.999 -4.138,-1.061 -6.332,-1.058c-2.22,0.003 -4.458,-0.183 -6.654,-0.509c-2.553,-0.379 -5.112,-0.395 -7.671,-0.556c-2.994,-0.189 -5.973,-0.652 -8.968,-0.8c-2.253,-0.112 -4.47,-0.552 -6.737,-0.539c-3.401,0.018 -6.787,-0.322 -10.164,-0.706c-0.897,-0.101 -1.832,-0.049 -2.737,-0.518c0.062,-0.845 -0.623,-1.617 -0.423,-2.807c0.869,0.861 1.866,-0.048 2.448,0.607c2.868,-0.205 5.583,0.12 8.882,0.422c1.442,-0.31 3.369,0.582 5.379,0.591c0.361,0.302 -0.016,1.115 0.826,1.163c0.034,-0.322 0.067,-0.638 0.095,-0.906c0.182,-0.289 0.402,-0.387 0.757,-0.338c0.078,0.223 0.167,0.475 0.26,0.74c1.58,-0.954 3.196,-0.22 4.734,-0.189c2.517,0.05 5.019,0.616 7.562,0.454c0.49,-0.032 0.785,0.374 1.145,0.5c4.196,-0.177 8.292,0.337 12.407,0.669c0.751,-0.288 1.662,0.19 2.444,-0.285c0.791,0.479 1.85,0.192 2.452,0.956c2.809,-0.885 5.565,0.676 8.28,-0.029c0.48,-0.039 0.502,0.543 0.974,0.616c3.171,-0.666 6.389,0.434 9.687,0.17c0.25,0.147 0.53,0.311 0.871,0.511c0.568,-0.405 1.137,-0.155 1.65,0.143c0.57,-0.085 1.025,-0.655 1.674,-0.149c0.073,0.226 0.169,0.53 0.347,1.092c0.312,-1.042 0.991,-1.024 1.678,-1.001c2.797,0.09 5.593,0.176 8.287,0.26c0.246,0.492 -0.254,0.427 -0.168,0.749c0.608,0.137 1.203,0.22 1.479,-0.365c1.371,-0.096 2.614,-0.204 3.886,-0.024c0.439,0.28 0.535,1.042 1.238,1.05c0.334,-0.335 -0.281,-0.613 0.01,-0.944c0.575,-0.298 0.788,0.363 0.969,0.421l8.995,0c0.993,0.543 2.596,0.158 4.021,0.739c0.312,-0.13 0.612,-0.257 0.629,-0.264c4.232,0.295 8.177,0.766 12.108,-0.3c0.968,-0.302 0.968,-0.302 1.583,-0.16c2.09,-0.948 4.07,-1.819 6.02,-2.753c0.444,-0.213 0.773,-0.656 1.173,-0.972c1.294,-1.026 1.862,-0.96 2.954,0.314c0.166,0.193 0.341,0.379 0.486,0.539c1.39,0.071 2.195,-1.051 1.93,-2.609c-3.142,-1.396 -5.903,-3.752 -9.719,-3.653c-2.088,2.249 -5.42,2.077 -8.121,3.376c-0.23,0.11 -0.493,0.18 -0.79,-0.076c-0.157,-0.591 0.279,-0.774 0.749,-0.92c2.271,-0.706 4.542,-1.407 6.812,-2.118c0.161,-0.05 0.303,-0.165 0.479,-0.451c-4.773,-1.14 -9.52,-2.302 -14.094,-3.467c-2.59,1.765 -5.564,2.178 -7.981,3.735c-0.43,-0.597 -0.343,-0.942 0.035,-1.036c1.786,-0.448 3.222,-1.732 5.047,-2.076c0.645,-0.122 1.07,-0.524 1.535,-1.269c-1.904,0.216 -3.556,-0.097 -5.221,-0.142c-0.819,-0.023 -1.503,-0.675 -2.352,-0.412l0.025,0.024Z" style="fill:#fafafa;fill-rule:nonzero;"/></svg>